<?xml version="1.0" encoding="utf-8"?>
<!-- Generator: Adobe Illustrator 21.1.0, SVG Export Plug-In . SVG Version: 6.00 Build 0)  -->
<svg version="1.1" id="Layer_1" xmlns="http://www.w3.org/2000/svg" xmlns:xlink="http://www.w3.org/1999/xlink" x="0px" y="0px"
	 viewBox="0 0 500 500" style="enable-background:new 0 0 500 500;" xml:space="preserve">
<style type="text/css">
	.st0{fill:#966C4F;}
	.st0-1{fill: none; stroke:#966C4F; stroke-width: 8px;}

	.path {
  stroke-dasharray: 1000;
  stroke-dashoffset: 1000;
  animation: dash 3s infinite;
}

@keyframes dash {
  from {
    stroke-dashoffset: 1000;
  }
  to {
    stroke-dashoffset: 0;
  }
}
</style>
<g>
	<path class="st0-1 path" d="M325.7,214.1v18.1c0,2.3-1.8,4.1-4.1,4.1h-58.4v58.4c0,2.3-1.8,4.1-4.1,4.1h-18.1c-2.3,0-4.1-1.8-4.1-4.1
		v-58.4h-58.4c-2.3,0-4.1-1.8-4.1-4.1v-18.1c0-2.3,1.8-4.1,4.1-4.1h58.4v-58.4c0-2.3,1.8-4.1,4.1-4.1H259c2.3,0,4.1,1.8,4.1,4.1V210
		h58.4C323.8,210,325.7,211.8,325.7,214.1z"/>
</g>
<g>
	<path class="st0" d="M146.5,365.1l8.2-26.1h7.1l8.2,26.1h-6.2l-1.6-6.2h-8l-1.6,6.2H146.5z M156,351.9l-0.6,2.4h5.6l-0.6-2.4
		c-0.4-1.3-0.7-2.7-1.1-4.2c-0.3-1.5-0.7-2.9-1-4.2H158c-0.3,1.4-0.6,2.8-1,4.3C156.7,349.2,156.4,350.6,156,351.9z"/>
	<path class="st0" d="M180.8,365.1V339h7.4c2,0,3.8,0.3,5.4,0.8c1.6,0.5,3,1.3,4.1,2.3c1.1,1.1,2,2.4,2.6,4c0.6,1.6,0.9,3.6,0.9,5.8
		s-0.3,4.2-0.9,5.8c-0.6,1.7-1.5,3-2.6,4.1s-2.5,1.9-4,2.4c-1.6,0.5-3.3,0.8-5.2,0.8H180.8z M186.7,360.4h1.1c1.1,0,2.1-0.1,3-0.4
		c0.9-0.3,1.7-0.8,2.3-1.4c0.6-0.7,1.1-1.5,1.5-2.6c0.4-1.1,0.5-2.4,0.5-4c0-1.5-0.2-2.8-0.5-3.9c-0.4-1.1-0.9-1.9-1.5-2.5
		c-0.6-0.6-1.4-1.1-2.3-1.3c-0.9-0.3-1.9-0.4-3-0.4h-1.1V360.4z"/>
	<path class="st0" d="M214.2,365.1V339h7.4c2,0,3.8,0.3,5.4,0.8c1.6,0.5,3,1.3,4.1,2.3c1.1,1.1,2,2.4,2.6,4c0.6,1.6,0.9,3.6,0.9,5.8
		s-0.3,4.2-0.9,5.8c-0.6,1.7-1.5,3-2.6,4.1s-2.5,1.9-4,2.4c-1.6,0.5-3.3,0.8-5.2,0.8H214.2z M220.1,360.4h1.1c1.1,0,2.1-0.1,3-0.4
		c0.9-0.3,1.7-0.8,2.3-1.4c0.6-0.7,1.1-1.5,1.5-2.6c0.4-1.1,0.5-2.4,0.5-4c0-1.5-0.2-2.8-0.5-3.9c-0.4-1.1-0.9-1.9-1.5-2.5
		c-0.6-0.6-1.4-1.1-2.3-1.3c-0.9-0.3-1.9-0.4-3-0.4h-1.1V360.4z"/>
	<path class="st0" d="M260.3,365.1l8.2-26.1h7.1l8.2,26.1h-6.2l-1.6-6.2h-8l-1.6,6.2H260.3z M269.7,351.9l-0.6,2.4h5.6l-0.6-2.4
		c-0.4-1.3-0.7-2.7-1.1-4.2c-0.3-1.5-0.7-2.9-1-4.2h-0.2c-0.3,1.4-0.6,2.8-1,4.3C270.4,349.2,270.1,350.6,269.7,351.9z"/>
	<path class="st0" d="M294.5,365.1V339h9.4c1.4,0,2.7,0.1,3.9,0.4c1.2,0.3,2.3,0.7,3.2,1.3c0.9,0.6,1.6,1.5,2.2,2.5s0.8,2.3,0.8,3.9
		c0,1.9-0.4,3.5-1.3,4.7c-0.8,1.2-2,2.2-3.4,2.8l5.9,10.4h-6.6l-5-9.4h-3.2v9.4H294.5z M300.4,351h3c1.5,0,2.7-0.3,3.5-1
		s1.2-1.6,1.2-2.9s-0.4-2.2-1.2-2.7s-2-0.8-3.5-0.8h-3V351z"/>
	<path class="st0" d="M331.4,365.1V344h-7.2v-5h20.2v5h-7.2v21.1H331.4z"/>
</g>
</svg>
