<?xml version="1.0" encoding="utf-8"?>
<!-- Generator: Adobe Illustrator 21.1.0, SVG Export Plug-In . SVG Version: 6.00 Build 0)  -->
<svg version="1.1" id="Layer_1" xmlns="http://www.w3.org/2000/svg" xmlns:xlink="http://www.w3.org/1999/xlink" x="0px" y="0px"
	 viewBox="0 0 131 73" style="enable-background:new 0 0 131 73;" xml:space="preserve">
<style type="text/css">
	.st0{fill:none;stroke:#966B4D;stroke-linecap:round;stroke-linejoin:round;stroke-miterlimit:10;}
	.st1{fill:none;stroke:#000000;stroke-linecap:round;stroke-linejoin:round;stroke-miterlimit:10;}
	.st2{fill:none;stroke:#CECDCC;stroke-miterlimit:10;}
</style>
<g>
	<g>
		<g>
			<polyline class="st0" points="104.8,40.2 104.8,43.8 101.8,45.5 			"/>
			<line class="st0" x1="104.8" y1="30.1" x2="104.8" y2="34.5"/>
			<line class="st0" x1="92.9" y1="36.7" x2="96.1" y2="34.9"/>
			<polyline class="st0" points="96.4,48.6 92.9,50.5 92.9,46.1 			"/>
			<line class="st0" x1="81" y1="29.9" x2="81" y2="33.5"/>
			<line class="st0" x1="92.9" y1="39.1" x2="92.9" y2="36.7"/>
			<line class="st0" x1="89.4" y1="48.6" x2="92.9" y2="50.5"/>
			<polyline class="st0" points="81,40.2 81,43.8 83.6,45.3 			"/>
			<polyline class="st0" points="89.4,24.5 92.5,22.5 95.8,24.5 			"/>
			<polyline class="st0" points="83.6,31.4 81,29.9 84.7,27.5 			"/>
			<line class="st0" x1="92.9" y1="36.7" x2="89.7" y2="34.9"/>
			<polyline class="st0" points="100.9,27.6 104.8,30 102,31.6 			"/>
		</g>
	</g>
	<line class="st1" x1="57.6" y1="35.6" x2="74.7" y2="35.6"/>
	<rect x="8.2" y="8.1" class="st2" width="114.6" height="56.9"/>
	<g id="pktZnO_1_">
		<g>
			<path d="M30.9,54.2c-0.4-0.1-0.9-0.3-1.2-0.7c-0.4-0.4-0.5-1-0.5-1.5c0-1.4,0-2.7,0-4.1c0-0.3-0.1-0.3-0.3-0.3
				c-0.6,0-1.2,0-1.8-0.1c-0.8-0.1-1.5-1-1.5-1.8c0-0.3,0-0.5,0-0.8c0-4.2,0-8.3,0-12.5c0-0.1,0-0.2,0-0.4c6.1,0,12.3,0,18.4,0
				c0,0.1,0,0.2,0,0.3c0,4.3,0,8.6,0,13c0,1-0.4,1.7-1.3,2.1c-0.3,0.1-0.7,0.2-1.1,0.2c-0.4,0-0.7,0-1.1,0c-0.2,0-0.3,0.1-0.3,0.3
				c0,1.4,0,2.7,0,4.1c0,0.6-0.1,1.1-0.6,1.6c-0.3,0.4-0.7,0.5-1.2,0.7c-0.2,0-0.5,0-0.7,0c-0.3-0.1-0.6-0.2-0.8-0.4
				c-0.6-0.4-0.9-1-0.9-1.8c0-1.4,0-2.8,0-4.2c0-0.2-0.1-0.3-0.3-0.3c-0.7,0-1.4,0-2.2,0c-0.3,0-0.3,0.1-0.3,0.3c0,1.4,0,2.8,0,4.1
				c0,0.7-0.2,1.3-0.8,1.8c-0.3,0.2-0.6,0.3-0.9,0.4C31.4,54.2,31.1,54.2,30.9,54.2z"/>
			<path d="M42.8,27.1c-0.8-1.3-1.9-2.4-3.3-3.1c-0.2-0.1-0.2-0.2-0.1-0.3c0.4-0.8,0.8-1.5,1.3-2.3c0.1-0.2,0.1-0.4-0.1-0.5h-0.3
				c-0.4,0.8-0.8,1.5-1.3,2.3c-0.3,0.5-0.3,0.6-0.9,0.3c-1.7-0.7-3.5-0.8-5.3-0.4c-0.7,0.1-1.3,0.4-1.9,0.6c-0.2,0.1-0.3,0-0.4-0.1
				c-0.4-0.7-0.7-1.3-1.1-2c-0.1-0.2-0.2-0.4-0.3-0.6h-0.3c-0.2,0.2-0.2,0.4,0,0.6c0.4,0.8,0.8,1.5,1.2,2.3c0.1,0.2,0.1,0.2-0.1,0.3
				c-0.9,0.5-1.7,1.1-2.4,1.9c-1.3,1.4-2,3.1-2.1,5.1c0,0.4,0,0.4,0.4,0.4c5.9,0,11.8,0,17.7,0c0.1,0,0.2,0,0.3,0
				c0.2,0,0.2-0.1,0.2-0.2C43.9,29.7,43.5,28.3,42.8,27.1z M30.5,27.9c-0.4,0-0.7-0.3-0.8-0.8c0-0.4,0.3-0.8,0.7-0.8
				c0.4,0,0.8,0.3,0.8,0.8C31.2,27.6,30.9,27.9,30.5,27.9z M38.9,27.9c-0.4,0-0.8-0.4-0.8-0.8c0-0.4,0.4-0.8,0.8-0.8
				c0.4,0,0.7,0.3,0.7,0.8C39.7,27.6,39.4,27.9,38.9,27.9z"/>
			<path d="M44.7,38c0-1.4,0-2.8,0-4.2c0-0.7,0.2-1.3,0.8-1.7c0.8-0.7,2.1-0.6,2.8,0.2c0.4,0.4,0.5,0.9,0.5,1.4c0,2.8,0,5.6,0,8.5
				c0,1.5-1.4,2.5-2.8,2c-0.8-0.3-1.3-0.9-1.3-1.7c-0.1-0.9,0-1.8,0-2.6C44.7,39.3,44.7,38.6,44.7,38z"/>
			<path d="M24.7,38c0,1.4,0,2.8,0,4.1c0,0.9-0.3,1.6-1.2,2c-1.4,0.6-2.8-0.3-2.9-1.5c0-0.2,0-0.5,0-0.7c0-2.7,0-5.4,0-8
				c0-0.6,0.1-1.1,0.5-1.6c0.8-0.9,2.3-0.9,3.1,0c0.4,0.4,0.5,0.9,0.5,1.5C24.7,35.2,24.7,36.6,24.7,38z"/>
		</g>
	</g>
</g>
</svg>
