<?xml version="1.0" encoding="utf-8"?>
<!-- Generator: Adobe Illustrator 21.1.0, SVG Export Plug-In . SVG Version: 6.00 Build 0)  -->
<svg version="1.1" id="Layer_1" xmlns="http://www.w3.org/2000/svg" xmlns:xlink="http://www.w3.org/1999/xlink" x="0px" y="0px"
	 viewBox="0 0 131 73" style="enable-background:new 0 0 131 73;" xml:space="preserve">
<style type="text/css">
	.st0{fill:none;stroke:#966B4D;stroke-linecap:round;stroke-linejoin:round;stroke-miterlimit:10;}
	.st1{fill:none;stroke:#000000;stroke-linecap:round;stroke-linejoin:round;stroke-miterlimit:10;}
	.st2{fill:none;stroke:#CECDCC;stroke-miterlimit:10;}
</style>
<g>
	<g>
		<g>
			<polyline class="st0" points="103.7,40.2 103.7,43.8 100.6,45.5 			"/>
			<line class="st0" x1="103.7" y1="30.1" x2="103.7" y2="34.5"/>
			<line class="st0" x1="91.8" y1="36.7" x2="95" y2="34.9"/>
			<polyline class="st0" points="95.2,48.6 91.8,50.5 91.8,46.1 			"/>
			<line class="st0" x1="79.8" y1="29.9" x2="79.8" y2="33.5"/>
			<line class="st0" x1="91.8" y1="39.1" x2="91.8" y2="36.7"/>
			<line class="st0" x1="88.3" y1="48.6" x2="91.8" y2="50.5"/>
			<polyline class="st0" points="79.8,40.2 79.8,43.8 82.4,45.3 			"/>
			<polyline class="st0" points="88.2,24.5 91.4,22.5 94.7,24.5 			"/>
			<polyline class="st0" points="82.5,31.4 79.8,29.9 83.6,27.5 			"/>
			<line class="st0" x1="91.8" y1="36.7" x2="88.6" y2="34.9"/>
			<polyline class="st0" points="99.7,27.6 103.7,30 100.9,31.6 			"/>
		</g>
	</g>
	<g>
		<path d="M53,29.3c0,0-0.1,0.1-0.1,0.1c-1.4,0.9-2.4,2.2-3,3.7c-0.3,0.8-0.4,1.6-0.4,2.4c0,1.2,0.2,2.3,0.7,3.4
			c0.6,1.3,1.6,2.3,2.8,3c0.3,0.2,0.6,0.4,1,0.6c0,0,0,0.1,0,0.1c-0.5,1.6-1.3,3.1-2.2,4.5c-0.5,0.7-1,1.4-1.5,2.1
			c-0.3,0.4-0.7,0.8-1.1,1.2c-0.5,0.4-1.1,0.7-1.7,0.9c-0.5,0.1-1,0.1-1.5,0.1c-0.6-0.1-1.1-0.2-1.6-0.4c-0.4-0.2-0.8-0.4-1.3-0.5
			C42.1,50,41.2,50,40.3,50c-0.8,0.1-1.5,0.3-2.2,0.6c-0.4,0.2-0.8,0.3-1.2,0.5c-0.5,0.2-1,0.3-1.5,0.3c-0.5,0-1-0.1-1.5-0.3
			c-0.6-0.3-1-0.6-1.5-1.1c-0.5-0.5-1-1.1-1.4-1.7c-0.7-1-1.4-1.9-1.9-3c-1-1.9-1.7-3.9-2.1-6.1c-0.2-1.3-0.4-2.5-0.3-3.8
			c0.1-1.6,0.3-3.1,1-4.5c0.7-1.6,1.9-2.9,3.4-3.8c0.9-0.6,1.9-0.9,3-1.1c1-0.1,2.1,0,3.1,0.3c0.6,0.2,1.2,0.5,1.8,0.7
			c0.3,0.1,0.6,0.2,0.9,0.3c0.4,0.1,0.8,0.1,1.3,0c0.5-0.1,1-0.3,1.4-0.5c0.6-0.3,1.3-0.5,2-0.7c0.6-0.2,1.3-0.3,1.9-0.3
			c1.4,0,2.8,0.3,4,1C51.5,27.5,52.3,28.3,53,29.3C52.9,29.2,52.9,29.3,53,29.3z"/>
		<path d="M46.9,17.9c0,0.2,0,0.3,0,0.5c0,1-0.2,1.9-0.5,2.8c-0.5,1.3-1.3,2.4-2.5,3.2c-0.7,0.5-1.5,0.9-2.4,1.1
			c-0.4,0.1-0.8,0.1-1.2,0.1c0,0-0.1,0-0.1,0c0,0,0,0-0.1,0c0-0.2,0-0.5,0-0.7c0-0.9,0.2-1.8,0.6-2.6c1-2.1,2.6-3.5,4.8-4.2
			C46,18,46.4,17.9,46.9,17.9C46.8,17.9,46.9,17.9,46.9,17.9z"/>
	</g>
	<line class="st1" x1="56.4" y1="35.6" x2="73.5" y2="35.6"/>
	<rect x="8.1" y="8.1" class="st2" width="114.6" height="56.9"/>
</g>
</svg>
