<?xml version="1.0" encoding="utf-8"?>
<!-- Generator: Adobe Illustrator 21.1.0, SVG Export Plug-In . SVG Version: 6.00 Build 0)  -->
<svg version="1.1" id="Layer_1" xmlns="http://www.w3.org/2000/svg" xmlns:xlink="http://www.w3.org/1999/xlink" x="0px" y="0px"
	 viewBox="0 0 500 500" style="enable-background:new 0 0 500 500;" xml:space="preserve">
<style type="text/css">
	.st0{display:none;}
	.st1{display:inline;}
	.st2{fill:#fff;}
	.st3{display:inline;opacity:0.66;}
	.st4{fill:none;stroke:#fff;stroke-width:3;stroke-linecap:round;stroke-linejoin:round;stroke-miterlimit:10;}
</style>
<g id="Layer_4" class="st0">
	<g class="st1">
		<g>
			<g>
				<circle class="st2" cx="-499.7" cy="173.5" r="24.8"/>
			</g>
			<g>
				<circle class="st2" cx="-415.8" cy="173.5" r="24.8"/>
			</g>
			<g>
				<circle class="st2" cx="-331.9" cy="173.5" r="24.8"/>
			</g>
		</g>
		<g>
			<path class="st2" d="M-517.4,428.5v-49h9.8l8.7,24c0.6,1.6,1.1,3.1,1.6,4.8c0.5,1.6,1,3.2,1.6,4.8h0.3c0.5-1.6,1.1-3.2,1.5-4.8
				c0.5-1.6,1-3.2,1.5-4.8l8.5-24h9.9v49h-8v-22.4c0-1.2,0-2.4,0.1-3.7s0.2-2.7,0.3-4.1s0.2-2.7,0.4-4c0.2-1.3,0.3-2.5,0.4-3.7h-0.3
				l-4,11.4l-8,22h-5.2l-8.1-22l-3.9-11.4h-0.3c0.1,1.2,0.2,2.4,0.3,3.7c0.1,1.3,0.3,2.7,0.4,4c0.1,1.4,0.2,2.7,0.3,4.1
				c0.1,1.3,0.1,2.6,0.1,3.7v22.4H-517.4z"/>
			<path class="st2" d="M-435.2,429.4c-3.2,0-6.1-0.6-8.8-1.8c-2.7-1.2-4.9-2.9-6.8-5.1s-3.4-4.9-4.4-8c-1.1-3.2-1.6-6.7-1.6-10.7
				c0-3.9,0.5-7.5,1.6-10.6s2.5-5.8,4.4-7.9s4.2-3.8,6.8-4.9c2.7-1.1,5.6-1.7,8.8-1.7c3.2,0,6.1,0.6,8.8,1.7
				c2.6,1.2,4.9,2.8,6.8,4.9c1.9,2.2,3.4,4.8,4.5,7.9c1,3.1,1.6,6.6,1.6,10.6s-0.5,7.6-1.6,10.7s-2.5,5.8-4.5,8
				c-1.9,2.2-4.2,3.9-6.8,5.1C-429,428.8-431.9,429.4-435.2,429.4z M-435.2,421.8c2,0,3.7-0.4,5.2-1.3c1.6-0.8,2.9-2.1,4-3.6
				c1.1-1.6,1.9-3.5,2.5-5.7s0.9-4.7,0.9-7.4c0-5.5-1.1-9.8-3.4-12.9s-5.4-4.7-9.2-4.7c-3.9,0-7,1.6-9.2,4.7
				c-2.3,3.1-3.4,7.4-3.4,12.9c0,2.7,0.3,5.2,0.9,7.4c0.6,2.2,1.4,4.1,2.5,5.7s2.4,2.8,4,3.6C-438.8,421.4-437.1,421.8-435.2,421.8z
				"/>
			<path class="st2" d="M-396.2,428.5v-49h16.5c2.5,0,4.9,0.3,7.1,0.8s4.1,1.3,5.7,2.4s2.9,2.6,3.8,4.5c0.9,1.8,1.4,4.1,1.4,6.9
				c0,3.7-0.9,6.8-2.7,9.1c-1.8,2.3-4.1,3.9-7.1,4.9l11.7,20.4h-9.7l-10.5-19.2h-7.5v19.2L-396.2,428.5L-396.2,428.5z M-387.5,402.4
				h7c3.3,0,5.9-0.7,7.7-2.1c1.8-1.4,2.7-3.5,2.7-6.3s-0.9-4.8-2.7-5.9c-1.8-1.1-4.3-1.6-7.7-1.6h-7V402.4z"/>
			<path class="st2" d="M-344.4,428.5v-49h29.5v7.3h-20.9v12.5h17.6v7.3h-17.6v14.5h21.6v7.3h-30.2V428.5z"/>
		</g>
	</g>
	<g id="i1WtVg_1_" class="st3">
		<g>

				<image style="overflow:visible;enable-background:new    ;" width="167" height="150" id="i1WtVg_3_" xlink:href="5317FD753210DE9B.jpg"  transform="matrix(2.3213 0 0 2.3213 -589.6461 29.3)">
			</image>
		</g>
	</g>
	<g class="st1">
		<g>
			<g>
				<circle class="st2" cx="166.1" cy="173.5" r="24.8"/>
			</g>
			<g>
				<circle class="st2" cx="250" cy="173.5" r="24.8"/>
			</g>
			<g>
				<circle class="st2" cx="333.9" cy="173.5" r="24.8"/>
			</g>
		</g>
		<g>
			<path class="st2" d="M148.4,428.5v-49h9.8l8.7,24c0.6,1.6,1.1,3.1,1.6,4.8c0.5,1.6,1,3.2,1.6,4.8h0.3c0.5-1.6,1.1-3.2,1.5-4.8
				c0.5-1.6,1-3.2,1.5-4.8l8.5-24h9.9v49h-8v-22.4c0-1.2,0-2.4,0.1-3.7s0.2-2.7,0.3-4.1s0.2-2.7,0.4-4s0.3-2.5,0.4-3.7h-0.3l-4,11.4
				l-8,22h-5.2l-8.1-22l-3.9-11.4h-0.3c0.1,1.2,0.2,2.4,0.3,3.7c0.1,1.3,0.3,2.7,0.4,4c0.1,1.4,0.2,2.7,0.3,4.1
				c0.1,1.3,0.1,2.6,0.1,3.7v22.4H148.4z"/>
			<path class="st2" d="M230.6,429.4c-3.2,0-6.1-0.6-8.8-1.8c-2.7-1.2-4.9-2.9-6.8-5.1c-1.9-2.2-3.4-4.9-4.4-8
				c-1.1-3.2-1.6-6.7-1.6-10.7c0-3.9,0.5-7.5,1.6-10.6s2.5-5.8,4.4-7.9s4.2-3.8,6.8-4.9c2.7-1.1,5.6-1.7,8.8-1.7s6.1,0.6,8.8,1.7
				c2.6,1.2,4.9,2.8,6.8,4.9c1.9,2.2,3.4,4.8,4.5,7.9c1,3.1,1.6,6.6,1.6,10.6s-0.5,7.6-1.6,10.7s-2.5,5.8-4.5,8
				c-1.9,2.2-4.2,3.9-6.8,5.1C236.8,428.8,233.9,429.4,230.6,429.4z M230.6,421.8c2,0,3.7-0.4,5.2-1.3c1.6-0.8,2.9-2.1,4-3.6
				c1.1-1.6,1.9-3.5,2.5-5.7s0.9-4.7,0.9-7.4c0-5.5-1.1-9.8-3.4-12.9c-2.3-3.1-5.4-4.7-9.2-4.7c-3.9,0-7,1.6-9.2,4.7
				c-2.3,3.1-3.4,7.4-3.4,12.9c0,2.7,0.3,5.2,0.9,7.4c0.6,2.2,1.4,4.1,2.5,5.7s2.4,2.8,4,3.6C227,421.4,228.7,421.8,230.6,421.8z"/>
			<path class="st2" d="M269.6,428.5v-49h16.5c2.5,0,4.9,0.3,7.1,0.8s4.1,1.3,5.7,2.4s2.9,2.6,3.8,4.5c0.9,1.8,1.4,4.1,1.4,6.9
				c0,3.7-0.9,6.8-2.7,9.1c-1.8,2.3-4.1,3.9-7.1,4.9l11.7,20.4h-9.7l-10.5-19.2h-7.5v19.2L269.6,428.5L269.6,428.5z M278.3,402.4h7
				c3.3,0,5.9-0.7,7.7-2.1c1.8-1.4,2.7-3.5,2.7-6.3s-0.9-4.8-2.7-5.9c-1.8-1.1-4.3-1.6-7.7-1.6h-7V402.4z"/>
			<path class="st2" d="M321.4,428.5v-49h29.5v7.3H330v12.5h17.6v7.3H330v14.5h21.6v7.3h-30.2V428.5z"/>
		</g>
	</g>
	<g id="i1WtVg_2_" class="st3">
		<g>

				<image style="overflow:visible;enable-background:new    ;" width="167" height="150" id="i1WtVg_5_" xlink:href="5317FD753210DE99.jpg"  transform="matrix(2.3213 0 0 2.3213 76.15 29.3)">
			</image>
		</g>
	</g>
</g>
<g>
	<g>
		<polyline class="st4" points="327.3,196.3 327.3,219.6 307.4,230.8 		"/>
		<line class="st4" x1="327.3" y1="130.6" x2="327.3" y2="159.3"/>
		<line class="st4" x1="250" y1="173.5" x2="271" y2="161.6"/>
		<polyline class="st4" points="272.5,250.4 250,263.1 250,234.6 		"/>
		<line class="st4" x1="172.7" y1="129.6" x2="172.7" y2="153"/>
		<line class="st4" x1="250" y1="189.2" x2="250" y2="173.5"/>
		<line class="st4" x1="227.3" y1="250.3" x2="250" y2="263.1"/>
		<polyline class="st4" points="172.7,196.3 172.7,219.6 189.6,229.1 		"/>
		<polyline class="st4" points="227.1,94.8 247.7,81.6 269,94.6 		"/>
		<polyline class="st4" points="190,139.4 172.7,129.6 196.9,114.1 		"/>
		<line class="st4" x1="250" y1="173.5" x2="229.3" y2="161.7"/>
		<polyline class="st4" points="301.5,114.3 327.3,130 308.8,140.5 		"/>
	</g>
	<g>
		<path class="st2" d="M191.7,428.7l16.5-48.8l10.2,0.1l15.4,49.1l-9.1-0.1l-3.7-13.3l-16.5-0.2l-4,13.2L191.7,428.7z M208.4,402.9
			l-1.8,6l12.5,0.1l-1.7-6c-0.8-2.6-1.5-5.3-2.2-8c-0.7-2.8-1.4-5.5-2-8.2l-0.3,0c-0.7,2.7-1.5,5.5-2.2,8.2
			C210,397.6,209.2,400.3,208.4,402.9z"/>
		<path class="st2" d="M254.8,429.5l0.6-49l16.5,0.2c2.5,0,4.9,0.3,7.1,0.8c2.2,0.5,4.1,1.4,5.7,2.5c1.6,1.1,2.8,2.6,3.7,4.5
			c0.9,1.9,1.3,4.2,1.3,6.9c0,3.7-1,6.8-2.8,9c-1.8,2.3-4.2,3.9-7.1,4.9l11.4,20.6l-9.7-0.1l-10.3-19.3l-7.5-0.1l-0.2,19.2
			L254.8,429.5z M263.8,403.5l7,0.1c3.3,0,5.9-0.6,7.7-2c1.8-1.4,2.7-3.5,2.7-6.3c0-2.8-0.8-4.8-2.6-5.9c-1.8-1.1-4.3-1.7-7.7-1.7
			l-7-0.1L263.8,403.5z"/>
	</g>
</g>
</svg>
