<?xml version="1.0" encoding="utf-8"?>
<!-- Generator: Adobe Illustrator 21.1.0, SVG Export Plug-In . SVG Version: 6.00 Build 0)  -->
<svg version="1.1" id="Layer_1" xmlns="http://www.w3.org/2000/svg" xmlns:xlink="http://www.w3.org/1999/xlink" x="0px" y="0px"
	 viewBox="0 0 500 500" style="enable-background:new 0 0 500 500;" xml:space="preserve">
<style type="text/css">
	.st0{fill:none;stroke:#EEEEEE;stroke-width:5;stroke-linecap:round;stroke-linejoin:round;stroke-miterlimit:10;}
	.st1{fill:#EEEEEE;}
	.st2{fill:#636363;}
	.st3{fill:none;stroke:#EEEEEE;stroke-width:5;stroke-miterlimit:10;}
</style>
<path class="st0" d="M200.7,178.2h124.8v76.3H200.7V178.2z"/>
<path class="st0" d="M200.4,204.5h-25.9v-54.3h88.9v27.2"/>
<path class="st0" d="M287.4,150.4h38.2v12.8"/>
<path class="st0" d="M186.7,254.4h-12v-34.7"/>
<g>
	<path class="st1" d="M172.3,409.9h2.9l12.8,30.5h-3.2l-3.3-8.1h-16.1l-3.4,8.1h-3L172.3,409.9z M173.6,413l-7.1,16.7h14L173.6,413z
		"/>
	<path class="st1" d="M201,409.9h8h1.6c0.7,0,1.4,0.1,2.2,0.3c0.8,0.1,1.6,0.4,2.5,0.7c0.8,0.3,1.6,0.8,2.2,1.4
		c0.7,0.6,1.2,1.4,1.6,2.3s0.6,2,0.6,3.4c0,1.5-0.3,2.7-0.8,3.6s-1.1,1.7-1.9,2.3s-1.6,1-2.5,1.3s-1.8,0.5-2.6,0.6l8.9,14.6h-3.2
		l-8.6-14.5h-5.3v14.5H201V409.9z M203.9,423.3h6c1.5,0,2.7-0.2,3.6-0.6s1.7-0.8,2.2-1.4c0.5-0.5,0.9-1.1,1.1-1.8s0.3-1.2,0.3-1.7
		s-0.1-1.1-0.3-1.7s-0.5-1.2-1.1-1.8c-0.5-0.5-1.2-1-2.2-1.4c-0.9-0.4-2.1-0.6-3.6-0.6h-6V423.3z"/>
	<path class="st2" d="M242.2,412.5h-10.4v-2.6h23.7v2.6H245v27.9h-2.8V412.5z"/>
	<path class="st2" d="M268.7,409.9h2.8v30.5h-2.8V409.9z"/>
	<path class="st2" d="M289.3,434.7c0.7,1.3,1.7,2.3,2.9,2.9s2.5,0.9,4.1,0.9c0.9,0,1.8-0.1,2.7-0.4c0.8-0.3,1.6-0.7,2.2-1.2
		s1.1-1.1,1.5-1.9c0.4-0.7,0.5-1.6,0.5-2.5c0-1.1-0.2-1.9-0.7-2.6c-0.4-0.7-1-1.3-1.8-1.7c-0.7-0.4-1.6-0.8-2.5-1.1
		s-1.9-0.6-2.9-0.9s-2-0.7-2.9-1.1s-1.8-0.9-2.5-1.6c-0.7-0.6-1.3-1.5-1.8-2.4c-0.4-1-0.7-2.2-0.7-3.6c0-1.3,0.3-2.5,0.8-3.6
		c0.5-1,1.2-1.9,2.2-2.6c0.9-0.7,1.9-1.2,3.1-1.6s2.4-0.5,3.7-0.5c1.7,0,3.2,0.3,4.6,0.9s2.6,1.6,3.7,2.9l-2.5,1.8
		c-0.7-1-1.6-1.8-2.5-2.3c-1-0.5-2.1-0.8-3.4-0.8c-0.9,0-1.8,0.1-2.6,0.4c-0.8,0.2-1.6,0.6-2.2,1.1s-1.1,1.1-1.5,1.8
		s-0.6,1.6-0.6,2.5c0,1.5,0.4,2.7,1.2,3.5s1.7,1.5,2.9,1.9c1.2,0.5,2.4,0.9,3.8,1.2c1.4,0.4,2.6,0.8,3.8,1.4s2.1,1.4,2.9,2.5
		s1.2,2.6,1.2,4.5c0,1.4-0.3,2.6-0.8,3.7s-1.2,2-2.1,2.7s-1.9,1.3-3,1.7s-2.3,0.6-3.6,0.6c-2,0-3.9-0.4-5.5-1.1
		c-1.7-0.7-3.1-1.9-4.3-3.5L289.3,434.7z"/>
	<path class="st2" d="M327.7,412.5h-10.4v-2.6H341v2.6h-10.4v27.9h-2.8v-27.9H327.7z"/>
</g>
<circle class="st3" cx="250" cy="199" r="165.5"/>
<path class="st3" d="M251.8,84.4l-1-21.3c74.2,0,134.3,60.1,134.3,134.3S325,331.6,250.8,331.6s-134.3-60.1-134.3-134.3h-15.7"/>
</svg>
