<?xml version="1.0" encoding="utf-8"?>
<!-- Generator: Adobe Illustrator 21.1.0, SVG Export Plug-In . SVG Version: 6.00 Build 0)  -->
<svg version="1.1" id="Layer_1" xmlns="http://www.w3.org/2000/svg" xmlns:xlink="http://www.w3.org/1999/xlink" x="0px" y="0px"
	 viewBox="0 0 500 500" style="enable-background:new 0 0 500 500;" xml:space="preserve">
<style type="text/css">
	.st0{fill:#EEEEEE;}
	.st1{fill:none;stroke:#EEEEEE;stroke-width:5;stroke-linecap:round;stroke-linejoin:round;stroke-miterlimit:10;}
	.st2{fill:none;stroke:#EEEEEE;stroke-width:5;stroke-miterlimit:10;}
</style>
<g>
	<path class="st0" d="M182.3,410.4h8.8c1.1,0,2.3,0.1,3.5,0.3c1.2,0.2,2.2,0.6,3.2,1.2s1.7,1.4,2.3,2.5c0.6,1,0.9,2.4,0.9,4.2
		c0,1.5-0.5,2.9-1.4,4c-0.9,1.1-2.3,1.9-4.1,2.3v0.1c1,0.1,1.9,0.3,2.8,0.7c0.8,0.4,1.5,0.9,2.2,1.5c0.6,0.6,1.1,1.4,1.4,2.3
		c0.3,0.9,0.5,1.9,0.5,2.9c0,1.7-0.3,3.2-1,4.3c-0.7,1.1-1.5,2-2.5,2.6c-1,0.6-2.1,1.1-3.3,1.3c-1.2,0.2-2.3,0.3-3.3,0.3h-9.7V410.4
		z M185.1,423.5h5.9c1.5,0,2.7-0.2,3.6-0.5c0.9-0.4,1.6-0.8,2.2-1.3c0.5-0.5,0.9-1.1,1-1.7s0.3-1.1,0.3-1.6c0-1.1-0.2-1.9-0.5-2.6
		c-0.4-0.7-0.8-1.3-1.4-1.7c-0.6-0.4-1.3-0.7-2.1-0.9s-1.6-0.3-2.5-0.3h-6.3V423.5z M185.1,438.2h6.5c1.7,0,3-0.2,4-0.6
		s1.8-0.9,2.3-1.5c0.5-0.6,0.9-1.2,1.1-1.9s0.3-1.3,0.3-1.8c0-1.1-0.2-2.1-0.6-2.9c-0.4-0.8-1-1.5-1.7-2c-0.7-0.5-1.5-0.9-2.3-1.1
		s-1.8-0.3-2.6-0.3h-6.9V438.2z"/>
	<path class="st0" d="M218,410.4h2.8v27.9H235v2.6h-17V410.4z"/>
	<path class="st0" d="M246.1,425.6c0-2.3,0.4-4.5,1.2-6.4c0.8-1.9,1.8-3.6,3.2-5.1c1.4-1.4,3-2.5,5-3.3s4.1-1.2,6.4-1.2
		c2.3,0,4.5,0.4,6.4,1.2s3.6,1.9,5,3.3c1.4,1.4,2.5,3.1,3.2,5.1c0.8,2,1.2,4.1,1.2,6.4s-0.4,4.5-1.2,6.4c-0.8,2-1.8,3.7-3.2,5.1
		c-1.4,1.4-3,2.5-5,3.3c-1.9,0.8-4.1,1.2-6.4,1.2c-2.3,0-4.5-0.4-6.4-1.2c-1.9-0.8-3.6-1.9-5-3.3c-1.4-1.4-2.5-3.1-3.2-5.1
		C246.5,430.1,246.1,427.9,246.1,425.6z M249,425.6c0,1.9,0.3,3.7,0.9,5.3c0.6,1.6,1.5,3.1,2.6,4.3c1.1,1.2,2.5,2.2,4.1,2.8
		c1.6,0.7,3.4,1,5.4,1c2,0,3.8-0.3,5.4-1c1.6-0.7,2.9-1.6,4.1-2.8c1.1-1.2,2-2.6,2.6-4.3c0.6-1.6,0.9-3.4,0.9-5.3s-0.3-3.7-0.9-5.3
		c-0.6-1.6-1.5-3.1-2.6-4.3s-2.5-2.2-4.1-2.8c-1.6-0.7-3.4-1-5.4-1c-2,0-3.8,0.3-5.4,1c-1.6,0.7-2.9,1.6-4.1,2.8s-2,2.6-2.6,4.3
		C249.3,421.9,249,423.7,249,425.6z"/>
	<path class="st0" d="M317.7,438.9c-1.8,1-3.6,1.7-5.5,2.1s-3.8,0.6-5.8,0.6c-2.3,0-4.5-0.4-6.4-1.2c-1.9-0.8-3.6-1.9-5-3.3
		c-1.4-1.4-2.5-3.1-3.2-5.1c-0.8-2-1.2-4.1-1.2-6.4s0.4-4.5,1.2-6.4c0.8-1.9,1.8-3.6,3.2-5.1c1.4-1.4,3-2.5,5-3.3s4.1-1.2,6.4-1.2
		c4.5,0,8.2,1.4,11,4.2l-2.1,2.2c-0.5-0.5-1-1.1-1.7-1.5c-0.7-0.5-1.4-0.9-2.2-1.2c-0.8-0.3-1.6-0.6-2.5-0.8
		c-0.9-0.2-1.7-0.3-2.5-0.3c-2,0-3.8,0.3-5.4,1c-1.6,0.7-2.9,1.6-4.1,2.8s-2,2.6-2.6,4.3c-0.6,1.6-0.9,3.4-0.9,5.3s0.3,3.7,0.9,5.3
		c0.6,1.6,1.5,3.1,2.6,4.3c1.1,1.2,2.5,2.2,4.1,2.8c1.6,0.7,3.4,1,5.4,1c1.6,0,3.2-0.1,4.6-0.4s2.7-0.7,3.9-1.4V427h-7.3v-2.6h10.2
		V438.9z"/>
</g>
<polygon class="st1" points="178.8,258.7 220.5,258.1 220.5,254.9 204.2,234.3 203.1,178 240,258.1 245.4,258.1 275.7,178 
	276.8,243 263.8,254.9 263.8,258.1 321.2,258.1 321.2,256 307.2,244.1 307.2,160.6 320.2,148.7 320.2,145.4 281.2,145.4 
	253.5,214.3 221,144.9 179.8,144.9 179.8,148.2 195,166.6 195,233.8 178.8,255.4 "/>
<circle class="st2" cx="250" cy="199" r="165.5"/>
<path class="st2" d="M135.4,197.2l-21.3,1c0-74.2,60.1-134.3,134.3-134.3S382.6,124,382.6,198.2s-60.1,134.3-134.3,134.3v15.7"/>
</svg>
