<?xml version="1.0" encoding="utf-8"?>
<!-- Generator: Adobe Illustrator 21.1.0, SVG Export Plug-In . SVG Version: 6.00 Build 0)  -->
<svg version="1.1" xmlns="http://www.w3.org/2000/svg" xmlns:xlink="http://www.w3.org/1999/xlink" x="0px" y="0px"
	 viewBox="0 0 500 500" style="enable-background:new 0 0 500 500;" xml:space="preserve">
<style type="text/css">
	.st0{fill:#FFFFFF;stroke:#000000;stroke-width:2;stroke-miterlimit:10;}
</style>
<g id="left">
	<path class="st0" d="M179.5,179.5l-70.5-70.5C73,145.1,50.7,195,50.7,250c0,55,22.3,104.9,58.4,140.9l70.5-70.5
		c-18-18-29.2-42.9-29.2-70.5C150.3,222.5,161.5,197.6,179.5,179.5z M114.5,268.1L83.2,250l31.3-18.1V268.1z"/>
</g>
<g id="bottom">
	<path class="st0" d="M320.5,320.5c-18,18-42.9,29.2-70.5,29.2s-52.4-11.1-70.5-29.2l-70.5,70.5C145.1,427,195,449.3,250,449.3
		s104.9-22.3,140.9-58.4L320.5,320.5z M250,422.6l-18.1-31.3h36.2L250,422.6z"/>
</g>
<g id="right">
	<path class="st0" d="M390.9,109.1l-70.5,70.5c18,18,29.2,42.9,29.2,70.5c0,27.5-11.2,52.4-29.2,70.5l70.5,70.5
		C427,354.9,449.3,305,449.3,250C449.3,195,427,145.1,390.9,109.1z M390.7,268.1v-36.2L422,250L390.7,268.1z"/>
</g>
<g id="top">
	<path class="st0" d="M250,50.7c-55,0-104.9,22.3-140.9,58.4l70.5,70.5c18-18,42.9-29.2,70.5-29.2s52.4,11.2,70.5,29.2l70.5-70.5
		C354.9,73,305,50.7,250,50.7z M231.9,115.1L250,83.8l18.1,31.3H231.9z"/>
</g>
</svg>
