<?xml version="1.0" encoding="utf-8"?>
<!-- Generator: Adobe Illustrator 21.1.0, SVG Export Plug-In . SVG Version: 6.00 Build 0)  -->
<svg version="1.1" id="Layer_1" xmlns="http://www.w3.org/2000/svg" xmlns:xlink="http://www.w3.org/1999/xlink" x="0px" y="0px"
	 viewBox="0 0 500 500" style="enable-background:new 0 0 500 500;" xml:space="preserve">
<style type="text/css">
	.st0{fill:#EEEEEE;}
	.st1{fill:none;stroke:#EEEEEE;stroke-width:5;stroke-miterlimit:10;}
	.st2{fill:none;stroke:#EEEEEE;stroke-width:5;stroke-linecap:round;stroke-linejoin:round;stroke-miterlimit:10;}
	.st3{fill:none;stroke:#EEEEEE;stroke-width:6;stroke-linecap:round;stroke-linejoin:round;stroke-miterlimit:10;}
</style>
<g>
	<path class="st0" d="M108.8,426.3c0-2.3,0.4-4.4,1.1-6.3c0.8-1.9,1.8-3.6,3.2-5c1.4-1.4,3-2.5,4.9-3.3s4-1.2,6.3-1.2
		s4.4,0.4,6.3,1.2c1.9,0.8,3.5,1.9,4.9,3.3s2.4,3.1,3.2,5s1.1,4,1.1,6.3s-0.4,4.4-1.1,6.4c-0.8,1.9-1.8,3.6-3.2,5s-3,2.5-4.9,3.3
		s-4,1.2-6.3,1.2s-4.4-0.4-6.3-1.2c-1.9-0.8-3.5-1.9-4.9-3.3s-2.4-3.1-3.2-5C109.2,430.7,108.8,428.6,108.8,426.3z M111.7,426.3
		c0,1.9,0.3,3.6,0.9,5.2s1.4,3,2.6,4.2s2.4,2.1,4,2.8c1.6,0.7,3.3,1,5.3,1s3.7-0.3,5.3-1s2.9-1.6,4-2.8s2-2.6,2.6-4.2
		s0.9-3.4,0.9-5.2c0-1.9-0.3-3.6-0.9-5.2c-0.6-1.6-1.4-3-2.6-4.2c-1.1-1.2-2.4-2.1-4-2.8c-1.6-0.7-3.3-1-5.3-1s-3.7,0.3-5.3,1
		c-1.6,0.7-2.9,1.6-4,2.8c-1.1,1.2-2,2.6-2.6,4.2C111.9,422.7,111.7,424.5,111.7,426.3z"/>
	<path class="st0" d="M176.1,429.9c0,1.6-0.2,3.2-0.6,4.6c-0.4,1.5-1,2.8-1.8,3.9c-0.9,1.1-2,2-3.4,2.7s-3.1,1-5.2,1
		c-2,0-3.8-0.3-5.2-1s-2.5-1.6-3.4-2.7s-1.5-2.4-1.8-3.9c-0.4-1.5-0.6-3-0.6-4.6v-18.6h2.8v17.9c0,1.1,0.1,2.2,0.3,3.4
		c0.2,1.2,0.6,2.4,1.2,3.4s1.4,1.9,2.5,2.6s2.5,1,4.2,1c1.8,0,3.2-0.3,4.2-1c1.1-0.7,1.9-1.5,2.5-2.6s1-2.2,1.2-3.4
		c0.2-1.2,0.3-2.4,0.3-3.4v-17.9h2.8V429.9z"/>
	<path class="st0" d="M199,413.8h-10.3v-2.5h23.4v2.5h-10.3v27.5H199V413.8z"/>
	<path class="st0" d="M225.2,411.3h7.9c0.4,0,0.9,0,1.6,0c0.7,0,1.4,0.1,2.2,0.3c0.8,0.1,1.6,0.4,2.4,0.7c0.8,0.3,1.6,0.8,2.2,1.4
		c0.7,0.6,1.2,1.3,1.6,2.3c0.4,0.9,0.6,2,0.6,3.3c0,1.4-0.2,2.6-0.7,3.6c-0.5,0.9-1.1,1.7-1.9,2.3c-0.8,0.6-1.6,1-2.5,1.3
		s-1.8,0.5-2.6,0.6l8.8,14.5h-3.2l-8.5-14.3H228v14.3h-2.8V411.3z M228,424.5h6c1.5,0,2.7-0.2,3.6-0.6c0.9-0.4,1.6-0.8,2.1-1.4
		c0.5-0.5,0.9-1.1,1-1.7c0.2-0.6,0.3-1.2,0.3-1.7s-0.1-1.1-0.3-1.7s-0.5-1.2-1-1.7s-1.2-1-2.1-1.4c-0.9-0.4-2.1-0.6-3.6-0.6h-6
		V424.5z"/>
	<path class="st0" d="M258.9,411.3h18.4v2.5h-15.6v10.7h14.6v2.6h-14.6v11.7H278v2.6h-19.1V411.3z"/>
	<path class="st0" d="M301.9,411.3h2.9l12.7,30.1h-3.1l-3.3-8h-15.9l-3.4,8h-2.9L301.9,411.3z M303.2,414.3l-7,16.5H310L303.2,414.3
		z"/>
	<path class="st0" d="M355.1,436.7c-1.4,2-3.1,3.4-5,4.2c-1.9,0.8-4,1.3-6.2,1.3c-2.3,0-4.4-0.4-6.3-1.2c-1.9-0.8-3.5-1.9-4.9-3.3
		s-2.4-3.1-3.2-5c-0.8-1.9-1.1-4.1-1.1-6.4s0.4-4.4,1.1-6.3c0.8-1.9,1.8-3.6,3.2-5c1.4-1.4,3-2.5,4.9-3.3s4-1.2,6.3-1.2
		c2,0,3.9,0.4,5.7,1.1c1.8,0.7,3.3,1.9,4.7,3.6l-2.3,1.9c-0.9-1.4-2.1-2.5-3.6-3.1c-1.5-0.7-3-1-4.5-1c-2,0-3.7,0.3-5.3,1
		c-1.6,0.7-2.9,1.6-4,2.8c-1.1,1.2-2,2.6-2.6,4.2s-0.9,3.4-0.9,5.2c0,1.9,0.3,3.6,0.9,5.2s1.4,3,2.6,4.2s2.4,2.1,4,2.8
		c1.6,0.7,3.3,1,5.3,1c0.8,0,1.6-0.1,2.4-0.3c0.8-0.2,1.6-0.5,2.4-0.9s1.5-0.9,2.2-1.4c0.7-0.6,1.3-1.3,1.9-2.1L355.1,436.7z"/>
	<path class="st0" d="M368.7,411.3h2.8v13.3h16.8v-13.3h2.8v30.1h-2.8v-14.3h-16.8v14.3h-2.8V411.3z"/>
</g>
<circle class="st1" cx="250" cy="199" r="165.5"/>
<g>
	<g>
		<line class="st2" x1="231.1" y1="262.8" x2="209.5" y2="176.5"/>
		<line class="st3" x1="303.7" y1="163.7" x2="316.7" y2="153.2"/>
		<line class="st3" x1="311.7" y1="186.5" x2="327.8" y2="185.9"/>
		<line class="st3" x1="309.9" y1="174.1" x2="325.3" y2="168.8"/>
		<path class="st2" d="M198.9,222.1c-9.3,1.8-18.6-3.9-20.9-13.3c-2.3-9.3,3.1-18.8,12.2-21.6c1.1-0.3,10.7-2.3,10.7-2.3"/>
		<path class="st1" d="M278.8,146.2l18.2,72.4c0.8,3.3-2.2,6.2-5.5,5.4c-20.4-5.2-57.7-3.7-57.7-3.7l-5.9-22.9l-5.6-23
			c0,0,33.6-16.3,49.2-30.5C273.9,141.7,278,143,278.8,146.2z"/>
	</g>
	<line class="st2" x1="191.1" y1="175.5" x2="196.4" y2="174.3"/>
</g>
<path class="st1" d="M248.2,313.6l1,21.3c-74.2,0-134.3-60.1-134.3-134.3S175,66.4,249.2,66.4s134.3,60.1,134.3,134.3h15.7"/>
</svg>
