<?xml version="1.0" encoding="utf-8"?>
<!-- Generator: Adobe Illustrator 21.1.0, SVG Export Plug-In . SVG Version: 6.00 Build 0)  -->
<svg version="1.1" id="Layer_1" xmlns="http://www.w3.org/2000/svg" xmlns:xlink="http://www.w3.org/1999/xlink" x="0px" y="0px"
	 viewBox="0 0 500 500" style="enable-background:new 0 0 500 500;" xml:space="preserve">
<style type="text/css">
	.st0{fill:none;stroke:#EEEEEE;stroke-width:5;stroke-miterlimit:10;}
	.st1{fill:none;stroke:#EEEEEE;stroke-width:5;stroke-linecap:round;stroke-linejoin:round;stroke-miterlimit:10;}
	.st2{fill:none;stroke:#EEEEEE;stroke-width:6;stroke-linecap:round;stroke-linejoin:round;stroke-miterlimit:10;}
	.st3{fill:#EEEEEE;}
</style>
<circle class="st0" cx="250" cy="199" r="165.5"/>
<g>
	<g>
		<line class="st1" x1="231.1" y1="262.8" x2="209.5" y2="176.5"/>
		<line class="st2" x1="303.7" y1="163.7" x2="316.7" y2="153.2"/>
		<line class="st2" x1="311.7" y1="186.5" x2="327.8" y2="185.9"/>
		<line class="st2" x1="309.9" y1="174.1" x2="325.3" y2="168.8"/>
		<path class="st1" d="M198.9,222.1c-9.3,1.8-18.6-3.9-20.9-13.3c-2.3-9.3,3.1-18.8,12.2-21.6c1.1-0.3,10.7-2.3,10.7-2.3"/>
		<path class="st0" d="M278.8,146.2l18.2,72.4c0.8,3.3-2.2,6.2-5.5,5.4c-20.4-5.2-57.7-3.7-57.7-3.7l-5.9-22.9l-5.6-23
			c0,0,33.6-16.3,49.2-30.5C273.9,141.7,278,143,278.8,146.2z"/>
	</g>
	<line class="st1" x1="191.1" y1="175.5" x2="196.4" y2="174.3"/>
</g>
<path class="st0" d="M248.2,313.6l1,21.3c-74.2,0-134.3-60.1-134.3-134.3S175,66.4,249.2,66.4s134.3,60.1,134.3,134.3h15.7"/>
<g>
	<path class="st3" d="M106.7,411.1h18.9v2.6h-16.1v11h15.1v2.6h-15.1v12.1h16.8v2.6h-19.6V411.1z"/>
	<path class="st3" d="M148.8,425.8l-10.6-14.7h3.4l8.9,12.6l8.8-12.6h3.5l-10.5,14.7l11.5,16.3h-3.6l-9.8-14l-9.8,14h-3.5
		L148.8,425.8z"/>
	<path class="st3" d="M202.4,437.2c-1.5,2-3.2,3.5-5.2,4.3c-2,0.9-4.1,1.3-6.3,1.3c-2.4,0-4.5-0.4-6.5-1.2c-2-0.8-3.7-1.9-5.1-3.4
		s-2.5-3.2-3.3-5.2c-0.8-2-1.2-4.2-1.2-6.5c0-2.4,0.4-4.5,1.2-6.5c0.8-2,1.9-3.7,3.3-5.1c1.4-1.4,3.1-2.6,5.1-3.4
		c2-0.8,4.1-1.2,6.5-1.2c2.1,0,4.1,0.4,5.9,1.1c1.8,0.7,3.4,2,4.8,3.7l-2.4,2c-1-1.5-2.2-2.5-3.7-3.2c-1.5-0.7-3-1-4.6-1
		c-2,0-3.8,0.4-5.4,1.1s-3,1.7-4.1,2.9c-1.1,1.2-2,2.7-2.6,4.3s-0.9,3.5-0.9,5.4c0,1.9,0.3,3.7,0.9,5.4c0.6,1.7,1.5,3.1,2.6,4.3
		s2.5,2.2,4.1,2.9s3.4,1.1,5.4,1.1c0.8,0,1.6-0.1,2.5-0.3c0.8-0.2,1.7-0.5,2.5-0.9c0.8-0.4,1.6-0.9,2.3-1.5s1.4-1.3,1.9-2.2
		L202.4,437.2z"/>
	<path class="st3" d="M216.4,411.1h2.9v28.4h14.4v2.6h-17.3V411.1z"/>
	<path class="st3" d="M269.1,430.2c0,1.7-0.2,3.3-0.6,4.8c-0.4,1.5-1,2.9-1.9,4c-0.9,1.2-2.1,2.1-3.5,2.8s-3.2,1.1-5.3,1.1
		s-3.9-0.4-5.3-1.1s-2.6-1.6-3.5-2.8c-0.9-1.2-1.5-2.5-1.9-4c-0.4-1.5-0.6-3.1-0.6-4.8v-19.1h2.9v18.4c0,1.1,0.1,2.3,0.3,3.5
		c0.2,1.3,0.6,2.4,1.2,3.5c0.6,1.1,1.4,2,2.5,2.7s2.5,1.1,4.4,1.1c1.8,0,3.3-0.4,4.4-1.1c1.1-0.7,1.9-1.6,2.5-2.7s1-2.2,1.2-3.5
		c0.2-1.3,0.3-2.4,0.3-3.5v-18.4h2.9V430.2z"/>
	<path class="st3" d="M286.6,436.3c0.8,1.3,1.7,2.3,3,2.9c1.2,0.6,2.6,1,4.1,1c1,0,1.9-0.1,2.7-0.4c0.8-0.3,1.6-0.7,2.2-1.2
		c0.6-0.5,1.1-1.2,1.5-1.9c0.4-0.7,0.5-1.6,0.5-2.5c0-1.1-0.2-2-0.7-2.7s-1.1-1.3-1.8-1.7c-0.8-0.5-1.6-0.8-2.6-1.2
		c-0.9-0.3-1.9-0.6-2.9-1c-1-0.3-2-0.7-2.9-1.1c-0.9-0.4-1.8-0.9-2.6-1.6c-0.8-0.7-1.4-1.5-1.8-2.5c-0.5-1-0.7-2.2-0.7-3.7
		c0-1.4,0.3-2.6,0.8-3.7c0.5-1.1,1.3-2,2.2-2.7s2-1.3,3.2-1.6c1.2-0.4,2.5-0.5,3.8-0.5c1.7,0,3.3,0.3,4.7,0.9c1.4,0.6,2.7,1.6,3.7,3
		l-2.5,1.8c-0.7-1-1.6-1.8-2.6-2.3c-1-0.5-2.1-0.8-3.5-0.8c-0.9,0-1.8,0.1-2.7,0.4c-0.8,0.2-1.6,0.6-2.2,1.1
		c-0.6,0.5-1.1,1.1-1.5,1.8c-0.4,0.7-0.6,1.6-0.6,2.6c0,1.5,0.4,2.7,1.2,3.6c0.8,0.8,1.8,1.5,3,2s2.5,0.9,3.9,1.3
		c1.4,0.4,2.7,0.9,3.9,1.5c1.2,0.6,2.2,1.5,3,2.6c0.8,1.1,1.2,2.6,1.2,4.5c0,1.4-0.3,2.6-0.8,3.7c-0.5,1.1-1.2,2-2.1,2.7
		s-1.9,1.3-3.1,1.7s-2.4,0.6-3.6,0.6c-2,0-3.9-0.4-5.6-1.1c-1.7-0.7-3.2-1.9-4.4-3.6L286.6,436.3z"/>
	<path class="st3" d="M318.8,411.1h2.9v31h-2.9V411.1z"/>
	<path class="st3" d="M334.6,411.1h3.1l10,27.2l10.1-27.2h3.1l-11.8,31h-2.9L334.6,411.1z"/>
	<path class="st3" d="M373.7,411.1h18.9v2.6h-16.1v11h15.1v2.6h-15.1v12.1h16.8v2.6h-19.6V411.1z"/>
</g>
</svg>
