<?xml version="1.0" encoding="utf-8"?>
<!-- Generator: Adobe Illustrator 21.1.0, SVG Export Plug-In . SVG Version: 6.00 Build 0)  -->
<svg version="1.1" id="Layer_3" xmlns="http://www.w3.org/2000/svg" xmlns:xlink="http://www.w3.org/1999/xlink" x="0px" y="0px"
	 viewBox="0 0 500 500" style="enable-background:new 0 0 500 500;" xml:space="preserve">
<style type="text/css">
	.st0{fill:#898989;}
</style>
<g>
	<g>
		<g>
			<g>
				<path class="st0" d="M252.9,261.7c-1.4,0-2.7-0.6-3.9-1.8l-53.6-53.2c-3.5-3.4-6.9-6.8-10.3-10.3c-6.3-6.6-10.4-14.3-12-23.1
					c-1.9-10-0.6-19.6,3.9-28.6c4.3-8.6,10.6-15.2,19-19.8c8.6-4.7,18-6.4,27.9-5.1c7.6,1,14.6,3.8,20.6,8.3c2.1,1.6,4,3.5,5.8,5.3
					c0.7,0.7,1.3,1.3,2,2c0.6-0.7,1.3-1.4,1.9-2c10.1-10.3,22.4-15,36.9-13.7c10.1,0.8,19.2,5,26.9,12.2
					c6.9,6.5,11.4,14.4,13.3,23.4c2.2,10.3,0.9,20.3-3.7,29.7c-3,6.2-7.6,11-12,15.4c-7.6,7.6-15.2,15.3-22.8,22.9l-4.5,4.6
					c-7.5,7.5-14.9,15-22.3,22.5c-2.8,2.8-5.5,5.7-8.3,8.6l-0.8,0.8C255.7,261.1,254.3,261.7,252.9,261.7
					C252.9,261.7,252.9,261.7,252.9,261.7z M217.6,124c-6.8,0-13.3,1.7-19.3,5c-7.5,4.1-13.2,10.1-17,17.8c-4,8.1-5.2,16.7-3.5,25.7
					c1.5,7.8,5.1,14.8,10.8,20.7c3.4,3.5,6.8,6.9,10.2,10.2l53.6,53.2c0.4,0.4,0.6,0.4,0.6,0.4c0,0,0.2-0.1,0.6-0.5l0.8-0.8
					c2.8-2.9,5.5-5.8,8.4-8.6c7.4-7.5,14.9-15,22.3-22.5l4.5-4.6c7.6-7.6,15.2-15.3,22.8-22.9c4.3-4.3,8.4-8.7,11.1-14.2
					c4.1-8.5,5.3-17.5,3.3-26.7c-1.7-8.1-5.7-15.2-11.9-21c-6.9-6.5-15-10.2-24.1-11c-13-1.1-24.2,3.1-33.2,12.3
					c-0.8,0.8-1.5,1.6-2.3,2.4l-3.1,3.3l-2.2-2.5c-0.2-0.3-0.5-0.6-0.7-0.8c-0.8-0.7-1.5-1.5-2.3-2.3c-1.8-1.8-3.4-3.4-5.3-4.8
					c-5.4-4-11.6-6.5-18.5-7.4C221.4,124.1,219.5,124,217.6,124z"/>
				<path class="st0" d="M252.9,262.7L252.9,262.7c-1.7,0-3.3-0.7-4.6-2.1l-53.6-53.2c-3.2-3.2-6.8-6.7-10.3-10.3
					c-6.5-6.7-10.6-14.6-12.3-23.6c-1.9-10.2-0.6-20.1,4-29.3c4.3-8.8,10.9-15.6,19.4-20.2c8.8-4.8,18.4-6.6,28.5-5.2
					c7.8,1,14.9,3.9,21.1,8.5c2.2,1.6,4.1,3.5,5.9,5.4c0.4,0.4,0.8,0.8,1.2,1.2c0.4-0.4,0.8-0.9,1.2-1.3c10.3-10.6,23-15.3,37.7-14
					c10.4,0.9,19.6,5.1,27.5,12.5c7,6.6,11.6,14.7,13.6,23.9c2.2,10.5,0.9,20.7-3.8,30.4c-3.1,6.3-7.7,11.2-12.2,15.7
					c-6.4,6.4-12.8,12.9-19.2,19.3l-8.1,8.2c-7.5,7.5-14.9,15-22.3,22.5c-2.7,2.7-5.3,5.5-7.9,8.2l-1.2,1.2
					C256.2,261.9,254.6,262.7,252.9,262.7L252.9,262.7z M217.6,120.4c-7.4,0-14.5,1.8-21.1,5.4c-8.1,4.5-14.4,11-18.5,19.4
					c-4.4,8.8-5.6,18.2-3.8,28c1.6,8.5,5.6,16.1,11.8,22.5c3.5,3.6,7.1,7.2,10.3,10.3l53.6,53.2c1,1,2.1,1.5,3.2,1.5h0.1
					c1.1,0,2.2-0.6,3.2-1.6l1.2-1.2c2.6-2.7,5.3-5.5,7.9-8.2c7.4-7.5,14.9-15,22.3-22.5l8.1-8.2c6.4-6.4,12.8-12.9,19.2-19.3
					c4.4-4.4,8.9-9.2,11.8-15.2c4.5-9.2,5.7-19,3.6-29.1c-1.9-8.9-6.2-16.6-13-22.9c-7.5-7.1-16.4-11.1-26.3-12
					c-14.1-1.2-26.2,3.3-36.1,13.4c-0.6,0.7-1.3,1.3-1.9,2l-0.7,0.7l-0.7-0.7c-0.7-0.6-1.3-1.3-2-2c-1.8-1.8-3.6-3.6-5.7-5.2
					c-5.9-4.4-12.7-7.1-20.2-8.1C221.7,120.5,219.6,120.4,217.6,120.4z M253.9,258.4l-1.3-0.3c-0.2-0.1-0.6-0.2-1.1-0.7L198,204.1
					c-3.4-3.4-6.9-6.8-10.2-10.3c-5.8-6-9.5-13.2-11-21.2c-1.7-9.2-0.5-18.1,3.6-26.3c3.9-7.9,9.8-14,17.5-18.2
					c7.9-4.3,16.6-5.9,25.7-4.7c7,0.9,13.4,3.5,18.9,7.6c1.9,1.4,3.6,3.1,5.4,4.9l0.4,0.4c0.6,0.6,1.2,1.2,1.9,1.8
					c0.3,0.2,0.5,0.5,0.7,0.8l1.5,1.7l2.6-2.7c0.7-0.7,1.3-1.4,2-2.1c9.3-9.5,20.7-13.7,34-12.6c9.3,0.8,17.6,4.6,24.7,11.2
					c6.3,6,10.4,13.2,12.2,21.5c2,9.5,0.9,18.7-3.4,27.4c-2.8,5.7-6.9,10.1-11.3,14.5c-6.8,6.8-13.6,13.7-20.4,20.5l-7,7
					c-7.5,7.5-14.9,15-22.3,22.5c-2.8,2.8-5.6,5.8-8.3,8.6l-0.8,0.8c-0.1,0.1-0.2,0.2-0.4,0.3V258.4z M253.3,256.1L253.3,256.1
					L253.3,256.1z M217.6,125c-6.6,0-13,1.6-18.9,4.9c-7.3,4-12.9,9.8-16.6,17.4c-3.9,7.9-5,16.3-3.4,25.1c1.4,7.6,5,14.4,10.5,20.2
					c3.3,3.4,6.8,6.9,10.2,10.2l53.5,53.1l0.7-0.7c2.7-2.8,5.6-5.8,8.4-8.6c7.4-7.5,14.9-15,22.3-22.5l7-7
					c6.8-6.8,13.6-13.7,20.4-20.5c4.3-4.3,8.3-8.5,11-13.9c4-8.3,5.1-17,3.2-26.1c-1.7-7.9-5.6-14.8-11.6-20.5
					c-6.8-6.4-14.7-10-23.5-10.7c-12.7-1.1-23.6,3-32.4,12c-0.7,0.7-1.3,1.4-2,2.1l-4.1,4.4l-3-3.4c-0.2-0.2-0.4-0.4-0.6-0.6
					c-0.7-0.6-1.3-1.3-1.9-1.9l-0.4-0.4c-1.8-1.8-3.4-3.4-5.2-4.7c-5.3-3.9-11.3-6.3-18-7.2C221.3,125.1,219.4,125,217.6,125z"/>
			</g>
			<g>
				<path class="st0" d="M252.9,262.2L252.9,262.2c-1.6,0-3-0.7-4.3-1.9l-53.6-53.2c-3.2-3.2-6.8-6.7-10.3-10.3
					c-6.4-6.6-10.5-14.5-12.1-23.3c-1.9-10.1-0.6-19.9,3.9-28.9c4.3-8.7,10.7-15.4,19.2-20c8.7-4.8,18.2-6.5,28.2-5.2
					c7.7,1,14.7,3.8,20.9,8.4c2.2,1.6,4.1,3.5,5.9,5.3c0.5,0.5,1.1,1.1,1.6,1.6c0.5-0.6,1-1.1,1.6-1.6
					c10.2-10.5,22.8-15.1,37.3-13.9c10.3,0.9,19.4,5,27.2,12.4c7,6.6,11.5,14.5,13.4,23.7c2.2,10.4,0.9,20.5-3.7,30
					c-3,6.2-7.7,11.1-12.1,15.6c-6.4,6.4-12.8,12.9-19.2,19.3l-8.1,8.2c-7.5,7.5-14.9,15-22.3,22.5c-2.7,2.7-5.3,5.5-7.9,8.2
					l-1.2,1.2C255.9,261.5,254.5,262.2,252.9,262.2L252.9,262.2z M217.6,119.9c-7.5,0-14.6,1.8-21.3,5.5
					c-8.2,4.5-14.6,11.1-18.8,19.6c-4.4,8.9-5.7,18.4-3.9,28.3c1.6,8.6,5.6,16.3,11.9,22.8c3.5,3.6,7.1,7.2,10.3,10.3l53.6,53.2
					c1.1,1.1,2.3,1.7,3.5,1.7h0.1c1.3,0,2.5-0.6,3.6-1.8l1.2-1.2c2.6-2.7,5.3-5.5,7.9-8.2c7.4-7.5,14.9-15,22.3-22.5l8.1-8.2
					c6.4-6.4,12.8-12.9,19.2-19.3c4.4-4.4,9-9.2,11.9-15.3c4.6-9.3,5.8-19.2,3.6-29.4c-1.9-9-6.3-16.8-13.1-23.2
					c-7.6-7.2-16.6-11.2-26.6-12.1c-14.2-1.2-26.5,3.3-36.5,13.6c-0.6,0.7-1.3,1.3-1.9,2l-0.3,0.4l-0.4-0.3c-0.7-0.6-1.3-1.3-2-2
					c-1.8-1.8-3.7-3.7-5.8-5.2c-6-4.4-12.9-7.2-20.4-8.2C221.7,120,219.6,119.9,217.6,119.9z M253.4,257.7l-0.6-0.2
					c-0.1,0-0.4-0.1-0.8-0.6l-53.6-53.2c-3.4-3.4-6.9-6.8-10.2-10.3c-5.8-6-9.4-13-10.9-20.9c-1.7-9.1-0.5-17.9,3.5-26
					c3.9-7.8,9.7-13.9,17.2-18c7.8-4.3,16.4-5.8,25.4-4.7c6.9,0.9,13.2,3.4,18.7,7.5c1.9,1.4,3.6,3.1,5.3,4.8l0.4,0.4
					c0.6,0.6,1.2,1.2,1.9,1.9c0.3,0.2,0.5,0.5,0.7,0.8l0.1,0.1l1.8,2.1l3-3.1c0.7-0.7,1.3-1.4,2-2.1c9.2-9.4,20.5-13.6,33.6-12.5
					c9.2,0.8,17.4,4.5,24.4,11.1c6.3,5.9,10.3,13.1,12,21.3c2,9.4,0.9,18.5-3.3,27c-2.7,5.6-6.9,10-11.2,14.3
					c-6.8,6.8-13.6,13.7-20.4,20.5l-7,7c-7.5,7.5-14.9,15-22.3,22.5c-2.8,2.8-5.6,5.8-8.3,8.6l-0.8,0.8c-0.2,0.2-0.3,0.3-0.5,0.4
					V257.7z M217.6,124.5c-6.7,0-13.1,1.7-19.1,4.9c-7.4,4-13.1,10-16.8,17.6c-4,8-5.1,16.5-3.4,25.4c1.4,7.7,5,14.6,10.6,20.4
					c3.3,3.5,6.8,6.9,10.2,10.2l53.6,53.2c0.1,0.1,0.2,0.2,0.3,0.2c0.1-0.1,0.2-0.1,0.3-0.3l0.8-0.8c2.7-2.8,5.5-5.8,8.4-8.6
					c7.4-7.5,14.9-15,22.3-22.5l7-7c6.8-6.8,13.6-13.7,20.4-20.5c4.3-4.3,8.4-8.6,11-14.1c4.1-8.4,5.2-17.2,3.3-26.4
					c-1.7-8-5.6-15-11.7-20.7c-6.9-6.4-14.9-10.1-23.8-10.8c-12.8-1.1-23.9,3-32.8,12.2c-0.7,0.7-1.3,1.4-2,2.1l-3.7,4l-2.6-3
					c-0.2-0.2-0.4-0.5-0.6-0.7c-0.7-0.6-1.3-1.2-1.9-1.9l-0.4-0.4c-1.8-1.8-3.4-3.4-5.3-4.8c-5.4-4-11.5-6.4-18.2-7.3
					C221.3,124.6,219.4,124.5,217.6,124.5z"/>
				<path class="st0" d="M252.9,263.2L252.9,263.2c-1.9,0-3.5-0.8-5-2.2l-53.6-53.2c-3.2-3.2-6.8-6.7-10.3-10.3
					c-6.5-6.8-10.7-14.8-12.4-23.8c-1.9-10.3-0.6-20.3,4-29.6c4.4-8.9,11-15.7,19.6-20.5c8.9-4.9,18.6-6.7,28.8-5.3
					c7.9,1,15,3.9,21.3,8.6c2.2,1.7,4.2,3.6,6,5.4c0.3,0.3,0.6,0.6,0.9,0.9c0.3-0.3,0.6-0.6,0.9-0.9c10.4-10.7,23.3-15.4,38.1-14.1
					c10.5,0.9,19.8,5.1,27.8,12.6c7.1,6.7,11.7,14.8,13.7,24.2c2.2,10.6,1,21-3.8,30.7c-3.1,6.3-7.8,11.3-12.3,15.8
					c-6.4,6.4-12.8,12.9-19.2,19.3l-8.1,8.2c-7.5,7.5-14.9,15-22.3,22.5c-2.7,2.7-5.4,5.6-7.9,8.1l-1.2,1.2
					C256.5,262.4,254.8,263.2,252.9,263.2L252.9,263.2z M217.6,120.9c-7.3,0-14.3,1.8-20.9,5.4c-8.1,4.4-14.2,10.9-18.3,19.2
					c-4.3,8.7-5.6,18-3.8,27.7c1.6,8.4,5.5,15.9,11.6,22.3c3.5,3.6,7.1,7.1,10.3,10.3l53.6,53.2c0.9,0.9,1.9,1.4,2.8,1.4
					c1,0,2-0.5,2.9-1.5l1.3-1.4c2.5-2.6,5.2-5.4,7.8-8c7.4-7.5,14.9-15,22.4-22.5l8.1-8.2c6.4-6.4,12.8-12.9,19.2-19.3
					c4.4-4.4,8.8-9.1,11.7-15c4.5-9.1,5.7-18.8,3.6-28.7c-1.8-8.8-6.2-16.4-12.8-22.6c-7.5-7-16.2-11-26-11.8
					c-13.9-1.2-26,3.2-35.7,13.3c-0.6,0.7-1.3,1.3-1.9,2l-1,1.1l-1.1-1c-0.7-0.6-1.3-1.3-2-2c-1.8-1.8-3.6-3.6-5.7-5.1
					c-5.9-4.3-12.6-7-19.9-8C221.6,121,219.6,120.9,217.6,120.9z M254.4,259l-1.9-0.5c-0.4-0.1-0.8-0.4-1.3-0.8l-53.6-53.2
					c-3.4-3.3-6.9-6.8-10.2-10.3c-5.9-6.1-9.7-13.3-11.2-21.4c-1.8-9.3-0.5-18.3,3.6-26.7c4-8,9.9-14.2,17.7-18.5
					c8-4.4,16.7-6,26-4.8c7.1,0.9,13.5,3.5,19.2,7.7c1.9,1.4,3.6,3.1,5.4,4.9l0.4,0.4c0.6,0.6,1.2,1.2,1.9,1.8
					c0.3,0.3,0.5,0.6,0.8,0.8l1.1,1.3l2.2-2.3c0.7-0.7,1.3-1.4,2-2.1c9.4-9.6,20.9-13.9,34.4-12.8c9.4,0.8,17.8,4.6,25,11.4
					c6.4,6,10.6,13.4,12.3,21.8c2,9.6,0.9,18.9-3.4,27.7c-2.8,5.7-7,10.2-11.4,14.6c-6.8,6.8-13.6,13.7-20.4,20.5l-7,7
					c-7.5,7.5-14.9,15-22.3,22.5c-2.8,2.9-5.6,5.8-8.3,8.6l-0.8,0.8c-0.1,0.1-0.1,0.1-0.2,0.2V259z M217.6,125.5
					c-6.5,0-12.8,1.6-18.6,4.8c-7.2,3.9-12.7,9.7-16.4,17.2c-3.9,7.8-5,16.1-3.4,24.8c1.4,7.5,4.9,14.2,10.4,19.9
					c3.3,3.4,6.8,6.9,10.1,10.2l53.2,52.8l0.4-0.4c2.7-2.8,5.5-5.8,8.4-8.6c7.4-7.5,14.9-15,22.4-22.6l7.5-7.5
					c6.6-6.7,13.2-13.3,19.9-20c4.2-4.2,8.2-8.5,10.9-13.8c4-8.2,5.1-16.8,3.2-25.7c-1.6-7.8-5.5-14.6-11.4-20.2
					c-6.7-6.3-14.5-9.8-23.2-10.6c-12.5-1-23.3,3-32,11.9c-0.7,0.7-1.3,1.4-1.9,2.1l-4.5,4.8l-3.3-3.8c-0.2-0.2-0.4-0.4-0.5-0.6
					c-0.7-0.6-1.3-1.3-1.9-1.9l-0.4-0.4c-1.7-1.7-3.4-3.4-5.1-4.7c-5.2-3.9-11.2-6.2-17.8-7.1C221.2,125.6,219.4,125.5,217.6,125.5z
					"/>
			</g>
		</g>
	</g>
	<g>
		<path class="st0" d="M43.7,428.6v-50h30.2v7.5H52.6v14.1h18.2v7.5H52.6v20.9H43.7z"/>
		<path class="st0" d="M80.9,428.6l16.3-50h10.4l16.3,50h-9.3l-3.9-13.5H93.8L90,428.6H80.9z M97.7,402l-1.8,6.1h12.8l-1.8-6.1
			c-0.8-2.6-1.6-5.4-2.3-8.2c-0.7-2.8-1.5-5.6-2.2-8.3h-0.3c-0.7,2.8-1.4,5.6-2.1,8.4C99.2,396.6,98.5,399.3,97.7,402z"/>
		<path class="st0" d="M145.4,428.6l-15.6-50h9.4l7,25.2c0.8,2.9,1.5,5.6,2.2,8.1c0.6,2.5,1.4,5.3,2.3,8.2h0.3
			c0.9-2.9,1.6-5.6,2.3-8.2c0.6-2.6,1.3-5.2,2.1-8.1l6.9-25.2h9.1l-15.5,50H145.4z"/>
		<path class="st0" d="M203.8,429.5c-3.3,0-6.2-0.6-8.9-1.8c-2.7-1.2-5-2.9-7-5.2c-1.9-2.3-3.4-5-4.5-8.2c-1.1-3.2-1.6-6.9-1.6-10.9
			c0-4,0.5-7.6,1.6-10.8c1.1-3.2,2.6-5.9,4.5-8.1c1.9-2.2,4.3-3.9,7-5c2.7-1.2,5.7-1.8,8.9-1.8c3.3,0,6.2,0.6,8.9,1.8
			c2.7,1.2,5,2.9,7,5c2,2.2,3.5,4.9,4.6,8.1c1.1,3.2,1.6,6.8,1.6,10.8c0,4.1-0.5,7.7-1.6,10.9c-1.1,3.2-2.6,5.9-4.6,8.2
			c-2,2.3-4.3,4-7,5.2C210,428.9,207,429.5,203.8,429.5z M203.8,421.8c2,0,3.8-0.4,5.4-1.3c1.6-0.9,2.9-2.1,4.1-3.7
			c1.1-1.6,2-3.5,2.6-5.8c0.6-2.3,0.9-4.8,0.9-7.6c0-5.6-1.2-10-3.5-13.2c-2.3-3.2-5.5-4.8-9.4-4.8c-4,0-7.1,1.6-9.4,4.8
			c-2.3,3.2-3.5,7.6-3.5,13.2c0,2.8,0.3,5.3,0.9,7.6c0.6,2.3,1.5,4.2,2.6,5.8c1.1,1.6,2.5,2.8,4.1,3.7
			C200,421.4,201.8,421.8,203.8,421.8z"/>
		<path class="st0" d="M243.5,428.6v-50h16.9c2.6,0,5,0.3,7.3,0.8c2.2,0.5,4.2,1.3,5.8,2.5c1.6,1.1,2.9,2.7,3.9,4.6
			c0.9,1.9,1.4,4.2,1.4,7c0,3.8-0.9,6.9-2.7,9.2c-1.8,2.3-4.2,4-7.2,5l11.9,20.9h-9.9L260,409h-7.6v19.6H243.5z M252.4,402h7.1
			c3.4,0,6-0.7,7.8-2.1c1.8-1.4,2.7-3.6,2.7-6.4c0-2.9-0.9-4.9-2.7-6c-1.8-1.1-4.4-1.7-7.8-1.7h-7.1V402z"/>
		<path class="st0" d="M296.4,428.6v-50h8.9v50H296.4z"/>
		<path class="st0" d="M335.7,428.6v-42.5h-14.4v-7.5H359v7.5h-14.4v42.5H335.7z"/>
		<path class="st0" d="M375,428.6v-50h30.1v7.5h-21.2v12.8h18v7.5h-18v14.8h22v7.5H375z"/>
		<path class="st0" d="M438.3,429.5c-3.4,0-6.6-0.6-9.7-1.9c-3.1-1.3-5.9-3.1-8.3-5.4l5.2-6c1.8,1.7,3.8,3,6.1,4.1
			c2.3,1.1,4.6,1.6,6.9,1.6c2.9,0,5-0.6,6.5-1.8c1.5-1.2,2.2-2.7,2.2-4.7c0-1-0.2-1.9-0.6-2.6c-0.4-0.7-0.9-1.3-1.6-1.9
			c-0.7-0.5-1.5-1-2.4-1.5c-0.9-0.5-2-0.9-3.1-1.4l-6.9-3c-1.2-0.5-2.4-1.1-3.6-1.9c-1.2-0.8-2.3-1.7-3.2-2.7
			c-1-1.1-1.7-2.3-2.3-3.7s-0.9-3.1-0.9-4.9c0-2,0.4-3.8,1.3-5.5c0.8-1.7,2-3.2,3.5-4.5c1.5-1.3,3.2-2.3,5.3-3
			c2.1-0.7,4.3-1.1,6.8-1.1c2.9,0,5.7,0.6,8.4,1.7c2.7,1.2,5,2.7,7,4.6l-4.5,5.7c-1.6-1.3-3.3-2.4-5-3.1c-1.7-0.8-3.7-1.1-5.8-1.1
			c-2.4,0-4.3,0.5-5.7,1.6c-1.4,1-2.1,2.5-2.1,4.3c0,1,0.2,1.8,0.6,2.5c0.4,0.7,1,1.3,1.8,1.8c0.7,0.5,1.6,1,2.6,1.5
			c1,0.4,2,0.9,3,1.3l6.8,2.8c1.5,0.6,2.8,1.3,4.1,2.1c1.2,0.8,2.3,1.8,3.2,2.8c0.9,1.1,1.6,2.3,2.1,3.7c0.5,1.4,0.8,3,0.8,4.9
			c0,2-0.4,4-1.2,5.7c-0.8,1.8-2,3.4-3.6,4.7c-1.6,1.4-3.4,2.4-5.7,3.2C443.7,429.1,441.1,429.5,438.3,429.5z"/>
	</g>
</g>
</svg>
