<?xml version="1.0" encoding="utf-8"?>
<!-- Generator: Adobe Illustrator 21.1.0, SVG Export Plug-In . SVG Version: 6.00 Build 0)  -->
<svg version="1.1" id="Layer_3" xmlns="http://www.w3.org/2000/svg" xmlns:xlink="http://www.w3.org/1999/xlink" x="0px" y="0px"
	 viewBox="0 0 500 500" style="enable-background:new 0 0 500 500;" xml:space="preserve">
<style type="text/css">
	.st0{fill:#898989;}
	.st1{fill:#323232;}
</style>
<g>
	<g>
		<path class="st0" d="M185.2,343.2L205,275l-57.2-42.2c-4-3-2-9.4,3-9.5l70.9-2.3l22.4-67.3c1.6-4.8,8.3-4.8,10-0.1l24.1,66.7
			l71,0.6c5,0,7.2,6.4,3.2,9.5l-56,43.6l21.4,67.7c1.5,4.8-3.9,8.8-8,6L251,307.8L193.4,349C189.3,351.9,183.8,348,185.2,343.2z
			 M152.1,229l59.3,43.8l-20.5,70.8l60-42.8l61,41.4l-22.2-70.3l58.2-45.3l-73.8-0.6l-25.1-69.4l-23.4,70L152.1,229z"/>
		<path class="st0" d="M190.3,351.5c-1.4,0-2.7-0.4-3.9-1.3c-2.4-1.7-3.4-4.6-2.6-7.4l19.5-67.2L146.9,234c-2.4-1.7-3.3-4.7-2.5-7.5
			s3.3-4.7,6.3-4.8l69.8-2.3l22.1-66.3c0.9-2.8,3.4-4.6,6.4-4.6c2.9,0,5.5,1.7,6.5,4.5l23.7,65.7l70,0.6c2.9,0,5.4,1.8,6.4,4.6
			c0.9,2.8,0.1,5.7-2.3,7.5l-55.2,43l21.1,66.7c0.9,2.8-0.1,5.7-2.4,7.5c-2.4,1.8-5.4,1.8-7.9,0.2L251,309.6l-56.7,40.6
			C193.1,351.1,191.7,351.5,190.3,351.5z M186.7,343.6c-0.6,1.9,0.4,3.4,1.5,4.2c1.1,0.8,2.8,1.1,4.4,0l58.4-41.8l59.6,40.4
			c1.6,1.1,3.4,0.7,4.4-0.1c1-0.8,1.9-2.3,1.3-4.2l-21.7-68.7l56.8-44.2c1.6-1.2,1.7-3,1.3-4.2c-0.4-1.2-1.6-2.6-3.6-2.6l-72-0.6
			L252.6,154c-0.7-1.8-2.3-2.5-3.6-2.5c0,0,0,0,0,0c-1.3,0-2.9,0.7-3.5,2.6l-22.8,68.3l-71.9,2.4c-2,0.1-3.1,1.4-3.5,2.7
			c-0.4,1.2-0.2,3,1.4,4.2l58,42.8L186.7,343.6z M188.2,347.4l21.4-74l-61.9-45.7l76.8-2.5l24.4-73.1l26.2,72.4l77.1,0.7l-60.8,47.3
			l23.2,73.4l-63.8-43.2L188.2,347.4z M156.5,230.4l56.6,41.8l-19.6,67.7l57.3-40.9l58.3,39.5L288,271.3l55.6-43.3l-70.5-0.6
			l-23.9-66.3l-22.3,66.9L156.5,230.4z"/>
	</g>
</g>
</svg>
