<?xml version="1.0" encoding="utf-8"?>
<!-- Generator: Adobe Illustrator 21.1.0, SVG Export Plug-In . SVG Version: 6.00 Build 0)  -->
<svg version="1.1" id="Layer_3" xmlns="http://www.w3.org/2000/svg" xmlns:xlink="http://www.w3.org/1999/xlink" x="0px" y="0px"
	 viewBox="0 0 500 500" style="enable-background:new 0 0 500 500;" xml:space="preserve">
<style type="text/css">
	.st0{fill:#898989;}
	.st1{fill:#323232;}
</style>
<g>
	<g>
		<g>
			<path class="st0" d="M65.8,150v200h368.5V150H65.8z M426.9,342.6H73.2V157.5h353.7V342.6z"/>
			<path class="st0" d="M435.7,351.5H64.3v-203h371.5V351.5z M67.3,348.5h365.5v-197H67.3V348.5z M428.4,344.1H71.7V156h356.7V344.1
				z M74.7,341.1h350.7V159H74.7V341.1z"/>
		</g>
	</g>
	<g>
		<g>
			<path class="st1" d="M350.8,238.9c-1.1-0.7-2.1-1.3-3.3-1.9c-1.1-0.5-2.2-1.1-3.4-1.5c-0.3,1.2-0.9,2.3-1.3,3.4
				c-4.2,8.7-13.1,14.7-23.4,14.7c-14.3,0-25.9-11.6-25.9-25.9c0-3.1,0.5-5.9,1.5-8.7c0.4-1.2,0.9-2.3,1.5-3.4
				c-1.1-0.5-2.2-1.1-3.4-1.5c-1.1-0.4-2.3-0.9-3.5-1.2c-4.1-1.2-8.3-1.9-12.7-1.9c-24.5,0-44.5,20-44.5,44.5s20,44.5,44.5,44.5
				c11.8,0,22.4-4.4,30.2-12c6,7.4,15.2,12,25.4,12c18.5,0,33.4-14.9,33.4-33.3C365.7,255.1,359.8,244.9,350.8,238.9z M332.3,296.3
				c-8.8,0-16.9-3.8-22.5-10.7l-2.5-3.1l-2.9,2.9c-7.2,7-17.1,11-27.7,11c-22.5,0-40.7-18.2-40.7-40.7s18.2-40.7,40.7-40.7
				c3.8,0,7.7,0.5,11.2,1.6c-1.3,3.5-2,7.4-2,11.3c0,18.3,14.9,33.3,33.4,33.3c13.2,0,24.5-7.7,30-18.7c7.7,5.4,12.6,14.3,12.6,24.3
				C362,283,348.7,296.3,332.3,296.3z"/>
			<path class="st0" d="M332.4,301.4c-9.8,0-19-4.1-25.5-11.3c-8.1,7.3-18.7,11.3-30.1,11.3c-25.4,0-46-20.6-46-46
				c0-25.4,20.6-46,46-46c4.4,0,8.9,0.6,13.2,1.9c1.1,0.3,2.3,0.7,3.6,1.3c1.3,0.5,2.4,1,3.5,1.6l1.4,0.7l-0.8,1.4
				c-0.6,1-1,1.9-1.4,3.1c-1,2.7-1.4,5.4-1.4,8.2c0,13.5,11,24.4,24.4,24.4c9.3,0,18-5.4,22-13.8c0.1-0.3,0.3-0.6,0.4-0.9
				c0.3-0.8,0.6-1.5,0.8-2.2l0.4-1.6l1.5,0.6c1.3,0.5,2.4,1,3.6,1.6c1,0.4,1.9,1,2.7,1.5l0.7,0.5c9.7,6.5,15.6,17.4,15.7,29
				C367.3,285.8,351.7,301.4,332.4,301.4z M307.2,285.7l1,1.3c6,7.3,14.8,11.4,24.2,11.4c17.6,0,31.9-14.3,31.9-31.8
				c-0.1-10.6-5.5-20.5-14.4-26.5l-0.7-0.4c-0.8-0.5-1.6-1-2.4-1.4c-0.7-0.3-1.3-0.6-1.9-0.9c-0.1,0.4-0.3,0.7-0.4,1
				c-0.1,0.3-0.3,0.6-0.4,0.9l0,0.1c-4.5,9.5-14.3,15.6-24.7,15.6c-15.1,0-27.4-12.3-27.4-27.4c0-3.1,0.5-6.1,1.6-9.2
				c0.3-0.8,0.6-1.5,0.9-2.2c-0.6-0.3-1.2-0.6-1.9-0.8c-1.3-0.5-2.4-0.9-3.4-1.2c-4.1-1.2-8.2-1.8-12.3-1.8c-23.7,0-43,19.3-43,43
				c0,23.7,19.3,43,43,43c11.1,0,21.5-4.1,29.2-11.5L307.2,285.7z M276.7,297.9c-23.3,0-42.2-19-42.2-42.2s19-42.2,42.2-42.2
				c4,0,8.1,0.6,11.6,1.7l1.5,0.5l-0.6,1.5c-1.2,3.3-1.9,7-1.9,10.8c0,17.5,14.3,31.8,31.9,31.8c12.2,0,23.1-6.8,28.6-17.8l0.8-1.6
				l1.4,1c8.3,5.8,13.3,15.3,13.3,25.5c0,17.1-14,31-31.2,31c-9.2,0-17.8-4.1-23.7-11.2l-1.5-1.8l-1.7,1.7
				C297.9,293.9,287.7,297.9,276.7,297.9z M276.7,216.4c-21.6,0-39.2,17.6-39.2,39.2s17.6,39.2,39.2,39.2c10.2,0,19.6-3.8,26.6-10.6
				l4-4l3.6,4.4c5.3,6.4,13.1,10.1,21.4,10.1c15.5,0,28.2-12.6,28.2-28c0-8.6-3.9-16.7-10.6-22c-6.2,11.1-17.8,17.9-30.5,17.9
				c-19.2,0-34.9-15.6-34.9-34.8c0-3.6,0.5-7.1,1.5-10.3C283.1,216.8,279.9,216.4,276.7,216.4z"/>
		</g>
		<g>
			<path class="st0" d="M351.9,235.2c-1.1-0.7-2.2-1.3-3.4-1.9c-1.1-0.5-2.3-1.1-3.5-1.5c-0.2,1.2-0.4,2.4-0.9,3.6
				c-0.3,1.2-0.9,2.3-1.3,3.4c1.2,0.4,2.3,1,3.4,1.5s2.2,1.2,3.2,2c7.7,5.4,12.6,14.3,12.6,24.3c0,16.4-13.3,29.7-29.7,29.7
				c-8.8,0-16.9-3.8-22.5-10.7l-2.5-3.1l-2.9,2.9c-7.2,7-17.1,11-27.7,11c-22.5,0-40.7-18.2-40.7-40.7c0-22.5,18.2-40.7,40.7-40.7
				c3.8,0,7.7,0.5,11.2,1.6c1.2,0.3,2.3,0.8,3.5,1.2c1.1,0.4,2.3,1,3.4,1.5c0.4-1.2,0.9-2.3,1.5-3.4c0.5-1.1,1.2-2.2,2-3.2
				c-1.1-0.5-2.3-1.1-3.4-1.5c-1.2-0.4-2.4-0.9-3.5-1.3c-4.6-1.5-9.6-2.3-14.6-2.3c-26.6,0-48.1,21.6-48.1,48.1
				c0,26.6,21.6,48.1,48.1,48.1c11.2,0,21.6-3.7,30-10.5c6.8,6.7,15.9,10.5,25.6,10.5c20.4,0,37-16.6,37-37
				C369.3,253.5,362.4,241.7,351.9,235.2z"/>
			<path class="st0" d="M332.4,305.3c-9.5,0-18.6-3.6-25.7-10.1c-8.5,6.6-18.8,10.1-29.9,10.1c-27.4,0-49.6-22.3-49.6-49.6
				s22.3-49.6,49.6-49.6c5.3,0,10.3,0.8,15.1,2.4c1.2,0.5,2.4,0.9,3.6,1.3c1.1,0.5,2.4,1,3.6,1.6l1.6,0.8l-1.1,1.4
				c-0.7,0.8-1.3,1.8-1.8,2.9l-0.1,0.1c-0.6,1-1,1.9-1.4,3.1l-0.6,1.6l-1.5-0.8c-1.1-0.5-2.3-1.1-3.3-1.5l-0.7-0.3
				c-0.9-0.3-1.7-0.6-2.6-0.9c-3.4-1-7.1-1.6-10.8-1.6c-21.6,0-39.2,17.6-39.2,39.2s17.6,39.2,39.2,39.2c10.2,0,19.6-3.8,26.6-10.6
				l4-4l3.6,4.4c5.3,6.4,13.1,10.1,21.4,10.1c15.5,0,28.2-12.6,28.2-28.2c0-9.2-4.5-17.8-12-23c-0.9-0.7-1.9-1.3-3-1.9
				c-1.1-0.5-2.1-1.1-3.2-1.5l-1.5-0.5l0.6-1.4c0.1-0.3,0.3-0.7,0.4-1c0.3-0.8,0.6-1.5,0.8-2.2l0-0.1c0.4-1.1,0.6-2.2,0.8-3.4
				l0.3-1.7l1.7,0.6c1.1,0.4,2.4,0.9,3.7,1.6c1.2,0.6,2.4,1.3,3.5,1.9l0,0c11.3,7,18.2,19.2,18.3,32.8
				C370.9,288,353.7,305.3,332.4,305.3z M306.9,291.2l1,0.9c6.6,6.5,15.3,10.1,24.5,10.1c19.6,0,35.5-15.9,35.5-35.5
				c-0.1-12.5-6.4-23.8-16.9-30.2c-1-0.6-2.1-1.3-3.2-1.8c-0.6-0.3-1.2-0.6-1.8-0.8c-0.1,0.7-0.3,1.3-0.6,2
				c-0.2,0.8-0.5,1.5-0.8,2.1c0.7,0.3,1.4,0.7,2.1,1c1.3,0.6,2.4,1.4,3.4,2.1c8.2,5.8,13.2,15.3,13.2,25.5c0,17.2-14,31.2-31.2,31.2
				c-9.2,0-17.8-4.1-23.7-11.2l-1.5-1.8l-1.7,1.7c-7.6,7.4-17.8,11.4-28.7,11.4c-23.3,0-42.2-19-42.2-42.2s19-42.2,42.2-42.2
				c4,0,8.1,0.6,11.6,1.7c1,0.3,1.9,0.6,2.8,1l0.7,0.3c0.7,0.3,1.4,0.6,2.1,0.9c0.3-0.7,0.6-1.4,1-2.1c0.3-0.7,0.7-1.3,1.1-1.9
				c-0.6-0.3-1.2-0.5-1.7-0.7c-1.2-0.4-2.4-0.9-3.5-1.3c-4.4-1.4-9.1-2.2-14.1-2.2c-25.7,0-46.6,20.9-46.6,46.6s20.9,46.6,46.6,46.6
				c10.8,0,20.9-3.5,29-10.2L306.9,291.2z"/>
		</g>
	</g>
	<g>
		<g>
			
				<rect x="146" y="187.3" transform="matrix(0.5942 -0.8043 0.8043 0.5942 -170.1682 236.8497)" class="st0" width="7.4" height="199.4"/>
			<path class="st0" d="M228,351.4L65.1,231.1l6.2-8.3l162.8,120.3L228,351.4z M69.3,230.5l158,116.7l2.6-3.5L71.9,227L69.3,230.5z"
				/>
		</g>
	</g>
	<g>
		<g>
			<path class="st1" d="M319.4,198.1c-10.1,0-19.1,5.1-24.5,12.9c-0.7,1-1.3,2.1-1.9,3.2c-0.5,1.1-1.1,2.2-1.5,3.4
				c-1.1,3.2-1.8,6.6-1.8,10.1c0,16.4,13.3,29.7,29.7,29.7c11.9,0,22.1-6.9,26.8-16.9c0.5-1.1,1-2.3,1.4-3.5c0.4-1.2,0.7-2.4,1-3.6
				c0.3-1.8,0.5-3.6,0.5-5.6C349,211.4,335.7,198.1,319.4,198.1z M344.2,235.4c-0.3,1.2-0.9,2.3-1.3,3.4
				c-4.2,8.7-13.1,14.7-23.4,14.7c-14.3,0-25.9-11.6-25.9-25.9c0-3.1,0.5-5.9,1.5-8.7c0.4-1.2,0.9-2.3,1.5-3.4
				c0.5-1.1,1.2-2.2,2-3.2c4.7-6.5,12.4-10.8,21-10.8c14.3,0,25.9,11.6,25.9,25.9c0,1.4-0.1,2.7-0.3,4.1
				C344.7,233.1,344.5,234.3,344.2,235.4z"/>
			<path class="st0" d="M319.4,258.8c-17.2,0-31.2-14-31.2-31.2c0-3.5,0.6-7.1,1.8-10.6c0.5-1.3,1.1-2.5,1.6-3.6
				c0.5-1.1,1.2-2.2,2-3.3c5.8-8.5,15.5-13.5,25.7-13.5c17.1,0,31.1,13.9,31.3,31c0,1.9-0.2,3.8-0.6,5.9l0,0.1
				c-0.1,0.4-0.2,0.8-0.3,1.2c-0.2,0.8-0.4,1.7-0.7,2.6c-0.4,1.2-0.9,2.5-1.5,3.7C342.4,251.8,331.4,258.8,319.4,258.8z
				 M319.4,199.6c-9.3,0-18,4.6-23.3,12.2c-0.7,1-1.3,2.1-1.8,3c-0.5,1-1.1,2.1-1.5,3.2c-1.1,3.2-1.7,6.4-1.7,9.6
				c0,15.5,12.6,28.2,28.2,28.2c10.8,0,20.8-6.3,25.4-16.1c0.5-1.1,0.9-2.2,1.4-3.4c0.3-0.7,0.4-1.5,0.6-2.3
				c0.1-0.4,0.2-0.8,0.3-1.2c0.3-1.9,0.5-3.6,0.5-5.3C347.5,212.2,334.8,199.6,319.4,199.6z M319.5,255.1
				c-15.1,0-27.4-12.3-27.4-27.4c0-3.1,0.5-6.1,1.6-9.2c0.5-1.3,1-2.5,1.6-3.6c0.6-1.3,1.3-2.4,2.1-3.4c5.2-7.1,13.5-11.3,22.2-11.3
				c15.1,0,27.4,12.3,27.4,27.4c0,1.5-0.1,2.9-0.3,4.3l0,0.2c-0.2,0.8-0.4,1.4-0.5,2.1c-0.2,0.6-0.3,1.2-0.5,1.8
				c-0.3,1-0.6,1.8-1,2.6c-0.1,0.3-0.3,0.6-0.4,0.9l0,0.1C339.7,249,330,255.1,319.5,255.1z M319.6,203.1c-7.7,0-15.1,3.8-19.8,10.1
				c-0.7,0.9-1.3,1.9-1.8,3l-0.1,0.1c-0.6,1-1,1.9-1.4,3.1c-1,2.7-1.4,5.4-1.4,8.2c0,13.5,11,24.4,24.4,24.4c9.3,0,18-5.4,22-13.8
				c0.1-0.3,0.3-0.6,0.4-0.9c0.3-0.8,0.6-1.5,0.8-2.2l0,0c0.2-0.5,0.3-1.1,0.4-1.6c0.2-0.6,0.3-1.3,0.5-2.1c0.2-1.2,0.3-2.4,0.3-3.7
				C344,214.1,333,203.1,319.6,203.1z"/>
		</g>
		<g>
			<path class="st0" d="M319.4,194.5c-11.8,0-22.1,6-28,15.3c-0.7,1.1-1.3,2.2-1.9,3.3c-0.5,1.1-1.1,2.3-1.4,3.4
				c-1.3,3.5-2,7.4-2,11.3c0,18.3,14.9,33.3,33.4,33.3c13.2,0,24.5-7.7,30-18.7c0.5-1.1,1.1-2.3,1.5-3.5c0.4-1.2,0.8-2.4,1.1-3.7
				c0.5-2.4,0.9-4.8,0.9-7.5C352.7,209.4,337.7,194.5,319.4,194.5z M344.9,231.8c-0.2,1.2-0.4,2.4-0.9,3.6c-0.3,1.2-0.9,2.3-1.3,3.4
				c-4.2,8.7-13.1,14.7-23.4,14.7c-14.3,0-25.9-11.6-25.9-25.9c0-3.1,0.5-5.9,1.5-8.7c0.4-1.2,0.9-2.3,1.5-3.4
				c0.5-1.1,1.2-2.2,2-3.2c4.7-6.5,12.4-10.8,21-10.8c14.3,0,25.9,11.6,25.9,25.9C345.3,229.2,345.2,230.5,344.9,231.8z"/>
			<path class="st0" d="M319.5,262.5c-19.2,0-34.9-15.6-34.9-34.8c0-4.2,0.7-8.1,2.1-11.8c0.3-1,0.8-2.2,1.5-3.6
				c0.6-1.2,1.3-2.3,1.9-3.4c6.4-10,17.4-16,29.3-16c19.1,0,34.9,15.5,35.1,34.7c0,2.6-0.3,5.1-0.9,7.8c-0.3,1.3-0.7,2.6-1.2,3.9
				c-0.4,1.1-0.9,2.4-1.6,3.7C344.8,255.1,332.8,262.5,319.5,262.5z M319.4,196c-10.9,0-20.9,5.4-26.7,14.6c-0.6,1-1.3,2.1-1.8,3.2
				c-0.6,1.3-1.1,2.3-1.3,3.2l0,0.1c-1.2,3.3-1.9,7-1.9,10.8c0,17.5,14.3,31.8,31.9,31.8c12.2,0,23.1-6.8,28.6-17.8
				c0.6-1.2,1.1-2.3,1.5-3.4c0.4-1.2,0.8-2.4,1.1-3.6c0.6-2.5,0.8-4.8,0.8-7.1C351.3,210.2,336.9,196,319.4,196z M319.4,255.1
				c-15.1,0-27.4-12.3-27.4-27.4c0-3.1,0.5-6.1,1.6-9.2c0.5-1.3,1-2.5,1.6-3.6c0.6-1.3,1.3-2.4,2.1-3.4c5.2-7.1,13.5-11.3,22.2-11.3
				c15.1,0,27.4,12.3,27.4,27.4l0,0.1c-0.1,1.8-0.2,3.1-0.5,4.4l0,0c-0.2,1.2-0.5,2.5-0.9,3.8c-0.3,0.9-0.6,1.8-1,2.6
				c-0.1,0.3-0.3,0.6-0.4,0.9l0,0.1C339.6,249,329.8,255.1,319.4,255.1z M319.5,203.1c-7.7,0-15.1,3.8-19.8,10.1
				c-0.7,0.9-1.3,1.9-1.8,3l-0.1,0.1c-0.6,1-1,1.9-1.4,3.1c-1,2.7-1.4,5.4-1.4,8.2c0,13.5,11,24.4,24.4,24.4c9.3,0,18-5.4,22-13.8
				c0.1-0.3,0.3-0.6,0.4-0.9c0.3-0.8,0.6-1.5,0.8-2.2l0-0.1c0.4-1.1,0.6-2.2,0.8-3.4c0.2-1.2,0.3-2.4,0.4-4.1
				C343.9,214,332.9,203.1,319.5,203.1z"/>
		</g>
	</g>
</g>
</svg>
