<?xml version="1.0" encoding="utf-8"?>
<!-- Generator: Adobe Illustrator 21.1.0, SVG Export Plug-In . SVG Version: 6.00 Build 0)  -->
<svg version="1.1" id="Layer_1" xmlns="http://www.w3.org/2000/svg" xmlns:xlink="http://www.w3.org/1999/xlink" x="0px" y="0px"
	 viewBox="0 0 500 500" style="enable-background:new 0 0 500 500;" xml:space="preserve">
<g>
	<path d="M251.8,63.7c29.7,0,52.2,10.6,67.6,31.9c12.1,16.8,18.2,36.6,18.2,59.3c0,37.9-17.2,74-51.6,108.3
		c-11.9,12-18.2,25.8-19,41.5c-0.4,5.4-0.6,11.3-0.6,17.7v19.4h-55.5v-19.4c0-34.7,8.5-60.4,25.4-77.2
		c18.4-18.2,31.1-36.8,37.9-56.1c3.9-11.2,5.8-22.9,5.8-35.1c0-12.8-2.8-22.8-8.5-30.1c-6.3-8.3-15.5-11.8-27.4-10.3
		c-11.2,1.5-19.2,9.2-24,23.2c-2.2,5.9-3.6,12.8-4.4,20.6l-53.2-9.3c1.9-23,9.5-42.3,22.8-57.9c9-10.5,21.5-18.1,37.5-22.8
		C231.2,65,240.9,63.7,251.8,63.7z M210.9,380.8h55.5v55.5h-55.5V380.8z"/>
</g>
</svg>
