<?xml version="1.0" encoding="utf-8"?>
<!-- Generator: Adobe Illustrator 21.1.0, SVG Export Plug-In . SVG Version: 6.00 Build 0)  -->
<svg version="1.1" id="Layer_3" xmlns="http://www.w3.org/2000/svg" xmlns:xlink="http://www.w3.org/1999/xlink" x="0px" y="0px"
	 viewBox="0 0 500 500" style="enable-background:new 0 0 500 500;" xml:space="preserve">
<style type="text/css">
	.st0{fill:#898989;}
</style>
<g>
	<g>
		<g>
			<path class="st0" d="M-988.3,321.2c-1.4,0-2.7-0.6-3.9-1.8l-53.6-53.2c-3.5-3.4-6.9-6.8-10.3-10.3c-6.3-6.6-10.4-14.3-12-23.1
				c-1.9-10-0.6-19.6,3.9-28.6c4.3-8.6,10.6-15.2,19-19.8c8.6-4.7,18-6.4,27.9-5.1c7.6,1,14.6,3.8,20.6,8.3c2.1,1.6,4,3.5,5.8,5.3
				c0.7,0.7,1.3,1.3,2,2c0.6-0.7,1.3-1.4,1.9-2c10.1-10.3,22.4-15,36.9-13.7c10.1,0.8,19.2,5,26.9,12.2c6.9,6.5,11.4,14.4,13.3,23.4
				c2.2,10.3,0.9,20.3-3.7,29.7c-3,6.2-7.6,11-12,15.4c-7.6,7.6-15.2,15.3-22.8,22.9l-4.5,4.6c-7.5,7.5-14.9,15-22.3,22.5
				c-2.8,2.8-5.5,5.7-8.3,8.6l-0.8,0.8C-985.5,320.6-986.9,321.2-988.3,321.2L-988.3,321.2z M-1023.6,183.5c-6.8,0-13.3,1.7-19.3,5
				c-7.5,4.1-13.2,10.1-17,17.8c-4,8.1-5.2,16.7-3.5,25.7c1.5,7.8,5.1,14.8,10.8,20.7c3.4,3.5,6.8,6.9,10.2,10.2l53.6,53.2
				c0.4,0.4,0.6,0.4,0.6,0.4s0.2-0.1,0.6-0.5l0.8-0.8c2.8-2.9,5.5-5.8,8.4-8.6c7.4-7.5,14.9-15,22.3-22.5l4.5-4.6
				c7.6-7.6,15.2-15.3,22.8-22.9c4.3-4.3,8.4-8.7,11.1-14.2c4.1-8.5,5.3-17.5,3.3-26.7c-1.7-8.1-5.7-15.2-11.9-21
				c-6.9-6.5-15-10.2-24.1-11c-13-1.1-24.2,3.1-33.2,12.3c-0.8,0.8-1.5,1.6-2.3,2.4l-3.1,3.3l-2.2-2.5c-0.2-0.3-0.5-0.6-0.7-0.8
				c-0.8-0.7-1.5-1.5-2.3-2.3c-1.8-1.8-3.4-3.4-5.3-4.8c-5.4-4-11.6-6.5-18.5-7.4C-1019.8,183.6-1021.7,183.5-1023.6,183.5z"/>
			<path class="st0" d="M-988.3,322.2L-988.3,322.2c-1.7,0-3.3-0.7-4.6-2.1l-53.6-53.2c-3.2-3.2-6.8-6.7-10.3-10.3
				c-6.5-6.7-10.6-14.6-12.3-23.6c-1.9-10.2-0.6-20.1,4-29.3c4.3-8.8,10.9-15.6,19.4-20.2c8.8-4.8,18.4-6.6,28.5-5.2
				c7.8,1,14.9,3.9,21.1,8.5c2.2,1.6,4.1,3.5,5.9,5.4c0.4,0.4,0.8,0.8,1.2,1.2c0.4-0.4,0.8-0.9,1.2-1.3c10.3-10.6,23-15.3,37.7-14
				c10.4,0.9,19.6,5.1,27.5,12.5c7,6.6,11.6,14.7,13.6,23.9c2.2,10.5,0.9,20.7-3.8,30.4c-3.1,6.3-7.7,11.2-12.2,15.7
				c-6.4,6.4-12.8,12.9-19.2,19.3l-8.1,8.2c-7.5,7.5-14.9,15-22.3,22.5c-2.7,2.7-5.3,5.5-7.9,8.2l-1.2,1.2
				C-985,321.4-986.6,322.2-988.3,322.2L-988.3,322.2z M-1023.6,179.9c-7.4,0-14.5,1.8-21.1,5.4c-8.1,4.5-14.4,11-18.5,19.4
				c-4.4,8.8-5.6,18.2-3.8,28c1.6,8.5,5.6,16.1,11.8,22.5c3.5,3.6,7.1,7.2,10.3,10.3l53.6,53.2c1,1,2.1,1.5,3.2,1.5h0.1
				c1.1,0,2.2-0.6,3.2-1.6l1.2-1.2c2.6-2.7,5.3-5.5,7.9-8.2c7.4-7.5,14.9-15,22.3-22.5l8.1-8.2c6.4-6.4,12.8-12.9,19.2-19.3
				c4.4-4.4,8.9-9.2,11.8-15.2c4.5-9.2,5.7-19,3.6-29.1c-1.9-8.9-6.2-16.6-13-22.9c-7.5-7.1-16.4-11.1-26.3-12
				c-14.1-1.2-26.2,3.3-36.1,13.4c-0.6,0.7-1.3,1.3-1.9,2l-0.7,0.7l-0.7-0.7c-0.7-0.6-1.3-1.3-2-2c-1.8-1.8-3.6-3.6-5.7-5.2
				c-5.9-4.4-12.7-7.1-20.2-8.1C-1019.5,180-1021.6,179.9-1023.6,179.9z M-987.3,317.9l-1.3-0.3c-0.2-0.1-0.6-0.2-1.1-0.7
				l-53.5-53.3c-3.4-3.4-6.9-6.8-10.2-10.3c-5.8-6-9.5-13.2-11-21.2c-1.7-9.2-0.5-18.1,3.6-26.3c3.9-7.9,9.8-14,17.5-18.2
				c7.9-4.3,16.6-5.9,25.7-4.7c7,0.9,13.4,3.5,18.9,7.6c1.9,1.4,3.6,3.1,5.4,4.9l0.4,0.4c0.6,0.6,1.2,1.2,1.9,1.8
				c0.3,0.2,0.5,0.5,0.7,0.8l1.5,1.7l2.6-2.7c0.7-0.7,1.3-1.4,2-2.1c9.3-9.5,20.7-13.7,34-12.6c9.3,0.8,17.6,4.6,24.7,11.2
				c6.3,6,10.4,13.2,12.2,21.5c2,9.5,0.9,18.7-3.4,27.4c-2.8,5.7-6.9,10.1-11.3,14.5c-6.8,6.8-13.6,13.7-20.4,20.5l-7,7
				c-7.5,7.5-14.9,15-22.3,22.5c-2.8,2.8-5.6,5.8-8.3,8.6l-0.8,0.8c-0.1,0.1-0.2,0.2-0.4,0.3v0.9H-987.3z M-987.9,315.6
				L-987.9,315.6L-987.9,315.6z M-1023.6,184.5c-6.6,0-13,1.6-18.9,4.9c-7.3,4-12.9,9.8-16.6,17.4c-3.9,7.9-5,16.3-3.4,25.1
				c1.4,7.6,5,14.4,10.5,20.2c3.3,3.4,6.8,6.9,10.2,10.2l53.5,53.1l0.7-0.7c2.7-2.8,5.6-5.8,8.4-8.6c7.4-7.5,14.9-15,22.3-22.5l7-7
				c6.8-6.8,13.6-13.7,20.4-20.5c4.3-4.3,8.3-8.5,11-13.9c4-8.3,5.1-17,3.2-26.1c-1.7-7.9-5.6-14.8-11.6-20.5
				c-6.8-6.4-14.7-10-23.5-10.7c-12.7-1.1-23.6,3-32.4,12c-0.7,0.7-1.3,1.4-2,2.1l-4.1,4.4l-3-3.4c-0.2-0.2-0.4-0.4-0.6-0.6
				c-0.7-0.6-1.3-1.3-1.9-1.9l-0.4-0.4c-1.8-1.8-3.4-3.4-5.2-4.7c-5.3-3.9-11.3-6.3-18-7.2C-1019.9,184.6-1021.8,184.5-1023.6,184.5
				z"/>
		</g>
		<g>
			<path class="st0" d="M-988.3,321.7L-988.3,321.7c-1.6,0-3-0.7-4.3-1.9l-53.6-53.2c-3.2-3.2-6.8-6.7-10.3-10.3
				c-6.4-6.6-10.5-14.5-12.1-23.3c-1.9-10.1-0.6-19.9,3.9-28.9c4.3-8.7,10.7-15.4,19.2-20c8.7-4.8,18.2-6.5,28.2-5.2
				c7.7,1,14.7,3.8,20.9,8.4c2.2,1.6,4.1,3.5,5.9,5.3c0.5,0.5,1.1,1.1,1.6,1.6c0.5-0.6,1-1.1,1.6-1.6c10.2-10.5,22.8-15.1,37.3-13.9
				c10.3,0.9,19.4,5,27.2,12.4c7,6.6,11.5,14.5,13.4,23.7c2.2,10.4,0.9,20.5-3.7,30c-3,6.2-7.7,11.1-12.1,15.6
				c-6.4,6.4-12.8,12.9-19.2,19.3l-8.1,8.2c-7.5,7.5-14.9,15-22.3,22.5c-2.7,2.7-5.3,5.5-7.9,8.2l-1.2,1.2
				C-985.3,321-986.7,321.7-988.3,321.7L-988.3,321.7z M-1023.6,179.4c-7.5,0-14.6,1.8-21.3,5.5c-8.2,4.5-14.6,11.1-18.8,19.6
				c-4.4,8.9-5.7,18.4-3.9,28.3c1.6,8.6,5.6,16.3,11.9,22.8c3.5,3.6,7.1,7.2,10.3,10.3l53.6,53.2c1.1,1.1,2.3,1.7,3.5,1.7h0.1
				c1.3,0,2.5-0.6,3.6-1.8l1.2-1.2c2.6-2.7,5.3-5.5,7.9-8.2c7.4-7.5,14.9-15,22.3-22.5l8.1-8.2c6.4-6.4,12.8-12.9,19.2-19.3
				c4.4-4.4,9-9.2,11.9-15.3c4.6-9.3,5.8-19.2,3.6-29.4c-1.9-9-6.3-16.8-13.1-23.2c-7.6-7.2-16.6-11.2-26.6-12.1
				c-14.2-1.2-26.5,3.3-36.5,13.6c-0.6,0.7-1.3,1.3-1.9,2l-0.3,0.4l-0.4-0.3c-0.7-0.6-1.3-1.3-2-2c-1.8-1.8-3.7-3.7-5.8-5.2
				c-6-4.4-12.9-7.2-20.4-8.2C-1019.5,179.5-1021.6,179.4-1023.6,179.4z M-987.8,317.2l-0.6-0.2c-0.1,0-0.4-0.1-0.8-0.6l-53.6-53.2
				c-3.4-3.4-6.9-6.8-10.2-10.3c-5.8-6-9.4-13-10.9-20.9c-1.7-9.1-0.5-17.9,3.5-26c3.9-7.8,9.7-13.9,17.2-18
				c7.8-4.3,16.4-5.8,25.4-4.7c6.9,0.9,13.2,3.4,18.7,7.5c1.9,1.4,3.6,3.1,5.3,4.8l0.4,0.4c0.6,0.6,1.2,1.2,1.9,1.9
				c0.3,0.2,0.5,0.5,0.7,0.8l0.1,0.1l1.8,2.1l3-3.1c0.7-0.7,1.3-1.4,2-2.1c9.2-9.4,20.5-13.6,33.6-12.5c9.2,0.8,17.4,4.5,24.4,11.1
				c6.3,5.9,10.3,13.1,12,21.3c2,9.4,0.9,18.5-3.3,27c-2.7,5.6-6.9,10-11.2,14.3c-6.8,6.8-13.6,13.7-20.4,20.5l-7,7
				c-7.5,7.5-14.9,15-22.3,22.5c-2.8,2.8-5.6,5.8-8.3,8.6l-0.8,0.8c-0.2,0.2-0.3,0.3-0.5,0.4v0.5H-987.8z M-1023.6,184
				c-6.7,0-13.1,1.7-19.1,4.9c-7.4,4-13.1,10-16.8,17.6c-4,8-5.1,16.5-3.4,25.4c1.4,7.7,5,14.6,10.6,20.4c3.3,3.5,6.8,6.9,10.2,10.2
				l53.6,53.2c0.1,0.1,0.2,0.2,0.3,0.2c0.1-0.1,0.2-0.1,0.3-0.3l0.8-0.8c2.7-2.8,5.5-5.8,8.4-8.6c7.4-7.5,14.9-15,22.3-22.5l7-7
				c6.8-6.8,13.6-13.7,20.4-20.5c4.3-4.3,8.4-8.6,11-14.1c4.1-8.4,5.2-17.2,3.3-26.4c-1.7-8-5.6-15-11.7-20.7
				c-6.9-6.4-14.9-10.1-23.8-10.8c-12.8-1.1-23.9,3-32.8,12.2c-0.7,0.7-1.3,1.4-2,2.1l-3.7,4l-2.6-3c-0.2-0.2-0.4-0.5-0.6-0.7
				c-0.7-0.6-1.3-1.2-1.9-1.9l-0.4-0.4c-1.8-1.8-3.4-3.4-5.3-4.8c-5.4-4-11.5-6.4-18.2-7.3C-1019.9,184.1-1021.8,184-1023.6,184z"/>
			<path class="st0" d="M-988.3,322.7L-988.3,322.7c-1.9,0-3.5-0.8-5-2.2l-53.6-53.2c-3.2-3.2-6.8-6.7-10.3-10.3
				c-6.5-6.8-10.7-14.8-12.4-23.8c-1.9-10.3-0.6-20.3,4-29.6c4.4-8.9,11-15.7,19.6-20.5c8.9-4.9,18.6-6.7,28.8-5.3
				c7.9,1,15,3.9,21.3,8.6c2.2,1.7,4.2,3.6,6,5.4c0.3,0.3,0.6,0.6,0.9,0.9c0.3-0.3,0.6-0.6,0.9-0.9c10.4-10.7,23.3-15.4,38.1-14.1
				c10.5,0.9,19.8,5.1,27.8,12.6c7.1,6.7,11.7,14.8,13.7,24.2c2.2,10.6,1,21-3.8,30.7c-3.1,6.3-7.8,11.3-12.3,15.8
				c-6.4,6.4-12.8,12.9-19.2,19.3l-8.1,8.2c-7.5,7.5-14.9,15-22.3,22.5c-2.7,2.7-5.4,5.6-7.9,8.1l-1.2,1.2
				C-984.7,321.9-986.4,322.7-988.3,322.7L-988.3,322.7z M-1023.6,180.4c-7.3,0-14.3,1.8-20.9,5.4c-8.1,4.4-14.2,10.9-18.3,19.2
				c-4.3,8.7-5.6,18-3.8,27.7c1.6,8.4,5.5,15.9,11.6,22.3c3.5,3.6,7.1,7.1,10.3,10.3l53.6,53.2c0.9,0.9,1.9,1.4,2.8,1.4
				c1,0,2-0.5,2.9-1.5l1.3-1.4c2.5-2.6,5.2-5.4,7.8-8c7.4-7.5,14.9-15,22.4-22.5l8.1-8.2c6.4-6.4,12.8-12.9,19.2-19.3
				c4.4-4.4,8.8-9.1,11.7-15c4.5-9.1,5.7-18.8,3.6-28.7c-1.8-8.8-6.2-16.4-12.8-22.6c-7.5-7-16.2-11-26-11.8
				c-13.9-1.2-26,3.2-35.7,13.3c-0.6,0.7-1.3,1.3-1.9,2l-1,1.1l-1.1-1c-0.7-0.6-1.3-1.3-2-2c-1.8-1.8-3.6-3.6-5.7-5.1
				c-5.9-4.3-12.6-7-19.9-8C-1019.6,180.5-1021.6,180.4-1023.6,180.4z M-986.8,318.5l-1.9-0.5c-0.4-0.1-0.8-0.4-1.3-0.8l-53.6-53.2
				c-3.4-3.3-6.9-6.8-10.2-10.3c-5.9-6.1-9.7-13.3-11.2-21.4c-1.8-9.3-0.5-18.3,3.6-26.7c4-8,9.9-14.2,17.7-18.5
				c8-4.4,16.7-6,26-4.8c7.1,0.9,13.5,3.5,19.2,7.7c1.9,1.4,3.6,3.1,5.4,4.9l0.4,0.4c0.6,0.6,1.2,1.2,1.9,1.8
				c0.3,0.3,0.5,0.6,0.8,0.8l1.1,1.3l2.2-2.3c0.7-0.7,1.3-1.4,2-2.1c9.4-9.6,20.9-13.9,34.4-12.8c9.4,0.8,17.8,4.6,25,11.4
				c6.4,6,10.6,13.4,12.3,21.8c2,9.6,0.9,18.9-3.4,27.7c-2.8,5.7-7,10.2-11.4,14.6c-6.8,6.8-13.6,13.7-20.4,20.5l-7,7
				c-7.5,7.5-14.9,15-22.3,22.5c-2.8,2.9-5.6,5.8-8.3,8.6l-0.8,0.8c-0.1,0.1-0.1,0.1-0.2,0.2V318.5L-986.8,318.5z M-1023.6,185
				c-6.5,0-12.8,1.6-18.6,4.8c-7.2,3.9-12.7,9.7-16.4,17.2c-3.9,7.8-5,16.1-3.4,24.8c1.4,7.5,4.9,14.2,10.4,19.9
				c3.3,3.4,6.8,6.9,10.1,10.2l53.2,52.8l0.4-0.4c2.7-2.8,5.5-5.8,8.4-8.6c7.4-7.5,14.9-15,22.4-22.6l7.5-7.5
				c6.6-6.7,13.2-13.3,19.9-20c4.2-4.2,8.2-8.5,10.9-13.8c4-8.2,5.1-16.8,3.2-25.7c-1.6-7.8-5.5-14.6-11.4-20.2
				c-6.7-6.3-14.5-9.8-23.2-10.6c-12.5-1-23.3,3-32,11.9c-0.7,0.7-1.3,1.4-1.9,2.1l-4.5,4.8l-3.3-3.8c-0.2-0.2-0.4-0.4-0.5-0.6
				c-0.7-0.6-1.3-1.3-1.9-1.9l-0.4-0.4c-1.7-1.7-3.4-3.4-5.1-4.7c-5.2-3.9-11.2-6.2-17.8-7.1C-1020,185.1-1021.8,185-1023.6,185z"/>
		</g>
	</g>
</g>
<g>
	<path class="st0" d="M-420.2,340l18.8-64.8l-54.4-40.1c-3.8-2.8-1.9-8.9,2.8-9.1l67.3-2.2l21.3-64c1.5-4.5,7.9-4.6,9.5-0.1
		l22.9,63.4l67.5,0.6c4.8,0,6.8,6.1,3,9l-53.2,41.4l20.3,64.3c1.4,4.5-3.7,8.4-7.6,5.7l-55.8-37.8l-54.7,39.2
		C-416.3,348.2-421.5,344.6-420.2,340z M-451.6,231.5l56.3,41.6l-19.5,67.3l57-40.7l58,39.3l-21.1-66.8l55.3-43l-70.1-0.6
		l-23.8-65.9l-22.2,66.5L-451.6,231.5z"/>
</g>
</svg>
