<?xml version="1.0" encoding="utf-8"?>
<!-- Generator: Adobe Illustrator 21.1.0, SVG Export Plug-In . SVG Version: 6.00 Build 0)  -->
<svg version="1.1" id="Layer_1" xmlns="http://www.w3.org/2000/svg" xmlns:xlink="http://www.w3.org/1999/xlink" x="0px" y="0px"
	 viewBox="0 0 94.5 86.6" style="enable-background:new 0 0 94.5 86.6;" xml:space="preserve">
<style type="text/css">
	.st0{fill:#E02B2B;}
</style>
<g>
	<path class="st0" d="M47.2,11.9c0.7-0.8,1.4-1.6,2.1-2.3C55,3.6,62,1,70,1.7c5.8,0.5,10.8,2.9,15,7c3.8,3.7,6.3,8.2,7.4,13.5
		c1.2,5.9,0.5,11.6-2.1,17.1c-1.7,3.5-4.2,6.3-6.8,9c-5.4,5.5-10.8,11.1-16.1,16.7c-4.4,4.5-8.8,9.1-13.2,13.7
		c-1.8,1.9-3.6,3.8-5.4,5.7c-0.9,1-1.8,1-2.7,0.1c-9.9-10.1-19.7-20.1-29.6-30.2c-2.7-2.7-5.4-5.4-8-8.2c-3.5-3.7-5.8-8.2-6.7-13.2
		c-1-5.7-0.4-11.2,2.2-16.5C6.5,11.2,10,7.4,14.7,4.8c4.9-2.7,10.1-3.7,15.6-3c4.2,0.6,8.1,2.2,11.5,4.7c1.7,1.3,3.1,2.9,4.6,4.4
		C46.7,11.3,46.9,11.6,47.2,11.9z"/>
</g>
</svg>
