<?xml version="1.0" encoding="utf-8"?>
<!-- Generator: Adobe Illustrator 21.1.0, SVG Export Plug-In . SVG Version: 6.00 Build 0)  -->
<svg version="1.1" id="Layer_1" xmlns="http://www.w3.org/2000/svg" xmlns:xlink="http://www.w3.org/1999/xlink" x="0px" y="0px"
	 viewBox="0 0 1000 1000" style="enable-background:new 0 0 1000 1000;" xml:space="preserve">
<style type="text/css">
	.st0{fill:#FFFFFF;}
</style>
<g>
	<path class="st0" d="M497.3,732.6c0-2.9,0-5.9,0-9c24.3,0,48.2,0,72.4,0c0-148.9,0-297.5,0-446.5c-23.9,0-47.9,0-72.1,0
		c0-3.2,0-6.2,0-9.4c70,0,140,0,210.2,0c0,2.9,0,5.9,0,9.2c-24,0-48,0-72.1,0c0,149,0,297.6,0,446.5c24,0,48,0,72.4,0
		c0,3.2,0,6.2,0,9.2C637.8,732.6,567.5,732.6,497.3,732.6z"/>
	<path class="st0" d="M780,732.6c0-2.9,0-5.9,0-9c24.3,0,48.2,0,72.4,0c0-148.9,0-297.5,0-446.6c-0.8,0-1.8,0-2.7,0
		c-22.3,0-44.6,0-67,0c-2.1,0-2.9-0.4-2.7-2.6c0.2-2.2,0-4.4,0-6.8c70.3,0,140.3,0,210.5,0c0,3.1,0,6.1,0,9.3c-24,0-48,0-72.1,0
		c0,148.9,0,297.6,0,446.5c24,0,48,0,72.3,0c0,3.2,0,6.2,0,9.2C920.5,732.6,850.2,732.6,780,732.6z"/>
	<path class="st0" d="M10.1,732.6c0-2.9,0-5.9,0-9.2c24.3,0,48.3,0,72.4,0c0-149,0-297.7,0-446.6c-24.1,0-48,0-72.2,0
		c0-3.2,0-6.1,0-9.2c70,0,140.1,0,210.3,0c0,2.9,0,5.8,0,9c-24,0-48,0-72.1,0c-0.1,1-0.2,1.7-0.2,2.4c0,151,0,302,0,453.1
		c0,0.2,0,0.3,0,0.5C102.2,732.6,56.2,732.6,10.1,732.6z"/>
	<path class="st0" d="M213.1,732.6c3.5-0.2,6.9-0.5,10.4-0.7c15.5-0.6,31-1,46.4-1.8c20.9-1,39.9-7.7,57.3-19.3
		c22.3-14.9,38.8-34.9,51.4-58.4c10.2-19,17.3-39.1,22.5-60c0.6-2.4,1.4-3.6,4-3.2c1.2,0.2,2.5,0,4.2,0c0,47.8,0,95.5,0,143.2
		C344,732.6,278.6,732.6,213.1,732.6z"/>
	<path class="st0" d="M659.6,499.5c0-3.2,0-6,0-9.2c0.9,0,1.7,0,2.6,0c53.5,0,107,0,160.5-0.1c2.4,0,2.9,0.7,2.9,3
		c-0.1,6.3,0,6.3-6.4,6.3c-52,0-104,0-155.9,0C662.1,499.5,661,499.5,659.6,499.5z"/>
</g>
</svg>
