<?xml version="1.0" encoding="utf-8"?>
<!-- Generator: Adobe Illustrator 21.1.0, SVG Export Plug-In . SVG Version: 6.00 Build 0)  -->
<svg version="1.1" id="Layer_4" xmlns="http://www.w3.org/2000/svg" xmlns:xlink="http://www.w3.org/1999/xlink" x="0px" y="0px"
	 viewBox="0 0 500 500" style="enable-background:new 0 0 500 500;" xml:space="preserve">
<style type="text/css">
	.st0{fill:#898989;}
</style>
<g>
	<g>
		<g>
			<circle class="st0" cx="166.1" cy="173.5" r="24.8"/>
		</g>
		<g>
			<circle class="st0" cx="250" cy="173.5" r="24.8"/>
		</g>
		<g>
			<circle class="st0" cx="333.9" cy="173.5" r="24.8"/>
		</g>
	</g>
	<g>
		<path class="st0" d="M148.4,428.5v-49h9.8l8.7,24c0.6,1.6,1.1,3.1,1.6,4.8c0.5,1.6,1,3.2,1.6,4.8h0.3c0.5-1.6,1.1-3.2,1.5-4.8
			c0.5-1.6,1-3.2,1.5-4.8l8.5-24h9.9v49h-8v-22.4c0-1.2,0-2.4,0.1-3.7s0.2-2.7,0.3-4.1s0.2-2.7,0.4-4s0.3-2.5,0.4-3.7h-0.3l-4,11.4
			l-8,22h-5.2l-8.1-22l-3.9-11.4h-0.3c0.1,1.2,0.2,2.4,0.3,3.7c0.1,1.3,0.3,2.7,0.4,4c0.1,1.4,0.2,2.7,0.3,4.1
			c0.1,1.3,0.1,2.6,0.1,3.7v22.4H148.4z"/>
		<path class="st0" d="M230.6,429.4c-3.2,0-6.1-0.6-8.8-1.8c-2.7-1.2-4.9-2.9-6.8-5.1c-1.9-2.2-3.4-4.9-4.4-8
			c-1.1-3.2-1.6-6.7-1.6-10.7c0-3.9,0.5-7.5,1.6-10.6s2.5-5.8,4.4-7.9s4.2-3.8,6.8-4.9c2.7-1.1,5.6-1.7,8.8-1.7s6.1,0.6,8.8,1.7
			c2.6,1.2,4.9,2.8,6.8,4.9c1.9,2.2,3.4,4.8,4.5,7.9c1,3.1,1.6,6.6,1.6,10.6s-0.5,7.6-1.6,10.7s-2.5,5.8-4.5,8
			c-1.9,2.2-4.2,3.9-6.8,5.1C236.8,428.8,233.9,429.4,230.6,429.4z M230.6,421.8c2,0,3.7-0.4,5.2-1.3c1.6-0.8,2.9-2.1,4-3.6
			c1.1-1.6,1.9-3.5,2.5-5.7s0.9-4.7,0.9-7.4c0-5.5-1.1-9.8-3.4-12.9c-2.3-3.1-5.4-4.7-9.2-4.7c-3.9,0-7,1.6-9.2,4.7
			c-2.3,3.1-3.4,7.4-3.4,12.9c0,2.7,0.3,5.2,0.9,7.4c0.6,2.2,1.4,4.1,2.5,5.7s2.4,2.8,4,3.6C227,421.4,228.7,421.8,230.6,421.8z"/>
		<path class="st0" d="M269.6,428.5v-49h16.5c2.5,0,4.9,0.3,7.1,0.8s4.1,1.3,5.7,2.4s2.9,2.6,3.8,4.5c0.9,1.8,1.4,4.1,1.4,6.9
			c0,3.7-0.9,6.8-2.7,9.1c-1.8,2.3-4.1,3.9-7.1,4.9l11.7,20.4h-9.7l-10.5-19.2h-7.5v19.2L269.6,428.5L269.6,428.5z M278.3,402.4h7
			c3.3,0,5.9-0.7,7.7-2.1c1.8-1.4,2.7-3.5,2.7-6.3s-0.9-4.8-2.7-5.9c-1.8-1.1-4.3-1.6-7.7-1.6h-7V402.4z"/>
		<path class="st0" d="M321.4,428.5v-49h29.5v7.3H330v12.5h17.6v7.3H330v14.5h21.6v7.3h-30.2V428.5z"/>
	</g>
</g>
</svg>
