<?xml version="1.0" encoding="utf-8"?>
<!-- Generator: Adobe Illustrator 21.1.0, SVG Export Plug-In . SVG Version: 6.00 Build 0)  -->
<svg version="1.1" id="Layer_2" xmlns="http://www.w3.org/2000/svg" xmlns:xlink="http://www.w3.org/1999/xlink" x="0px" y="0px"
	 viewBox="0 0 500 500" style="enable-background:new 0 0 500 500;" xml:space="preserve">
<style type="text/css">
	.st0{fill:#898989;}
	.st1{fill:#323232;}
</style>
<g>
	<g>
		<path class="st0" d="M146.4,377.7l-8.9,25.3c-0.6,1.6-1.1,3.3-1.6,5c-0.5,1.7-1,3.4-1.6,5.1h-0.3c-0.6-1.7-1.1-3.4-1.7-5.1
			c-0.5-1.7-1.1-3.4-1.7-5l-9.2-25.3h-10.4v51.7h8.3v-23.6c0-1.2,0-2.5-0.1-3.9c-0.1-1.4-0.2-2.9-0.3-4.3c-0.1-1.5-0.3-2.9-0.4-4.3
			c-0.1-1.4-0.2-2.7-0.4-3.9h0.3l4.1,12l8.5,23.2h5.5l8.5-23.2l4.2-12h0.3c-0.1,1.2-0.2,2.5-0.4,3.9c-0.2,1.4-0.3,2.8-0.4,4.3
			c-0.1,1.4-0.2,2.9-0.3,4.3c-0.1,1.4-0.1,2.7-0.1,3.9v23.6h8.5v-51.7H146.4z"/>
		<path class="st0" d="M201.6,377.7l-5.6,13.2c-0.7,1.9-1.5,3.8-2.3,5.7c-0.8,1.8-1.6,3.7-2.5,5.7h-0.3c-0.8-2-1.6-3.9-2.4-5.7
			c-0.7-1.8-1.5-3.7-2.2-5.7l-5.6-13.2H171l15.5,32.5v19.2h9.2v-19.2l15.6-32.5H201.6z"/>
		<path class="st0" d="M269.9,377.7h-10.7l-16.8,51.7h9.3l4-14H273l4,14h9.6L269.9,377.7z M257.8,408.2l1.8-6.3
			c0.8-2.7,1.6-5.5,2.4-8.4c0.7-2.9,1.5-5.8,2.2-8.6h0.3c0.7,2.8,1.5,5.7,2.3,8.6c0.8,2.9,1.6,5.7,2.4,8.5l1.8,6.3H257.8z"/>
		<path class="st0" d="M327.2,407.8c3.1-1,5.6-2.8,7.5-5.2c1.9-2.4,2.8-5.6,2.8-9.6c0-2.9-0.5-5.3-1.5-7.3c-1-1.9-2.3-3.5-4-4.7
			c-1.7-1.2-3.7-2-6-2.6c-2.3-0.5-4.8-0.8-7.5-0.8H301v51.7h9.2v-20.2h7.9l11.1,20.2h10.3L327.2,407.8z M325.6,399.6
			c-1.9,1.5-4.6,2.2-8.1,2.2h-7.3V385h7.3c3.5,0,6.2,0.6,8.1,1.7c1.9,1.2,2.8,3.2,2.8,6.2C328.4,396,327.5,398.2,325.6,399.6z"/>
		<path class="st0" d="M349.9,377.7v7.7h14.9v43.9h9.2v-43.9h14.9v-7.7H349.9z"/>
	</g>
	<g>
		<g>
			<path class="st0" d="M84.2,84.4v182.1h335.5V84.4H84.2z M413,259.8h-322V91.2h322V259.8z"/>
		</g>
		<g>
			<path class="st1" d="M343.7,165.3c-1-0.6-1.9-1.2-3-1.7c-1-0.5-2-1-3.1-1.4c-0.3,1.1-0.8,2.1-1.2,3.1
				c-3.8,7.9-11.9,13.4-21.3,13.4c-13,0-23.6-10.6-23.6-23.6c0-2.8,0.5-5.4,1.4-7.9c0.4-1.1,0.8-2.1,1.4-3.1c-1-0.5-2-1-3.1-1.4
				c-1-0.4-2.1-0.8-3.2-1.1c-3.7-1.1-7.6-1.7-11.6-1.7c-22.3,0-40.5,18.2-40.5,40.5c0,22.3,18.2,40.5,40.5,40.5
				c10.7,0,20.4-4,27.5-10.9c5.5,6.7,13.8,10.9,23.1,10.9c16.8,0,30.4-13.6,30.4-30.3C357.3,180.1,351.9,170.8,343.7,165.3z
				 M326.9,217.6c-8,0-15.4-3.5-20.5-9.7l-2.3-2.8l-2.6,2.6c-6.6,6.4-15.6,10-25.2,10c-20.5,0-37.1-16.6-37.1-37.1
				c0-20.5,16.6-37.1,37.1-37.1c3.5,0,7,0.5,10.2,1.5c-1.2,3.2-1.8,6.7-1.8,10.3c0,16.7,13.6,30.3,30.4,30.3c12,0,22.3-7,27.3-17
				c7,4.9,11.5,13,11.5,22.1C353.9,205.5,341.8,217.6,326.9,217.6z"/>
			<path class="st0" d="M344.7,162c-1-0.6-2-1.2-3.1-1.7c-1-0.5-2.1-1-3.2-1.4c-0.2,1.1-0.4,2.2-0.8,3.3c-0.3,1.1-0.8,2.1-1.2,3.1
				c1.1,0.4,2.1,0.9,3.1,1.4c1,0.5,2,1.1,2.9,1.8c7,4.9,11.5,13,11.5,22.1c0,14.9-12.1,27-27,27c-8,0-15.4-3.5-20.5-9.7l-2.3-2.8
				l-2.6,2.6c-6.6,6.4-15.6,10-25.2,10c-20.5,0-37.1-16.6-37.1-37.1c0-20.5,16.6-37.1,37.1-37.1c3.5,0,7,0.5,10.2,1.5
				c1.1,0.3,2.1,0.7,3.2,1.1c1,0.4,2.1,0.9,3.1,1.4c0.4-1.1,0.8-2.1,1.4-3.1c0.5-1,1.1-2,1.8-2.9c-1-0.5-2.1-1-3.1-1.4
				c-1.1-0.4-2.2-0.8-3.2-1.2c-4.2-1.4-8.7-2.1-13.3-2.1c-24.2,0-43.8,19.7-43.8,43.8c0,24.2,19.7,43.8,43.8,43.8
				c10.2,0,19.7-3.4,27.3-9.6c6.2,6.1,14.5,9.6,23.3,9.6c18.6,0,33.7-15.1,33.7-33.7C360.6,178.6,354.3,167.9,344.7,162z"/>
		</g>
		<g>
			
				<rect x="157.2" y="118.4" transform="matrix(0.5942 -0.8043 0.8043 0.5942 -103.0831 214.0248)" class="st0" width="6.7" height="181.6"/>
		</g>
		<g>
			<path class="st1" d="M315.1,128.2c-9.2,0-17.4,4.6-22.3,11.7c-0.6,0.9-1.2,1.9-1.7,2.9c-0.5,1-1,2-1.4,3.1c-1,2.9-1.6,6-1.6,9.2
				c0,14.9,12.1,27,27,27c10.8,0,20.1-6.3,24.4-15.4c0.5-1,0.9-2.1,1.3-3.2c0.4-1.1,0.6-2.2,0.9-3.3c0.3-1.6,0.5-3.3,0.5-5.1
				C342.1,140.3,330,128.2,315.1,128.2z M337.7,162.2c-0.3,1.1-0.8,2.1-1.2,3.1c-3.8,7.9-11.9,13.4-21.3,13.4
				c-13,0-23.6-10.6-23.6-23.6c0-2.8,0.5-5.4,1.4-7.9c0.4-1.1,0.8-2.1,1.4-3.1c0.5-1,1.1-2,1.8-2.9c4.3-5.9,11.3-9.8,19.1-9.8
				c13,0,23.6,10.6,23.6,23.6c0,1.3-0.1,2.5-0.3,3.7C338.2,160.1,338,161.2,337.7,162.2z"/>
			<path class="st0" d="M315.1,124.9c-10.7,0-20.1,5.5-25.5,13.9c-0.6,1-1.2,2-1.7,3c-0.5,1-1,2.1-1.3,3.1
				c-1.2,3.2-1.8,6.7-1.8,10.3c0,16.7,13.6,30.3,30.4,30.3c12,0,22.3-7,27.3-17c0.5-1,1-2.1,1.4-3.2c0.4-1.1,0.7-2.2,1-3.4
				c0.5-2.2,0.8-4.4,0.8-6.8C345.5,138.5,331.8,124.9,315.1,124.9z M338.4,158.9c-0.2,1.1-0.4,2.2-0.8,3.3c-0.3,1.1-0.8,2.1-1.2,3.1
				c-3.8,7.9-11.9,13.4-21.3,13.4c-13,0-23.6-10.6-23.6-23.6c0-2.8,0.5-5.4,1.4-7.9c0.4-1.1,0.8-2.1,1.4-3.1c0.5-1,1.1-2,1.8-2.9
				c4.3-5.9,11.3-9.8,19.1-9.8c13,0,23.6,10.6,23.6,23.6C338.7,156.5,338.6,157.7,338.4,158.9z"/>
		</g>
	</g>
</g>
</svg>
