<?xml version="1.0" encoding="utf-8"?>
<!-- Generator: Adobe Illustrator 21.1.0, SVG Export Plug-In . SVG Version: 6.00 Build 0)  -->
<svg version="1.1" id="Layer_1" xmlns="http://www.w3.org/2000/svg" xmlns:xlink="http://www.w3.org/1999/xlink" x="0px" y="0px"
	 viewBox="0 0 500 500" style="enable-background:new 0 0 500 500;" xml:space="preserve">
<style type="text/css">
	.st0{display:none;}
	.st1{display:inline;}
	.st2{fill:#FFFFFF;}
	.st3{display:inline;opacity:0.66;}
	.st4{fill:none;stroke:#FFFFFF;stroke-width:8;stroke-linecap:round;stroke-linejoin:round;stroke-miterlimit:10;}
</style>
<g id="Layer_4" class="st0">
	<g class="st1">
		<g>
			<g>
				<circle class="st2" cx="-1915.1" cy="173.5" r="24.8"/>
			</g>
			<g>
				<circle class="st2" cx="-1831.2" cy="173.5" r="24.8"/>
			</g>
			<g>
				<circle class="st2" cx="-1747.3" cy="173.5" r="24.8"/>
			</g>
		</g>
		<g>
			<path class="st2" d="M-1932.8,428.5v-49h9.8l8.7,24c0.6,1.6,1.1,3.1,1.6,4.8c0.5,1.6,1,3.2,1.6,4.8h0.3c0.5-1.6,1.1-3.2,1.5-4.8
				c0.5-1.6,1-3.2,1.5-4.8l8.5-24h9.9v49h-8v-22.4c0-1.2,0-2.4,0.1-3.7c0.1-1.3,0.2-2.7,0.3-4.1s0.2-2.7,0.4-4s0.3-2.5,0.4-3.7h-0.3
				l-4,11.4l-8,22h-5.2l-8.1-22l-3.9-11.4h-0.3c0.1,1.2,0.2,2.4,0.3,3.7c0.1,1.3,0.3,2.7,0.4,4c0.1,1.4,0.2,2.7,0.3,4.1
				c0.1,1.3,0.1,2.6,0.1,3.7v22.4H-1932.8z"/>
			<path class="st2" d="M-1850.6,429.4c-3.2,0-6.1-0.6-8.8-1.8c-2.7-1.2-4.9-2.9-6.8-5.1s-3.4-4.9-4.4-8c-1.1-3.2-1.6-6.7-1.6-10.7
				c0-3.9,0.5-7.5,1.6-10.6s2.5-5.8,4.4-7.9s4.2-3.8,6.8-4.9c2.7-1.1,5.6-1.7,8.8-1.7c3.2,0,6.1,0.6,8.8,1.7
				c2.6,1.2,4.9,2.8,6.8,4.9c1.9,2.2,3.4,4.8,4.5,7.9c1,3.1,1.6,6.6,1.6,10.6s-0.5,7.6-1.6,10.7s-2.5,5.8-4.5,8
				c-1.9,2.2-4.2,3.9-6.8,5.1C-1844.4,428.8-1847.3,429.4-1850.6,429.4z M-1850.6,421.8c2,0,3.7-0.4,5.2-1.3c1.6-0.8,2.9-2.1,4-3.6
				c1.1-1.6,1.9-3.5,2.5-5.7s0.9-4.7,0.9-7.4c0-5.5-1.1-9.8-3.4-12.9s-5.4-4.7-9.2-4.7c-3.9,0-7,1.6-9.2,4.7
				c-2.3,3.1-3.4,7.4-3.4,12.9c0,2.7,0.3,5.2,0.9,7.4c0.6,2.2,1.4,4.1,2.5,5.7s2.4,2.8,4,3.6
				C-1854.2,421.4-1852.5,421.8-1850.6,421.8z"/>
			<path class="st2" d="M-1811.6,428.5v-49h16.5c2.5,0,4.9,0.3,7.1,0.8s4.1,1.3,5.7,2.4s2.9,2.6,3.8,4.5c0.9,1.8,1.4,4.1,1.4,6.9
				c0,3.7-0.9,6.8-2.7,9.1c-1.8,2.3-4.1,3.9-7.1,4.9l11.7,20.4h-9.7l-10.5-19.2h-7.5v19.2L-1811.6,428.5L-1811.6,428.5z
				 M-1802.9,402.4h7c3.3,0,5.9-0.7,7.7-2.1c1.8-1.4,2.7-3.5,2.7-6.3s-0.9-4.8-2.7-5.9c-1.8-1.1-4.3-1.6-7.7-1.6h-7V402.4z"/>
			<path class="st2" d="M-1759.8,428.5v-49h29.5v7.3h-20.9v12.5h17.6v7.3h-17.6v14.5h21.6v7.3h-30.2L-1759.8,428.5L-1759.8,428.5z"
				/>
		</g>
	</g>
	<g id="i1WtVg_1_" class="st3">
		<g>
			
				<image style="overflow:visible;enable-background:new    ;" width="167" height="150" id="i1WtVg_3_" xlink:href="../../../htdocs/roxydemo/assets/images/5317FD753210DE9B.jpg"  transform="matrix(2.3213 0 0 2.3213 -2005.0566 29.3)">
			</image>
		</g>
	</g>
	<g class="st1">
		<g>
			<g>
				<circle class="st2" cx="-1249.3" cy="173.5" r="24.8"/>
			</g>
			<g>
				<circle class="st2" cx="-1165.4" cy="173.5" r="24.8"/>
			</g>
			<g>
				<circle class="st2" cx="-1081.5" cy="173.5" r="24.8"/>
			</g>
		</g>
		<g>
			<path class="st2" d="M-1267,428.5v-49h9.8l8.7,24c0.6,1.6,1.1,3.1,1.6,4.8c0.5,1.6,1,3.2,1.6,4.8h0.3c0.5-1.6,1.1-3.2,1.5-4.8
				c0.5-1.6,1-3.2,1.5-4.8l8.5-24h9.9v49h-8v-22.4c0-1.2,0-2.4,0.1-3.7c0.1-1.3,0.2-2.7,0.3-4.1s0.2-2.7,0.4-4
				c0.2-1.3,0.3-2.5,0.4-3.7h-0.3l-4,11.4l-8,22h-5.2l-8.1-22l-3.9-11.4h-0.3c0.1,1.2,0.2,2.4,0.3,3.7c0.1,1.3,0.3,2.7,0.4,4
				c0.1,1.4,0.2,2.7,0.3,4.1c0.1,1.3,0.1,2.6,0.1,3.7v22.4H-1267z"/>
			<path class="st2" d="M-1184.8,429.4c-3.2,0-6.1-0.6-8.8-1.8c-2.7-1.2-4.9-2.9-6.8-5.1c-1.9-2.2-3.4-4.9-4.4-8
				c-1.1-3.2-1.6-6.7-1.6-10.7c0-3.9,0.5-7.5,1.6-10.6s2.5-5.8,4.4-7.9c1.9-2.1,4.2-3.8,6.8-4.9c2.7-1.1,5.6-1.7,8.8-1.7
				c3.2,0,6.1,0.6,8.8,1.7c2.6,1.2,4.9,2.8,6.8,4.9c1.9,2.2,3.4,4.8,4.5,7.9c1,3.1,1.6,6.6,1.6,10.6s-0.5,7.6-1.6,10.7
				c-1.1,3.1-2.5,5.8-4.5,8c-1.9,2.2-4.2,3.9-6.8,5.1C-1178.6,428.8-1181.5,429.4-1184.8,429.4z M-1184.8,421.8c2,0,3.7-0.4,5.2-1.3
				c1.6-0.8,2.9-2.1,4-3.6c1.1-1.6,1.9-3.5,2.5-5.7s0.9-4.7,0.9-7.4c0-5.5-1.1-9.8-3.4-12.9c-2.3-3.1-5.4-4.7-9.2-4.7
				c-3.9,0-7,1.6-9.2,4.7c-2.3,3.1-3.4,7.4-3.4,12.9c0,2.7,0.3,5.2,0.9,7.4c0.6,2.2,1.4,4.1,2.5,5.7s2.4,2.8,4,3.6
				C-1188.4,421.4-1186.7,421.8-1184.8,421.8z"/>
			<path class="st2" d="M-1145.8,428.5v-49h16.5c2.5,0,4.9,0.3,7.1,0.8c2.2,0.5,4.1,1.3,5.7,2.4c1.6,1.1,2.9,2.6,3.8,4.5
				c0.9,1.8,1.4,4.1,1.4,6.9c0,3.7-0.9,6.8-2.7,9.1c-1.8,2.3-4.1,3.9-7.1,4.9l11.7,20.4h-9.7l-10.5-19.2h-7.5v19.2L-1145.8,428.5
				L-1145.8,428.5z M-1137.1,402.4h7c3.3,0,5.9-0.7,7.7-2.1c1.8-1.4,2.7-3.5,2.7-6.3s-0.9-4.8-2.7-5.9c-1.8-1.1-4.3-1.6-7.7-1.6h-7
				V402.4z"/>
			<path class="st2" d="M-1094,428.5v-49h29.5v7.3h-20.9v12.5h17.6v7.3h-17.6v14.5h21.6v7.3h-30.2V428.5z"/>
		</g>
	</g>
	<g id="i1WtVg_2_" class="st3">
		<g>
			
				<image style="overflow:visible;enable-background:new    ;" width="167" height="150" id="i1WtVg_5_" xlink:href="../../../htdocs/roxydemo/assets/images/5317FD753210DE99.jpg"  transform="matrix(2.3213 0 0 2.3213 -1339.2606 29.3)">
			</image>
		</g>
	</g>
</g>
<g>
	<line class="st4" x1="250" y1="138.2" x2="250" y2="361.8"/>
	<line class="st4" x1="361.8" y1="250" x2="138.2" y2="250"/>
	<path class="st4" d="M389,442.1H111c-29.3,0-53.1-23.8-53.1-53.1V111c0-29.3,23.8-53.1,53.1-53.1H389c29.3,0,53.1,23.8,53.1,53.1
		V389C442.1,418.3,418.3,442.1,389,442.1z"/>
</g>
</svg>
