<?xml version="1.0" encoding="utf-8"?>
<!-- Generator: Adobe Illustrator 21.1.0, SVG Export Plug-In . SVG Version: 6.00 Build 0)  -->
<svg version="1.1" id="Layer_1" xmlns="http://www.w3.org/2000/svg" xmlns:xlink="http://www.w3.org/1999/xlink" x="0px" y="0px"
	 viewBox="0 0 500 500" style="enable-background:new 0 0 500 500;" xml:space="preserve">
<style type="text/css">
	.st0{fill:#898989;}
</style>
<g>
	<g>
		<path class="st0" d="M70,429.4v-50.7h16c2.8,0,5.4,0.3,7.8,0.8c2.4,0.5,4.5,1.4,6.2,2.6c1.8,1.2,3.1,2.9,4.1,4.9
			c1,2,1.5,4.5,1.5,7.4c0,2.8-0.5,5.2-1.5,7.3c-1,2.1-2.3,3.8-4.1,5.2c-1.7,1.4-3.8,2.4-6.1,3c-2.3,0.6-4.9,1-7.6,1H79v18.6H70z
			 M79,403.5h6.6c7.5,0,11.2-3.1,11.2-9.2c0-3.2-1-5.4-2.9-6.6c-1.9-1.2-4.8-1.8-8.6-1.8H79V403.5z"/>
		<path class="st0" d="M142.6,430.3c-3.3,0-6.3-0.6-9.1-1.8c-2.7-1.2-5.1-3-7.1-5.3c-2-2.3-3.5-5.1-4.6-8.3c-1.1-3.3-1.6-7-1.6-11.1
			c0-4.1,0.5-7.7,1.6-11c1.1-3.2,2.6-6,4.6-8.2c2-2.2,4.3-3.9,7.1-5.1c2.7-1.2,5.8-1.8,9.1-1.8s6.3,0.6,9.1,1.8
			c2.7,1.2,5.1,2.9,7.1,5.1c2,2.2,3.5,5,4.6,8.2c1.1,3.2,1.6,6.9,1.6,11c0,4.1-0.5,7.8-1.6,11.1c-1.1,3.3-2.6,6-4.6,8.3
			c-2,2.3-4.4,4.1-7.1,5.3S145.9,430.3,142.6,430.3z M142.6,422.5c2,0,3.8-0.4,5.4-1.3c1.6-0.9,3-2.1,4.1-3.8c1.1-1.6,2-3.6,2.6-5.9
			c0.6-2.3,0.9-4.9,0.9-7.7c0-5.7-1.2-10.1-3.5-13.4c-2.4-3.2-5.6-4.8-9.6-4.8c-4,0-7.2,1.6-9.6,4.8c-2.4,3.2-3.5,7.7-3.5,13.4
			c0,2.8,0.3,5.4,0.9,7.7c0.6,2.3,1.5,4.3,2.6,5.9c1.1,1.6,2.5,2.9,4.1,3.8C138.8,422,140.6,422.5,142.6,422.5z"/>
		<path class="st0" d="M183,429.4v-50.7h16c2.8,0,5.4,0.3,7.8,0.8c2.4,0.5,4.5,1.4,6.2,2.6c1.8,1.2,3.1,2.9,4.1,4.9s1.5,4.5,1.5,7.4
			c0,2.8-0.5,5.2-1.5,7.3c-1,2.1-2.3,3.8-4.1,5.2c-1.7,1.4-3.8,2.4-6.1,3c-2.3,0.6-4.9,1-7.6,1H192v18.6H183z M192,403.5h6.6
			c7.5,0,11.2-3.1,11.2-9.2c0-3.2-1-5.4-2.9-6.6c-1.9-1.2-4.8-1.8-8.6-1.8H192V403.5z"/>
		<path class="st0" d="M254.9,430.3c-2.9,0-5.6-0.4-8-1.3c-2.4-0.9-4.4-2.2-6-4.1c-1.7-1.9-3-4.3-3.9-7.2c-0.9-2.9-1.4-6.5-1.4-10.7
			v-28.5h9v29.2c0,2.7,0.2,5.1,0.7,6.9c0.5,1.9,1.2,3.4,2.1,4.5c0.9,1.1,2,2,3.2,2.4c1.2,0.5,2.6,0.7,4.2,0.7c1.6,0,3-0.2,4.3-0.7
			c1.3-0.5,2.4-1.3,3.3-2.4c0.9-1.1,1.6-2.7,2.2-4.5c0.5-1.9,0.8-4.2,0.8-6.9v-29.2h8.6v28.5c0,4.2-0.4,7.7-1.3,10.7
			c-0.9,2.9-2.2,5.3-3.8,7.2c-1.7,1.9-3.7,3.2-6,4.1C260.5,429.9,257.8,430.3,254.9,430.3z"/>
		<path class="st0" d="M294.5,429.4v-50.7h9v43.1h21.1v7.6H294.5z"/>
		<path class="st0" d="M334.6,429.4l16.5-50.7h10.6l16.5,50.7h-9.5l-4-13.7h-17.1l-4,13.7H334.6z M351.6,402.4l-1.8,6.2h13l-1.8-6.2
			c-0.8-2.7-1.6-5.5-2.4-8.3s-1.5-5.7-2.2-8.5h-0.3c-0.7,2.8-1.4,5.7-2.2,8.5C353.2,396.9,352.4,399.7,351.6,402.4z"/>
		<path class="st0" d="M392.2,429.4v-50.7h17.1c2.6,0,5.1,0.3,7.4,0.8c2.3,0.5,4.2,1.4,5.9,2.5c1.7,1.2,3,2.7,3.9,4.6
			c1,1.9,1.4,4.3,1.4,7.1c0,3.9-0.9,7-2.8,9.4s-4.3,4.1-7.3,5.1l12.1,21.2h-10.1L409,409.5h-7.8v19.9H392.2z M401.2,402.4h7.2
			c3.5,0,6.1-0.7,8-2.2c1.8-1.4,2.8-3.6,2.8-6.5c0-2.9-0.9-5-2.8-6.1c-1.8-1.1-4.5-1.7-8-1.7h-7.2V402.4z"/>
	</g>
	<g>
		<path class="st0" d="M185.9,277.4l22.8-78.7L142.7,150l81.8-2.7l25.9-77.7l27.8,77l81.9,0.7l-64.6,50.3l24.7,78.1l-67.8-45.9
			L185.9,277.4z M158.5,155l56.3,41.6l-19.5,67.3l57-40.7l58,39.3l-21.1-66.8l55.3-43l-70.1-0.6l-23.8-65.9l-22.2,66.5L158.5,155z"
			/>
	</g>
</g>
</svg>
