<?xml version="1.0" encoding="utf-8"?>
<!-- Generator: Adobe Illustrator 21.1.0, SVG Export Plug-In . SVG Version: 6.00 Build 0)  -->
<svg version="1.1" xmlns="http://www.w3.org/2000/svg" xmlns:xlink="http://www.w3.org/1999/xlink" x="0px" y="0px"
	 viewBox="0 0 2000 2000" style="enable-background:new 0 0 2000 2000;" xml:space="preserve">
<style type="text/css">
	.st0{fill:#161616;}
	.st1{fill:#EEEEEE;}
	.st2{fill:none;stroke:#000000;stroke-width:40;stroke-linecap:round;stroke-linejoin:round;stroke-miterlimit:10;}
	.st3{fill:none;stroke:#EEEEEE;stroke-width:40;stroke-linecap:round;stroke-linejoin:round;stroke-miterlimit:10;}
</style>
<g id="Layer_1">
	<rect x="-76.4" y="-85" class="st0" width="2152.7" height="2170"/>
	<g>
		<g>
			<path class="st1" d="M892,1778.4h-86.8c-9.5,0-17.2-7.7-17.2-17.2v-86.8c0-9.5,7.7-17.2,17.2-17.2H892c9.5,0,17.2,7.7,17.2,17.2
				v86.8C909.2,1770.7,901.5,1778.4,892,1778.4z"/>
		</g>
		<g>
			<path class="st1" d="M1147.3,1778.4h-86.8c-9.5,0-17.2-7.7-17.2-17.2v-86.8c0-9.5,7.7-17.2,17.2-17.2h86.8
				c9.5,0,17.2,7.7,17.2,17.2v86.8C1164.5,1770.7,1156.8,1778.4,1147.3,1778.4z"/>
		</g>
	</g>
</g>
<g id="Layer_2">
	<path class="st2" d="M1410,1419"/>
	<path class="st3" d="M1412.5,224"/>
	<path class="st3" d="M581,1221V259.7c0-14.7,12-26.7,26.7-26.7h445.5c51.3,0,102.1,11.5,148.1,34.2
		c85.1,42,191.2,132.9,191.2,325.3c0,249.7-208.2,319.1-300.7,337.6c-19.3,3.9-28,26.6-16.1,42.3l336.8,444.1"/>
	<path class="st3" d="M803,477h241.2c75.9,0,134.6,67.8,122.3,142.8c-0.2,1.1-0.4,2.1-0.6,3.2c-19,104-130,105-130,105h-49"/>
	<polyline class="st3" points="820,1424 820,998 1130,1424 	"/>
</g>
</svg>
