<?xml version="1.0" encoding="utf-8"?>
<!-- Generator: Adobe Illustrator 21.1.0, SVG Export Plug-In . SVG Version: 6.00 Build 0)  -->
<svg version="1.1" id="Layer_1" xmlns="http://www.w3.org/2000/svg" xmlns:xlink="http://www.w3.org/1999/xlink" x="0px" y="0px"
	 viewBox="0 0 500 208" style="enable-background:new 0 0 500 208;" xml:space="preserve">
<style type="text/css">
	.st0{fill:#333333;}
	.st1{fill:none;stroke:#333333;stroke-width:0.75;stroke-miterlimit:10;}
</style>
<g>
	<path class="st0" d="M34.2,33.2c0-0.5,0.4-0.8,0.8-0.8h38.3c0.5,0,0.9,0.4,0.9,0.8c0,0.5-0.4,0.8-0.9,0.8H35
		C34.5,34,34.2,33.6,34.2,33.2z M34.2,44.1c0-0.5,0.4-0.8,0.8-0.8h13.7c0.5,0,0.8,0.4,0.8,0.8V88c0,0.5-0.4,0.8-0.8,0.8
		c-0.5,0-0.9-0.4-0.9-0.8V45.1H35C34.5,45.1,34.2,44.6,34.2,44.1z M74.2,44.1c0,0.5-0.4,1-0.8,1H60.5V88c0,0.5-0.4,0.8-0.8,0.8
		c-0.5,0-0.8-0.4-0.8-0.8V44.1c0-0.5,0.4-0.8,0.8-0.8h13.7C73.9,43.2,74.2,43.6,74.2,44.1z"/>
	<path class="st0" d="M91.1,88.8c-0.5,0-0.8-0.4-0.8-0.8V33.1c0-0.5,0.4-0.8,0.8-0.8c0.5,0,0.9,0.4,0.9,0.8V88
		C92,88.4,91.6,88.8,91.1,88.8z M102,32.2c0.5,0,0.9,0.4,0.9,0.8v21h14.7v-21c0-0.5,0.4-0.8,0.8-0.8c0.5,0,0.9,0.4,0.9,0.8v22
		c0,0.5-0.4,0.9-0.9,0.9H102c-0.5,0-0.9-0.5-0.9-0.9v-22C101.1,32.6,101.6,32.2,102,32.2z M118.5,88.8c-0.5,0-0.8-0.4-0.8-0.8V66.9
		H103V88c0,0.5-0.5,0.8-0.9,0.8c-0.5,0-0.9-0.4-0.9-0.8V66c0-0.5,0.5-0.9,0.9-0.9h16.4c0.5,0,0.9,0.4,0.9,0.9v22
		C119.4,88.4,119,88.8,118.5,88.8z M129.4,32.2c0.5,0,0.9,0.4,0.9,0.8V88c0,0.5-0.4,0.8-0.9,0.8c-0.5,0-0.8-0.4-0.8-0.8V33.1
		C128.6,32.6,129,32.2,129.4,32.2z"/>
	<path class="st0" d="M180.6,88c0,0.5-0.4,0.8-0.8,0.8h-28.4c-0.5,0-0.9-0.4-0.9-0.8V33.1c0-0.5,0.4-0.8,0.9-0.8h28.4
		c0.5,0,0.8,0.4,0.8,0.8c0,0.5-0.4,0.9-0.8,0.9h-27.6v53.1h27.6C180.2,87.1,180.6,87.4,180.6,88z M180.6,44.1c0,0.5-0.4,0.9-0.8,0.9
		h-16.6v9.1h11.4c0.5,0,0.9,0.5,0.9,0.9c0,0.5-0.4,0.9-0.9,0.9h-12.3c-0.5,0-0.9-0.5-0.9-0.9v-11c0-0.5,0.4-0.8,0.9-0.8h17.4
		C180.2,43.2,180.6,43.6,180.6,44.1z M175.5,66c0,0.5-0.4,0.8-0.9,0.8h-11.4v9.2h16.6c0.5,0,0.8,0.4,0.8,0.9c0,0.5-0.4,0.8-0.8,0.8
		h-17.4c-0.5,0-0.9-0.4-0.9-0.8V66c0-0.5,0.4-0.9,0.9-0.9h12.3C175.1,65.1,175.5,65.5,175.5,66z"/>
	<path class="st0" d="M228.9,88.9c-0.5,0-0.8-0.5-0.8-0.9V33.1c0-0.5,0.4-0.9,0.8-0.9h21.6c9.6,0,17.2,7.9,17.2,17.4
		c0,8.8-6.6,16.4-15.4,17.3l15.9,20.6c0.3,0.4,0.2,0.9-0.2,1.2c-0.4,0.4-0.9,0.3-1.3-0.2l-16.9-21.8c-0.2-0.2-0.2-0.4-0.2-0.6
		c0-0.5,0.4-0.9,0.8-0.9c8.6,0,15.4-7.1,15.4-15.5c0-8.5-6.8-15.6-15.4-15.6h-20.7v54C229.8,88.4,229.4,88.9,228.9,88.9z
		 M254.7,88.7c-0.4,0.3-1,0.2-1.3-0.2l-12.6-16.9V88c0,0.5-0.5,0.9-0.9,0.9S239,88.4,239,88v-19c-0.1-0.2,0.1-0.5,0.3-0.8
		c0.4-0.2,0.9-0.2,1.2,0.2l14.3,19C255.1,87.8,255.1,88.4,254.7,88.7z M246.5,55.9c-0.5,0-0.9-0.4-0.9-0.8c0-0.5,0.4-0.8,0.9-0.8
		h3.1c2.6,0,4.8-2,4.8-4.6c0-2.7-2.2-4.6-4.8-4.6h-9.7c-1.2,0-1.2-1.8,0-1.8h9.7c3.6,0,6.5,2.7,6.5,6.4c0,3.6-2.9,6.3-6.5,6.3H246.5
		z"/>
	<path class="st0" d="M331.8,47.6c-0.4,0.1-0.8-0.1-0.9-0.5c-2.8-8.8-11-14.6-20.3-14.6c-12.4,0-21,8.8-21,20.9s8.6,21,21,21
		c9.2,0,17.5-5.8,20.3-14.7c0.1-0.4,0.5-0.6,0.9-0.5c0.4,0.1,0.6,0.5,0.5,0.9c-3,9.4-11.9,15.6-21.6,15.6
		c-13.2,0-22.3-9.5-22.3-22.4c0-12.8,9.1-22.3,22.3-22.3c9.7,0,18.6,6.3,21.6,15.6C332.4,47,332.2,47.5,331.8,47.6z M299.3,59.3
		c0.4-0.2,0.8-0.1,1,0.2c2.1,3.8,6.1,6.2,10.4,6.2c6.8,0,12.1-5.6,12.1-12.3c0-6.7-5.3-12.3-12.1-12.3c-4.4,0-8.3,2.4-10.4,6.2
		c-0.2,0.4-0.6,0.5-1,0.3c-0.3-0.2-0.4-0.6-0.2-1c2.4-4.2,6.8-6.8,11.7-6.8c7.5,0,13.5,6.2,13.5,13.7c0,7.5-6,13.7-13.5,13.7
		c-4.8,0-9.3-2.7-11.7-6.9C298.9,59.9,299,59.5,299.3,59.3z"/>
	<path class="st0" d="M350.1,88.7c-0.4-0.2-0.5-0.8-0.2-1.2l17.8-28.8L352,33.5c-0.2-0.5-0.1-1.1,0.3-1.3c0.4-0.2,0.9-0.2,1.2,0.3
		l16,25.7c0.2,0.3,0.2,0.7,0,0.9l-18.1,29.3C351.2,88.8,350.6,88.9,350.1,88.7z M385.8,88.8c-0.5,0.2-1,0.1-1.2-0.3l-9.8-15.9
		l-9.9,15.9c-0.2,0.4-0.8,0.5-1.2,0.2c-0.4-0.2-0.5-0.8-0.2-1.2l10.5-17.1c0.4-0.5,1.2-0.5,1.6,0l10.5,17.1
		C386.4,87.9,386.2,88.4,385.8,88.8z M365.1,32.2c0.4-0.2,1-0.2,1.3,0.3l8.4,13.5l8.3-13.5c0.3-0.5,0.9-0.5,1.3-0.3
		c0.4,0.2,0.5,0.8,0.3,1.2l-9.1,14.7c-0.4,0.5-1.2,0.5-1.6,0l-9.1-14.7C364.6,33,364.7,32.4,365.1,32.2z M397.1,32.2
		c0.5,0.2,0.5,0.8,0.3,1.3l-15.7,25.2l17.8,28.8c0.3,0.5,0.2,1-0.2,1.2c-0.5,0.2-1.1,0.1-1.3-0.3l-18.1-29.3c-0.2-0.2-0.2-0.6,0-0.9
		l16-25.7C396.2,32,396.7,31.9,397.1,32.2z"/>
	<path class="st0" d="M428.5,88.8c-0.5,0-0.9-0.4-0.9-1V63.7l-18.9-30.2c-0.3-0.4-0.2-0.9,0.2-1.2c0.4-0.2,0.9-0.1,1.2,0.3L429.3,63
		c0.1,0.2,0.2,0.3,0.2,0.5v24.4C429.4,88.4,429.1,88.8,428.5,88.8z M422.4,32.3c0.4-0.2,0.9-0.1,1.2,0.3L434,50.4l10.4-17.7
		c0.4-0.4,0.8-0.5,1.3-0.3c0.4,0.2,0.5,0.8,0.3,1.2l-11.2,19c-0.4,0.6-1.2,0.6-1.6,0l-11.1-19C421.8,33.1,421.9,32.5,422.4,32.3z
		 M459.1,32.3c0.5,0.3,0.5,0.8,0.3,1.2l-19,30.2v24.1c0,0.6-0.4,1-0.8,1c-0.5,0-0.8-0.4-0.8-1V63.5c0-0.2,0-0.3,0.1-0.5l19.1-30.3
		C458.2,32.2,458.7,32.1,459.1,32.3z"/>
	<g>
		<rect x="5.4" y="115.4" class="st1" width="489.2" height="0.5"/>
	</g>
	<g>
		<path class="st0" d="M308.2,89h-3.7c-0.6,0-1-0.4-1-1v-3.7c0-0.6,0.4-1,1-1h3.7c0.6,0,1,0.4,1,1V88C309.2,88.5,308.8,89,308.2,89z
			"/>
		<path class="st0" d="M320.1,89h-3.7c-0.6,0-1-0.4-1-1v-3.7c0-0.6,0.4-1,1-1h3.7c0.6,0,1,0.4,1,1V88C321.1,88.5,320.7,89,320.1,89z
			"/>
	</g>
	<g>
		<path class="st0" d="M43,175.4l11.4-32.3c0.2-0.5,0.6-0.8,1.1-0.8h0.8c0.5,0,0.9,0.3,1.1,0.8l11.4,32.3c0.3,0.7-0.3,1.5-1.1,1.5
			h-0.1c-0.5,0-0.9-0.3-1.1-0.8l-3.5-10.3c-0.2-0.5-0.6-0.8-1.1-0.8H49.8c-0.5,0-0.9,0.3-1.1,0.8l-3.6,10.3
			c-0.2,0.5-0.6,0.8-1.1,0.8l0,0C43.3,176.9,42.7,176.1,43,175.4z M51.9,156.5l-1.7,5c-0.3,0.7,0.3,1.5,1.1,1.5h9.1
			c0.8,0,1.3-0.8,1.1-1.5l-1.7-5c-0.7-2.1-1.4-4-2-5.9c-0.6-1.9-1.2-3.9-1.8-6h-0.2c-0.6,2.1-1.2,4.1-1.8,6
			C53.3,152.5,52.6,154.5,51.9,156.5z"/>
		<path class="st0" d="M90.5,175.7v-32.2c0-0.7,0.5-1.2,1.2-1.2h8.7c1.7,0,3.3,0.2,4.7,0.5c1.4,0.3,2.6,0.9,3.6,1.6
			c1,0.7,1.7,1.7,2.3,2.8c0.5,1.2,0.8,2.6,0.8,4.2c0,2.8-0.8,4.9-2.4,6.5c-1.3,1.2-2.9,2.1-4.9,2.6c-0.8,0.2-1.2,1.1-0.7,1.8
			l7.6,12.8c0.5,0.8-0.1,1.8-1,1.8l0,0c-0.4,0-0.8-0.2-1-0.6l-8.7-14.7c-0.2-0.4-0.6-0.6-1-0.6h-5.5c-0.7,0-1.2,0.5-1.2,1.2v13.5
			c0,0.7-0.5,1.2-1.2,1.2h0C91,176.9,90.5,176.4,90.5,175.7z M92.9,157.8c0,0.7,0.5,1.2,1.2,1.2h5.7c3.1,0,5.4-0.6,7.1-1.9
			c1.6-1.2,2.4-3.1,2.4-5.7c0-2.6-0.8-4.4-2.5-5.5c-1.6-1.1-4-1.6-7-1.6h-5.7c-0.7,0-1.2,0.5-1.2,1.2V157.8z"/>
		<path class="st0" d="M141.7,175.9v-30.4c0-0.6-0.5-1-1-1h-8.9c-0.6,0-1-0.5-1-1l0,0c0-0.6,0.5-1,1-1h22.4c0.6,0,1,0.5,1,1l0,0
			c0,0.6-0.5,1-1,1h-8.9c-0.6,0-1,0.5-1,1v30.4c0,0.6-0.5,1-1,1h-0.3C142.1,176.9,141.7,176.4,141.7,175.9z"/>
		<path class="st0" d="M203.7,175.8v-32.3c0-0.6,0.5-1.1,1.1-1.1h1.5c0.5,0,0.9,0.3,1.1,0.7l7,19.6c0.5,1.3,0.9,2.5,1.4,3.8
			c0.5,1.3,0.9,2.6,1.4,3.9h0.2c0.5-1.3,0.9-2.6,1.3-3.9c0.4-1.3,0.9-2.5,1.3-3.8l6.9-19.6c0.2-0.5,0.6-0.8,1.1-0.8h1.5
			c0.6,0,1.1,0.5,1.1,1.1v32.3c0,0.6-0.5,1.1-1.1,1.1h-0.1c-0.6,0-1.1-0.5-1.1-1.1v-21.6c0-1.4,0-3,0.1-4.6c0.1-1.7,0.1-3.2,0.2-4.7
			h-0.2l-2.7,7.7l-7.2,19.8c-0.2,0.4-0.6,0.7-1.1,0.7h-0.5c-0.5,0-0.9-0.3-1.1-0.7l-7.2-19.8l-2.7-7.7h-0.2c0.1,1.5,0.1,3,0.2,4.7
			c0.1,1.7,0.1,3.2,0.1,4.6v21.6c0,0.6-0.5,1.1-1.1,1.1l0,0C204.2,176.9,203.7,176.4,203.7,175.8z"/>
		<path class="st0" d="M252.4,175.4l11.4-32.3c0.2-0.5,0.6-0.8,1.1-0.8h0.8c0.5,0,0.9,0.3,1.1,0.8l11.4,32.3
			c0.3,0.7-0.3,1.5-1.1,1.5h-0.1c-0.5,0-0.9-0.3-1.1-0.8l-3.5-10.3c-0.2-0.5-0.6-0.8-1.1-0.8h-12.1c-0.5,0-0.9,0.3-1.1,0.8
			l-3.6,10.3c-0.2,0.5-0.6,0.8-1.1,0.8l0,0C252.7,176.9,252.2,176.1,252.4,175.4z M261.3,156.5l-1.7,5c-0.3,0.7,0.3,1.5,1.1,1.5h9.1
			c0.8,0,1.3-0.8,1.1-1.5l-1.7-5c-0.7-2.1-1.4-4-2-5.9c-0.6-1.9-1.2-3.9-1.8-6h-0.2c-0.6,2.1-1.2,4.1-1.8,6
			C262.7,152.5,262,154.5,261.3,156.5z"/>
		<path class="st0" d="M299.9,175.7v-32.2c0-0.7,0.5-1.2,1.2-1.2h8.7c1.7,0,3.3,0.2,4.7,0.5c1.4,0.3,2.6,0.9,3.6,1.6
			c1,0.7,1.7,1.7,2.3,2.8c0.5,1.2,0.8,2.6,0.8,4.2c0,2.8-0.8,4.9-2.4,6.5c-1.3,1.2-2.9,2.1-4.9,2.6c-0.8,0.2-1.2,1.1-0.7,1.8
			l7.6,12.8c0.5,0.8-0.1,1.8-1,1.8l0,0c-0.4,0-0.8-0.2-1-0.6l-8.7-14.7c-0.2-0.4-0.6-0.6-1-0.6h-5.5c-0.7,0-1.2,0.5-1.2,1.2v13.5
			c0,0.7-0.5,1.2-1.2,1.2h0C300.5,176.9,299.9,176.4,299.9,175.7z M302.3,157.8c0,0.7,0.5,1.2,1.2,1.2h5.7c3.1,0,5.4-0.6,7.1-1.9
			c1.6-1.2,2.4-3.1,2.4-5.7c0-2.6-0.8-4.4-2.5-5.5c-1.6-1.1-4-1.6-7-1.6h-5.7c-0.7,0-1.2,0.5-1.2,1.2V157.8z"/>
		<path class="st0" d="M344.2,175.8v-32.4c0-0.6,0.5-1.1,1.1-1.1h0.2c0.6,0,1.1,0.5,1.1,1.1v18.1h0.1l16.4-18.8
			c0.2-0.2,0.5-0.4,0.8-0.4l0,0c0.9,0,1.4,1.1,0.8,1.8l-9,10.4c-0.3,0.4-0.4,0.9-0.1,1.3l11.2,19.5c0.4,0.7-0.1,1.6-0.9,1.6h-0.3
			c-0.4,0-0.8-0.2-1-0.6l-10.4-18.1c-0.4-0.7-1.3-0.7-1.8-0.2l-5.8,6.6c-0.2,0.2-0.3,0.5-0.3,0.7v10.4c0,0.6-0.5,1.1-1.1,1.1h-0.2
			C344.7,176.9,344.2,176.4,344.2,175.8z"/>
		<path class="st0" d="M391.7,159.6v14.2c0,0.6,0.5,1,1,1h15c0.6,0,1,0.5,1,1v0c0,0.6-0.5,1-1,1h-17.4c-0.6,0-1-0.5-1-1v-32.5
			c0-0.6,0.5-1,1-1h16.9c0.6,0,1,0.5,1,1v0c0,0.6-0.5,1-1,1h-14.4c-0.6,0-1,0.5-1,1v6.7c0,0.6,0.5,1,1,1h11.8c0.6,0,1,0.5,1,1v0
			c0,0.6-0.5,1-1,1h-11.8c-0.6,0-1,0.5-1,1v1.1V159.6z"/>
		<path class="st0" d="M439.5,175.9v-30.4c0-0.6-0.5-1-1-1h-8.9c-0.6,0-1-0.5-1-1l0,0c0-0.6,0.5-1,1-1h22.4c0.6,0,1,0.5,1,1l0,0
			c0,0.6-0.5,1-1,1H443c-0.6,0-1,0.5-1,1v30.4c0,0.6-0.5,1-1,1h-0.3C440,176.9,439.5,176.4,439.5,175.9z"/>
		<line class="st0" x1="391.7" y1="161.1" x2="391.7" y2="159.6"/>
		<line class="st0" x1="391.7" y1="157.5" x2="391.7" y2="155.9"/>
	</g>
</g>
</svg>
