<?xml version="1.0" encoding="utf-8"?>
<!-- Generator: Adobe Illustrator 21.1.0, SVG Export Plug-In . SVG Version: 6.00 Build 0)  -->
<svg version="1.1" id="Layer_1" xmlns="http://www.w3.org/2000/svg" xmlns:xlink="http://www.w3.org/1999/xlink" x="0px" y="0px"
	 viewBox="0 0 500 500" style="enable-background:new 0 0 500 500;" xml:space="preserve">
<style type="text/css">
	.st0{fill:none;stroke:#EEEEEE;stroke-width:10;stroke-miterlimit:10;}
	.st1{fill:#EEEEEE;}
	.st2{fill:none;stroke:#EEEEEE;stroke-width:10;stroke-linecap:round;stroke-linejoin:round;stroke-miterlimit:10;}
</style>
<circle class="st0" cx="250" cy="199" r="165.5"/>
<g>
	<path class="st1" d="M169.3,435.8c0.8,1.3,1.7,2.3,3,2.9c1.2,0.6,2.6,1,4.1,1c1,0,1.9-0.1,2.7-0.4c0.8-0.3,1.6-0.7,2.2-1.2
		c0.6-0.5,1.1-1.2,1.5-1.9c0.4-0.7,0.5-1.6,0.5-2.5c0-1.1-0.2-2-0.7-2.7s-1.1-1.3-1.8-1.7c-0.8-0.5-1.6-0.8-2.6-1.2
		c-0.9-0.3-1.9-0.6-2.9-1c-1-0.3-2-0.7-2.9-1.1c-0.9-0.4-1.8-0.9-2.6-1.6c-0.8-0.7-1.4-1.5-1.8-2.5c-0.5-1-0.7-2.2-0.7-3.7
		c0-1.4,0.3-2.6,0.8-3.7c0.5-1.1,1.3-2,2.2-2.7s2-1.3,3.2-1.6c1.2-0.4,2.5-0.5,3.8-0.5c1.7,0,3.3,0.3,4.7,0.9c1.4,0.6,2.7,1.6,3.7,3
		l-2.5,1.8c-0.7-1-1.6-1.8-2.6-2.3c-1-0.5-2.1-0.8-3.5-0.8c-0.9,0-1.8,0.1-2.7,0.4c-0.8,0.2-1.6,0.6-2.2,1.1
		c-0.6,0.5-1.1,1.1-1.5,1.8c-0.4,0.7-0.6,1.6-0.6,2.6c0,1.5,0.4,2.7,1.2,3.6c0.8,0.8,1.8,1.5,3,2s2.5,0.9,3.9,1.3
		c1.4,0.4,2.7,0.9,3.9,1.5c1.2,0.6,2.2,1.5,3,2.6c0.8,1.1,1.2,2.6,1.2,4.5c0,1.4-0.3,2.6-0.8,3.7c-0.5,1.1-1.2,2-2.1,2.7
		s-1.9,1.3-3.1,1.7s-2.4,0.6-3.6,0.6c-2,0-3.9-0.4-5.6-1.1c-1.7-0.7-3.2-1.9-4.4-3.6L169.3,435.8z"/>
	<path class="st1" d="M211.1,410.5h3l13,31h-3.2l-3.4-8.2h-16.4l-3.5,8.2h-3L211.1,410.5z M212.4,413.7l-7.2,17h14.2L212.4,413.7z"
		/>
	<path class="st1" d="M233.7,410.5h3.1l10,27.2l10.1-27.2h3.1l-11.8,31h-2.9L233.7,410.5z"/>
	<path class="st1" d="M272.8,410.5h18.9v2.6h-16.1v11h15.1v2.6h-15.1v12.1h16.8v2.6h-19.6V410.5z"/>
	<path class="st1" d="M307.1,410.5h9.6c2.7,0,5,0.3,6.8,1c1.9,0.7,3.4,1.5,4.7,2.5c1.2,1,2.2,2.2,2.9,3.4c0.7,1.2,1.2,2.4,1.6,3.6
		c0.3,1.1,0.5,2.2,0.6,3.1c0.1,0.9,0.1,1.6,0.1,1.9s0,1-0.1,1.9c-0.1,0.9-0.3,1.9-0.6,3.1c-0.3,1.1-0.9,2.3-1.6,3.6
		c-0.7,1.2-1.7,2.4-2.9,3.4c-1.2,1-2.8,1.9-4.7,2.5c-1.9,0.7-4.1,1-6.8,1h-9.6V410.5z M310,438.9h6c2,0,4-0.3,5.7-0.8
		c1.8-0.5,3.3-1.3,4.6-2.3c1.3-1.1,2.3-2.4,3.1-4s1.1-3.5,1.1-5.8s-0.4-4.1-1.1-5.8s-1.8-3-3.1-4c-1.3-1.1-2.9-1.8-4.6-2.3
		c-1.8-0.5-3.7-0.8-5.7-0.8h-6V438.9z"/>
</g>
<polyline class="st2" points="182.5,231.6 234.6,283.7 323.5,125.3 "/>
</svg>
