<?xml version="1.0" encoding="utf-8"?>
<!-- Generator: Adobe Illustrator 21.1.0, SVG Export Plug-In . SVG Version: 6.00 Build 0)  -->
<svg version="1.1" id="Layer_1" xmlns="http://www.w3.org/2000/svg" xmlns:xlink="http://www.w3.org/1999/xlink" x="0px" y="0px"
	 viewBox="0 0 500 500" style="enable-background:new 0 0 500 500;" xml:space="preserve">
<style type="text/css">
	.st0{fill:#323232;}
</style>
<path class="st0" d="M387,350.4l-96.4-84.5c23.6-40,16.2-92.4-20.1-124.2c-41-35.9-103.4-31.7-139.2,9.2
	c-35.9,41-31.8,103.3,9.2,139.2c24.1,21.1,55.5,28.4,84.5,22.5l-6.1-24c-21.5,4-44.6-1.6-62.3-17.1c-30.7-26.9-33.9-73.6-6.9-104.4
	c26.9-30.7,73.7-33.8,104.4-6.9c26,22.7,32.3,59.5,17.3,88.9c-2.7,5.5-6.1,10.7-10.3,15.5c-3.9,4.4-8.2,8.3-12.9,11.6L300,323
	l-0.2,0.1l62.8,55.1c7.7,6.7,19.4,6,26.1-1.7S394.7,357.1,387,350.4z"/>
</svg>
