<?xml version="1.0" encoding="utf-8"?>
<!-- Generator: Adobe Illustrator 21.1.0, SVG Export Plug-In . SVG Version: 6.00 Build 0)  -->
<svg version="1.1" id="Layer_1" xmlns="http://www.w3.org/2000/svg" xmlns:xlink="http://www.w3.org/1999/xlink" x="0px" y="0px"
	 viewBox="0 0 500 500" style="enable-background:new 0 0 500 500;" xml:space="preserve">
	 <style type="text/css">
	 	.st0{fill:#fff;}
	 </style>
<g id="kMyJTj_1_">
	<g>
		<path class="st0" d="M372.3,150.2c-14.4,12.9-28.7,25.9-43.1,38.8c-47.8,43-95.6,86.1-143.3,129.2c-3.2,2.9-6,3.3-9.9,2
			C131,305.8,86,291.6,41,277.1c-2.1-0.7-3.8-2.9-5.7-4.3c1.6-1.9,2.9-4.5,5-5.6c138.8-71.1,277.6-142.1,416.5-213
			c1.9-1,5.1-1.4,6.8-0.4c1.2,0.7,1.4,4.3,0.9,6.3c-25.6,106-51.3,212.1-77,318.1c-1.3,5.4-2.8,6.3-8.2,4.6
			c-50.7-15.4-101.4-30.8-152.2-46.3c-6.1-1.9-6.8-4.5-2.5-9.7c48.2-57.1,96.4-114.1,144.6-171.2c1.3-1.6,2.6-3.1,3.9-4.7
			C372.9,150.7,372.6,150.5,372.3,150.2z"/>
		<path class="st0" d="M221.8,401.3c0-12.6,0-25.2,0-37.8c0-6.3,1.9-7.8,7.9-5.9c12.8,3.9,25.6,7.8,38.4,11.7c6.1,1.9,7,4.1,3.7,9.3
			c-13.5,21.5-27.1,42.9-40.8,64.2c-0.1,0.2-0.2,0.3-0.3,0.4c-2.5,3-7.5,1.7-8.5-2c-0.1-0.4-0.2-0.8-0.2-1.1
			C221.6,427.2,221.8,414.3,221.8,401.3z"/>
	</g>
</g>
</svg>
