<?xml version="1.0" encoding="utf-8"?>
<!-- Generator: Adobe Illustrator 21.1.0, SVG Export Plug-In . SVG Version: 6.00 Build 0)  -->
<svg version="1.1" id="Layer_1" xmlns="http://www.w3.org/2000/svg" xmlns:xlink="http://www.w3.org/1999/xlink" x="0px" y="0px"
	 viewBox="0 0 500 500" style="enable-background:new 0 0 500 500;" xml:space="preserve">
<style type="text/css">
	.st0{fill:none;stroke:#EEEEEE;stroke-width:10;stroke-miterlimit:10;}
	.st1{fill:none;stroke:#EEEEEE;stroke-width:10;stroke-linecap:round;stroke-linejoin:round;stroke-miterlimit:10;}
	.st2{fill:#EEEEEE;}
</style>
<circle class="st0" cx="250" cy="199" r="165.5"/>
<polyline class="st1" points="182.5,231.6 234.6,283.7 323.5,125.3 "/>
<g>
	<path class="st2" d="M180.6,437c0.8,1.4,1.9,2.5,3.2,3.2c1.3,0.7,2.8,1,4.5,1c1,0,2-0.2,3-0.5c0.9-0.3,1.7-0.8,2.4-1.3
		c0.7-0.6,1.2-1.3,1.6-2.1c0.4-0.8,0.6-1.7,0.6-2.7c0-1.2-0.2-2.1-0.7-2.9c-0.5-0.8-1.2-1.4-2-1.9c-0.8-0.5-1.8-0.9-2.8-1.3
		c-1-0.3-2.1-0.7-3.2-1c-1.1-0.3-2.2-0.7-3.2-1.2s-2-1-2.8-1.7s-1.5-1.6-2-2.7c-0.5-1.1-0.7-2.4-0.7-4c0-1.5,0.3-2.8,0.9-4
		s1.4-2.1,2.4-2.9c1-0.8,2.2-1.4,3.5-1.8c1.3-0.4,2.7-0.6,4.1-0.6c1.8,0,3.6,0.3,5.1,1c1.6,0.7,2.9,1.7,4.1,3.3l-2.7,2
		c-0.8-1.1-1.7-1.9-2.8-2.5s-2.3-0.8-3.8-0.8c-1,0-2,0.1-2.9,0.4c-0.9,0.3-1.7,0.7-2.4,1.2c-0.7,0.5-1.2,1.2-1.6,2
		c-0.4,0.8-0.6,1.7-0.6,2.8c0,1.7,0.4,3,1.3,3.9s1.9,1.6,3.2,2.1c1.3,0.5,2.7,1,4.2,1.4c1.5,0.4,2.9,0.9,4.2,1.6
		c1.3,0.7,2.4,1.6,3.2,2.8c0.9,1.2,1.3,2.8,1.3,4.9c0,1.5-0.3,2.9-0.9,4.1c-0.6,1.2-1.3,2.2-2.3,3c-1,0.8-2.1,1.4-3.4,1.8
		c-1.3,0.4-2.6,0.6-4,0.6c-2.2,0-4.3-0.4-6.2-1.2c-1.9-0.8-3.5-2.1-4.8-3.9L180.6,437z"/>
	<path class="st2" d="M215.8,409.5h20.7v2.9h-17.5v12h16.4v2.9h-16.4v13.2h18.3v2.9h-21.4V409.5z"/>
	<path class="st2" d="M253.6,409.5h4.1l20.6,29.6h0.1v-29.6h3.1v33.8h-4.1l-20.6-29.6h-0.1v29.6h-3.1V409.5z"/>
	<path class="st2" d="M307.7,412.4h-11.5v-2.9h26.2v2.9h-11.5v30.9h-3.1V412.4z"/>
</g>
</svg>
