<?xml version="1.0" encoding="utf-8"?>
<!-- Generator: Adobe Illustrator 21.1.0, SVG Export Plug-In . SVG Version: 6.00 Build 0)  -->
<svg version="1.1" id="Layer_1" xmlns="http://www.w3.org/2000/svg" xmlns:xlink="http://www.w3.org/1999/xlink" x="0px" y="0px"
	 viewBox="0 0 500 500" style="enable-background:new 0 0 500 500;" xml:space="preserve">
<style type="text/css">
	.st0{stroke:#000000;stroke-width:12;stroke-linecap:round;stroke-linejoin:round;stroke-miterlimit:10;}
</style>
<g>
	<path class="st0" d="M95.8,318.8c-3.7-11.5-7.3-22.5-11.1-34c15.9-6.4,25-18.1,25-34.8c0-16.4-8.9-28.1-25-34.5
		c3.6-11.2,7.1-22.1,10.9-33.8c16.5,3.8,30.8,0.1,40.9-13.8c9.9-13.8,9-28.3,0-42.9c9.8-7.1,19.3-14,28.8-20.9
		c22.1,26,62.9,15.2,66.7-21.7c12.2,0,24.5,0,37.2,0c1.6,16.2,9,28.4,24.8,34c16,5.6,29.3,0.4,40.8-12.1c9.6,7,19.3,14,29.1,21.1
		c-8.5,14.1-9.7,28.3-0.4,41.8c9.6,13.9,23.4,18.6,40.7,14.6c3.7,11.3,7.3,22.4,11,33.7c-16.2,7.4-25.7,19-24.7,37.1
		c0.9,15.6,9.8,25.8,24.7,32.4c-3.5,11-7.1,22.1-10.8,33.7c-16.4-3.4-30.5,0.3-40.4,14.2c-9.7,13.6-8.9,27.9-0.1,42.3
		c-9.6,7-19.2,14-29.2,21.2c-11.1-12.1-24.3-18-40.6-12.5c-16,5.4-23.5,17.5-25.3,34c-12.2,0-24.2,0-36.4,0
		c-1.5-17.4-9.9-29.4-26.4-34.4c-15.8-4.9-28.8,1-39.8,13.5c-9.7-7-19.4-14-29.6-21.4c8.7-14.4,10-29.1-0.2-43
		C126.4,318.7,112.4,314.7,95.8,318.8z M368,250.5c0-65.6-52.7-118.6-117.9-118.6c-64.7,0-118.4,53.4-118.4,117.8
		c0,65.2,53.3,118.6,118.1,118.6C314.9,368.3,368,315.3,368,250.5z"/>
</g>
</svg>
