<?xml version="1.0" encoding="utf-8"?>
<!-- Generator: Adobe Illustrator 21.1.0, SVG Export Plug-In . SVG Version: 6.00 Build 0)  -->
<svg version="1.1" id="Layer_1" xmlns="http://www.w3.org/2000/svg" xmlns:xlink="http://www.w3.org/1999/xlink" x="0px" y="0px"
	 viewBox="0 0 576 576" style="enable-background:new 0 0 576 576;" xml:space="preserve">
<style type="text/css">
	.st0{clip-path:url(#SVGID_2_);}
	.st1{clip-path:url(#SVGID_4_);fill:#333;}
	.st2{clip-path:url(#SVGID_4_);fill:#333;}
</style>
<g id="_x39_xKQYQ.tif">
	<g>
		<defs>
			<rect id="SVGID_1_" x="36" y="83" width="504" height="410.1"/>
		</defs>
		<clipPath id="SVGID_2_">
			<use xlink:href="#SVGID_1_"  style="overflow:visible;"/>
		</clipPath>
		<g class="st0">
			<defs>
				<rect id="SVGID_3_" x="36" y="83" width="504" height="410.1"/>
			</defs>
			<clipPath id="SVGID_4_">
				<use xlink:href="#SVGID_3_"  style="overflow:visible;"/>
			</clipPath>
			<path class="st1" d="M202.9,493h-16.8c-0.1-0.3-0.1-0.6,0.2-0.7c1-0.5,2.1-0.4,3.2-0.4h10.8c0.8,0,1.6,0,2.4,0.4
				C203,492.5,203,492.7,202.9,493"/>
			<path class="st1" d="M202.9,493c0-0.1,0-0.3,0-0.4c2.1-1.1,4.1-1.1,6.2,0c0,0.1,0,0.3,0,0.4H202.9z"/>
			<path class="st1" d="M186.1,492.6c0,0.1,0,0.3,0,0.4h-3.6c-0.1-0.3-0.1-0.5,0.2-0.7C183.8,491.9,185,491.7,186.1,492.6"/>
			<path class="st1" d="M182.5,492.6v0.4h-2.2c0-0.1,0-0.3,0-0.4C181,491.9,181.8,491.9,182.5,492.6"/>
			<path class="st2" d="M182.5,492.6c-0.8,0-1.5,0-2.2,0c-28.8-1.4-56.8-6.9-84-16.4c-20.4-7.2-39.7-16.5-58-28
				c-0.7-0.5-1.5-0.9-2.3-1.3c2.3-1,4.6,0,6.9,0.1c11.5,0.9,23.1,0.9,34.6,0c14-1.2,27.7-3.7,41.3-7.6c24.9-7.3,47.7-18.9,68.4-34.8
				c0.3-0.2,0.6-0.4,0.8-0.7v-0.3c-7-0.3-14-1-20.9-2.8c-36.4-9.4-61.1-31.8-74.3-67c-0.8-2.2-0.7-2.3,1.7-1.9
				c14.3,2.5,28.4,1.7,42.4-1.6c0.3-0.1,0.5-0.3,1-0.6c-24.2-5.5-44-17.5-59.3-36.7c-15.4-19.2-22.8-41.1-22.7-66
				c14.5,7.8,29.7,12.2,46.3,12.9c-2.5-2-4.7-3.6-6.8-5.3c-20.8-16.9-33.5-38.7-37.6-65.2c-3.5-22.8,0.3-44.6,11.3-65
				c1.5-2.8,1.5-2.8,3.5-0.4c19.8,23.7,42.6,43.9,68.7,60.4c22.7,14.4,47,25.6,72.7,33.3c15.4,4.6,31,8,47,10.1
				c6.9,0.9,13.8,1.4,20.7,2c2,0.2,2.1-0.4,1.8-2.1c-6.4-34,1.3-64.3,24.2-90.4c16.6-18.9,37.6-30.2,62.6-33.5
				c34.1-4.5,63.6,5.5,88.2,29.7c1.4,1.4,2.6,1.8,4.6,1.4c21.6-4.6,42-12.4,61-23.5c0.5-0.3,0.9-0.7,1.8-0.4
				c-1.1,4.2-2.9,8.1-4.7,12c-8.7,18.2-21.7,32.7-38.7,43.5c0,0.7,0.1,0.8,1.4,0.5c11.5-1.3,22.7-4,33.8-7.4
				c7.5-2.3,14.7-5.1,22.4-8.4c-2.8,4.5-5.6,8.3-8.5,12c-11.8,15.2-25.3,28.5-40.8,39.9c-1.6,1.2-2.1,2.4-2.1,4.4
				c0.1,6.9,0.3,13.9,0,20.8c-1,24.8-5,49-12.1,72.8c-10.9,36.6-27.7,70.1-51,100.3c-27.6,35.9-61.7,63.9-102.5,83.4
				c-24.1,11.4-49.4,19.2-75.7,23.5c-12.6,2.1-25.3,3.4-38,4c-2.1,0-4.2,0-6.2,0h-16.9C184.9,492.6,183.7,492.6,182.5,492.6"/>
			<path class="st1" d="M483.7,147.2c-0.7,0.6-1.5,0.4-2.3,0.3c0-0.6,0.6-0.6,0.9-0.8C482.7,147.3,483.3,147.1,483.7,147.2"/>
		</g>
	</g>
</g>
</svg>
