<?xml version="1.0" encoding="utf-8"?>
<!-- Generator: Adobe Illustrator 21.1.0, SVG Export Plug-In . SVG Version: 6.00 Build 0)  -->
<svg version="1.1" id="Layer_1" xmlns="http://www.w3.org/2000/svg" xmlns:xlink="http://www.w3.org/1999/xlink" x="0px" y="0px"
	 viewBox="0 0 94.5 86.6" style="enable-background:new 0 0 94.5 86.6;" xml:space="preserve">
<style type="text/css">
	.st0{fill:#E2E2E2;}
</style>
<g id="Fii1er_1_">
	<g>
		<path class="st0" d="M2.2,44.1c0-0.5,0-0.9,0-1.4c0.1-0.2,0.2-0.4,0.3-0.6c6-10.5,14.4-18.5,25.5-23.3c12.2-5.2,24.5-5.6,36.7-0.4
			c11.7,5,20.2,13.5,27,24c0.5,0.8,0.5,1.7,0,2.6c-0.3,0.4-0.6,0.8-0.8,1.2c-6.6,9.5-14.8,17-25.4,21.7c-7.3,3.2-15,4.6-22.9,3.7
			c-7.8-0.9-14.8-3.7-21.4-7.8C13.4,58.8,7.1,52.1,2.2,44.1z M47.9,24.3c-3.9,0-7.1,0.8-10.1,2.3c-11.5,5.8-14.3,20.4-5.5,29.6
			c7.7,8.1,21,8.4,29.2,0.8C68.8,50,69.5,39,63,31.4C58.9,26.6,53.6,24.4,47.9,24.3z"/>
		<path class="st0" d="M37.1,43.3c0.1-4.5,3.3-8.3,8-9.3c4.8-1.1,9.9,1.5,11.6,5.9c2.3,5.6-1.6,12-7.8,12.8
			c-5.3,0.7-10.1-2.2-11.4-7C37.3,44.9,37.2,44.1,37.1,43.3z"/>
	</g>
</g>
</svg>
