<?xml version="1.0" encoding="utf-8"?>
<!-- Generator: Adobe Illustrator 21.1.0, SVG Export Plug-In . SVG Version: 6.00 Build 0)  -->
<svg version="1.1" id="Layer_1" xmlns="http://www.w3.org/2000/svg" xmlns:xlink="http://www.w3.org/1999/xlink" x="0px" y="0px"
	 viewBox="0 0 500 180" style="enable-background:new 0 0 500 180;" xml:space="preserve">
<style type="text/css">
	.st0{fill:#FFFFFF;}
</style>
<g>
	<g>
		<g>
			<path class="st0" d="M34,19.1c0-0.5,0.4-0.8,0.8-0.8h38.3c0.5,0,0.9,0.4,0.9,0.8c0,0.5-0.4,0.8-0.9,0.8H34.8
				C34.4,20,34,19.6,34,19.1z M34,30c0-0.5,0.4-0.8,0.8-0.8h13.8c0.5,0,0.8,0.4,0.8,0.8v44c0,0.5-0.4,0.8-0.8,0.8
				c-0.5,0-0.9-0.4-0.9-0.8V31H34.8C34.4,31,34,30.6,34,30z M74.1,30c0,0.5-0.4,1-0.8,1H60.3v43c0,0.5-0.4,0.8-0.8,0.8
				c-0.5,0-0.8-0.4-0.8-0.8V30c0-0.5,0.4-0.8,0.8-0.8h13.8C73.7,29.2,74.1,29.6,74.1,30z"/>
		</g>
		<g>
			<path class="st0" d="M90.9,74.8c-0.5,0-0.8-0.4-0.8-0.8V19c0-0.5,0.4-0.8,0.8-0.8c0.5,0,0.9,0.4,0.9,0.8V74
				C91.8,74.4,91.5,74.8,90.9,74.8z M101.9,18.2c0.5,0,0.9,0.4,0.9,0.8v21.1h14.7V19c0-0.5,0.4-0.8,0.8-0.8c0.5,0,0.9,0.4,0.9,0.8
				v22c0,0.5-0.4,0.9-0.9,0.9h-16.4c-0.5,0-0.9-0.5-0.9-0.9V19C101,18.6,101.5,18.2,101.9,18.2z M118.4,74.8c-0.5,0-0.8-0.4-0.8-0.8
				V52.8h-14.7V74c0,0.5-0.5,0.8-0.9,0.8c-0.5,0-0.9-0.4-0.9-0.8V52c0-0.5,0.5-0.9,0.9-0.9h16.4c0.5,0,0.9,0.4,0.9,0.9v22
				C119.3,74.4,118.9,74.8,118.4,74.8z M129.3,18.2c0.5,0,0.9,0.4,0.9,0.8V74c0,0.5-0.4,0.8-0.9,0.8c-0.5,0-0.8-0.4-0.8-0.8V19
				C128.5,18.6,128.9,18.2,129.3,18.2z"/>
		</g>
		<g>
			<path class="st0" d="M180.5,74c0,0.5-0.4,0.8-0.8,0.8h-28.4c-0.5,0-0.9-0.4-0.9-0.8V19c0-0.5,0.4-0.8,0.9-0.8h28.4
				c0.5,0,0.8,0.4,0.8,0.8c0,0.5-0.4,0.9-0.8,0.9h-27.6v53.1h27.6C180.1,73.1,180.5,73.4,180.5,74z M180.5,30c0,0.5-0.4,0.9-0.8,0.9
				h-16.6v9.1h11.5c0.5,0,0.9,0.5,0.9,0.9c0,0.5-0.4,0.9-0.9,0.9h-12.3c-0.5,0-0.9-0.5-0.9-0.9V30c0-0.5,0.4-0.8,0.9-0.8h17.4
				C180.1,29.2,180.5,29.6,180.5,30z M175.5,52c0,0.5-0.4,0.8-0.9,0.8h-11.5v9.2h16.6c0.5,0,0.8,0.4,0.8,0.9c0,0.5-0.4,0.8-0.8,0.8
				h-17.4c-0.5,0-0.9-0.4-0.9-0.8V52c0-0.5,0.4-0.9,0.9-0.9h12.3C175.1,51.1,175.5,51.5,175.5,52z"/>
		</g>
		<g>
			<path class="st0" d="M228.9,66c-0.5,0-0.8-0.5-0.8-0.9V19c0-0.5,0.4-0.9,0.8-0.9h21.6c9.6,0,17.2,7.9,17.2,17.4
				c0,8.8-6.6,16.4-15.4,17.3l15.9,20.6c0.3,0.4,0.2,0.9-0.2,1.2c-0.4,0.4-0.9,0.3-1.3-0.2l-16.9-21.8c-0.2-0.2-0.2-0.4-0.2-0.6
				c0-0.5,0.4-0.9,0.8-0.9c8.6,0,15.4-7.1,15.4-15.5c0-8.5-6.8-15.6-15.4-15.6h-20.7v45.1C229.8,65.5,229.4,66,228.9,66z
				 M254.7,74.7c-0.4,0.3-1,0.2-1.3-0.2l-12.6-16.9V74c0,0.5-0.5,0.9-0.9,0.9S239,74.4,239,74V54.9c-0.1-0.2,0.1-0.5,0.3-0.8
				c0.4-0.2,0.9-0.2,1.2,0.2l14.3,19.1C255.1,73.8,255.1,74.4,254.7,74.7z M246.5,41.9c-0.5,0-0.9-0.4-0.9-0.8
				c0-0.5,0.4-0.8,0.9-0.8h3.1c2.6,0,4.8-2,4.8-4.6c0-2.7-2.2-4.6-4.8-4.6h-9.7c-1.2,0-1.2-1.8,0-1.8h9.7c3.6,0,6.5,2.7,6.5,6.4
				c0,3.6-2.9,6.3-6.5,6.3H246.5z"/>
		</g>
		<g>
			<path class="st0" d="M331.9,33.5c-0.4,0.1-0.8-0.1-0.9-0.5c-2.8-8.8-11-14.6-20.3-14.6c-12.4,0-21,8.8-21,20.9s8.6,21,21,21
				c9.2,0,17.5-5.8,20.3-14.7c0.1-0.4,0.5-0.6,0.9-0.5c0.4,0.1,0.6,0.5,0.5,0.9c-3,9.4-11.9,15.7-21.6,15.7
				c-13.2,0-22.3-9.5-22.3-22.4c0-12.9,9.1-22.3,22.3-22.3c9.8,0,18.6,6.3,21.6,15.6C332.5,33,332.3,33.4,331.9,33.5z M299.3,45.2
				c0.4-0.2,0.8-0.1,1,0.2c2.1,3.8,6.1,6.2,10.5,6.2c6.8,0,12.1-5.6,12.1-12.3c0-6.7-5.3-12.3-12.1-12.3c-4.4,0-8.4,2.4-10.5,6.2
				c-0.2,0.4-0.6,0.5-1,0.3c-0.3-0.2-0.4-0.6-0.2-1c2.4-4.2,6.8-6.8,11.7-6.8c7.5,0,13.5,6.3,13.5,13.7c0,7.5-6,13.7-13.5,13.7
				c-4.8,0-9.3-2.7-11.7-6.9C298.9,45.9,299,45.4,299.3,45.2z"/>
		</g>
		<g>
			<path class="st0" d="M350.2,74.7c-0.4-0.2-0.5-0.8-0.2-1.2l17.8-28.8l-15.7-25.2c-0.2-0.5-0.1-1.1,0.3-1.3
				c0.4-0.2,0.9-0.2,1.2,0.3l16.1,25.7c0.2,0.3,0.2,0.7,0,0.9l-18.1,29.3C351.3,74.7,350.7,74.9,350.2,74.7z M385.9,74.7
				c-0.5,0.2-1,0.1-1.2-0.3l-9.8-15.9L365,74.4c-0.2,0.4-0.8,0.5-1.2,0.2c-0.4-0.2-0.5-0.8-0.2-1.2L374,56.4c0.4-0.5,1.2-0.5,1.6,0
				l10.5,17.1C386.5,73.9,386.3,74.4,385.9,74.7z M365.2,18.1c0.4-0.2,1-0.2,1.3,0.3l8.4,13.5l8.3-13.5c0.3-0.5,0.9-0.5,1.3-0.3
				c0.4,0.2,0.5,0.8,0.3,1.2l-9.1,14.8c-0.4,0.5-1.2,0.5-1.6,0l-9.1-14.8C364.7,19,364.8,18.3,365.2,18.1z M397.2,18.1
				c0.5,0.2,0.5,0.8,0.3,1.3l-15.7,25.2l17.8,28.8c0.3,0.5,0.2,1-0.2,1.2c-0.5,0.2-1.1,0.1-1.3-0.3L380,45.1c-0.2-0.2-0.2-0.6,0-0.9
				l16.1-25.7C396.3,18,396.9,17.9,397.2,18.1z"/>
		</g>
		<g>
			<path class="st0" d="M428.7,74.8c-0.5,0-0.9-0.4-0.9-1V49.7l-18.9-30.2c-0.3-0.4-0.2-0.9,0.2-1.2c0.4-0.2,0.9-0.1,1.2,0.3
				l19.1,30.4c0.1,0.2,0.2,0.3,0.2,0.5v24.4C429.6,74.4,429.2,74.8,428.7,74.8z M422.5,18.3c0.4-0.2,0.9-0.1,1.2,0.3l10.5,17.8
				l10.5-17.8c0.4-0.4,0.8-0.5,1.3-0.3c0.4,0.2,0.5,0.8,0.3,1.2L435,38.5c-0.4,0.6-1.2,0.6-1.6,0l-11.1-19.1
				C421.9,19,422.1,18.5,422.5,18.3z M459.3,18.3c0.5,0.3,0.5,0.8,0.3,1.2l-19.1,30.2v24.1c0,0.6-0.4,1-0.8,1c-0.5,0-0.8-0.4-0.8-1
				V49.5c0-0.2,0-0.3,0.1-0.5L458,18.6C458.3,18.2,458.9,18,459.3,18.3z"/>
		</g>
		<g>
			<g>
				<rect x="5.2" y="101.4" class="st0" width="489.6" height="0.5"/>
				<path class="st0" d="M495,102.1H5v-0.8h490V102.1z M5.4,101.7h489.3v-0.1H5.4V101.7z"/>
			</g>
		</g>
		<g>
			<g>
				<path class="st0" d="M309,74.9h-5c-0.2,0-0.3-0.1-0.3-0.3v-5c0-0.2,0.1-0.3,0.3-0.3h5c0.2,0,0.3,0.1,0.3,0.3v5
					C309.3,74.8,309.1,74.9,309,74.9z"/>
			</g>
			<g>
				<path class="st0" d="M320.9,74.9h-5c-0.2,0-0.3-0.1-0.3-0.3v-5c0-0.2,0.1-0.3,0.3-0.3h5c0.2,0,0.3,0.1,0.3,0.3v5
					C321.2,74.8,321.1,74.9,320.9,74.9z"/>
			</g>
		</g>
		<g>
			<g>
				<path class="st0" d="M42.8,161.5l11.4-32.4c0.2-0.5,0.6-0.8,1.1-0.8h0.8c0.5,0,0.9,0.3,1.1,0.8l11.4,32.4
					c0.3,0.7-0.3,1.5-1.1,1.5h-0.1c-0.5,0-0.9-0.3-1.1-0.8l-3.5-10.3c-0.2-0.5-0.6-0.8-1.1-0.8H49.6c-0.5,0-0.9,0.3-1.1,0.8
					L45,162.2c-0.2,0.5-0.6,0.8-1.1,0.8l0,0C43.1,163,42.6,162.2,42.8,161.5z M51.7,142.6l-1.7,5c-0.3,0.7,0.3,1.5,1.1,1.5h9.1
					c0.8,0,1.3-0.8,1.1-1.5l-1.7-5c-0.7-2.1-1.4-4-2-5.9c-0.6-1.9-1.2-3.9-1.8-6h-0.2c-0.6,2.1-1.2,4.2-1.8,6
					C53.1,138.5,52.4,140.5,51.7,142.6z"/>
			</g>
			<g>
				<path class="st0" d="M90.4,161.8v-32.2c0-0.7,0.5-1.2,1.2-1.2h8.7c1.7,0,3.3,0.2,4.7,0.5c1.4,0.3,2.6,0.9,3.6,1.6
					c1,0.7,1.7,1.7,2.3,2.8c0.5,1.2,0.8,2.6,0.8,4.2c0,2.8-0.8,4.9-2.4,6.5c-1.3,1.2-2.9,2.1-4.9,2.6c-0.8,0.2-1.2,1.1-0.7,1.8
					l7.6,12.8c0.5,0.8-0.1,1.8-1,1.8l0,0c-0.4,0-0.8-0.2-1-0.6l-8.7-14.7c-0.2-0.4-0.6-0.6-1-0.6H94c-0.7,0-1.2,0.5-1.2,1.2v13.5
					c0,0.7-0.5,1.2-1.2,1.2h0C90.9,163,90.4,162.4,90.4,161.8z M92.8,143.9c0,0.7,0.5,1.2,1.2,1.2h5.7c3.1,0,5.4-0.6,7.1-1.9
					c1.6-1.2,2.4-3.1,2.4-5.7c0-2.6-0.8-4.4-2.5-5.5c-1.6-1.1-4-1.6-7-1.6H94c-0.7,0-1.2,0.5-1.2,1.2V143.9z"/>
			</g>
			<g>
				<path class="st0" d="M141.6,161.9v-30.4c0-0.6-0.5-1.1-1.1-1.1h-8.9c-0.6,0-1.1-0.5-1.1-1.1l0,0c0-0.6,0.5-1.1,1.1-1.1H154
					c0.6,0,1.1,0.5,1.1,1.1l0,0c0,0.6-0.5,1.1-1.1,1.1h-8.9c-0.6,0-1.1,0.5-1.1,1.1v30.4c0,0.6-0.5,1.1-1.1,1.1h-0.3
					C142.1,163,141.6,162.5,141.6,161.9z"/>
			</g>
			<g>
				<path class="st0" d="M203.7,161.8v-32.4c0-0.6,0.5-1.1,1.1-1.1h1.5c0.5,0,0.9,0.3,1.1,0.8l7,19.6c0.5,1.3,0.9,2.5,1.4,3.8
					c0.5,1.3,0.9,2.6,1.4,3.9h0.2c0.5-1.3,0.9-2.6,1.3-3.9c0.4-1.3,0.9-2.5,1.3-3.8l6.9-19.6c0.2-0.5,0.6-0.8,1.1-0.8h1.5
					c0.6,0,1.1,0.5,1.1,1.1v32.4c0,0.6-0.5,1.1-1.1,1.1h-0.1c-0.6,0-1.1-0.5-1.1-1.1v-21.6c0-1.4,0-3,0.1-4.7
					c0.1-1.7,0.1-3.2,0.2-4.7h-0.2l-2.7,7.7l-7.2,19.9c-0.2,0.4-0.6,0.7-1.1,0.7h-0.5c-0.5,0-0.9-0.3-1.1-0.7l-7.2-19.9l-2.7-7.7
					h-0.2c0.1,1.5,0.1,3,0.2,4.7c0.1,1.7,0.1,3.2,0.1,4.7v21.6c0,0.6-0.5,1.1-1.1,1.1l0,0C204.2,163,203.7,162.5,203.7,161.8z"/>
			</g>
			<g>
				<path class="st0" d="M252.4,161.5l11.4-32.4c0.2-0.5,0.6-0.8,1.1-0.8h0.8c0.5,0,0.9,0.3,1.1,0.8l11.4,32.4
					c0.3,0.7-0.3,1.5-1.1,1.5H277c-0.5,0-0.9-0.3-1.1-0.8l-3.5-10.3c-0.2-0.5-0.6-0.8-1.1-0.8h-12.1c-0.5,0-0.9,0.3-1.1,0.8
					l-3.6,10.3c-0.2,0.5-0.6,0.8-1.1,0.8l0,0C252.7,163,252.2,162.2,252.4,161.5z M261.3,142.6l-1.7,5c-0.3,0.7,0.3,1.5,1.1,1.5h9.1
					c0.8,0,1.3-0.8,1.1-1.5l-1.7-5c-0.7-2.1-1.4-4-2-5.9c-0.6-1.9-1.2-3.9-1.8-6h-0.2c-0.6,2.1-1.2,4.2-1.8,6
					C262.7,138.5,262,140.5,261.3,142.6z"/>
			</g>
			<g>
				<path class="st0" d="M300,161.8v-32.2c0-0.7,0.5-1.2,1.2-1.2h8.7c1.7,0,3.3,0.2,4.7,0.5c1.4,0.3,2.6,0.9,3.6,1.6
					c1,0.7,1.7,1.7,2.3,2.8c0.5,1.2,0.8,2.6,0.8,4.2c0,2.8-0.8,4.9-2.4,6.5c-1.3,1.2-2.9,2.1-4.9,2.6c-0.8,0.2-1.2,1.1-0.7,1.8
					l7.6,12.8c0.5,0.8-0.1,1.8-1,1.8l0,0c-0.4,0-0.8-0.2-1-0.6l-8.7-14.7c-0.2-0.4-0.6-0.6-1-0.6h-5.5c-0.7,0-1.2,0.5-1.2,1.2v13.5
					c0,0.7-0.5,1.2-1.2,1.2h0C300.5,163,300,162.4,300,161.8z M302.4,143.9c0,0.7,0.5,1.2,1.2,1.2h5.7c3.1,0,5.4-0.6,7.1-1.9
					c1.6-1.2,2.4-3.1,2.4-5.7c0-2.6-0.8-4.4-2.5-5.5c-1.6-1.1-4-1.6-7-1.6h-5.7c-0.7,0-1.2,0.5-1.2,1.2V143.9z"/>
			</g>
			<g>
				<path class="st0" d="M344.3,161.9v-32.4c0-0.6,0.5-1.1,1.1-1.1h0.2c0.6,0,1.1,0.5,1.1,1.1v18.1h0.1l16.4-18.9
					c0.2-0.2,0.5-0.4,0.8-0.4l0,0c0.9,0,1.4,1.1,0.8,1.8l-9,10.4c-0.3,0.4-0.4,0.9-0.1,1.3l11.2,19.5c0.4,0.7-0.1,1.6-1,1.6h-0.3
					c-0.4,0-0.8-0.2-1-0.6l-10.4-18.1c-0.4-0.7-1.3-0.7-1.8-0.2l-5.8,6.6c-0.2,0.2-0.3,0.5-0.3,0.7v10.4c0,0.6-0.5,1.1-1.1,1.1h-0.2
					C344.8,163,344.3,162.5,344.3,161.9z"/>
			</g>
			<g>
				<path class="st0" d="M391.8,145.6v14.2c0,0.6,0.5,1,1,1h15c0.6,0,1,0.5,1,1v0c0,0.6-0.5,1-1,1h-17.4c-0.6,0-1-0.5-1-1v-32.5
					c0-0.6,0.5-1,1-1h16.9c0.6,0,1,0.5,1,1v0c0,0.6-0.5,1-1,1h-14.4c-0.6,0-1,0.5-1,1v6.7c0,0.6,0.5,1,1,1h11.8c0.6,0,1,0.5,1,1l0,0
					c0,0.6-0.5,1-1,1h-11.8c-0.6,0-1,0.5-1,1v1.1V145.6z"/>
			</g>
			<g>
				<path class="st0" d="M439.7,161.9v-30.4c0-0.6-0.5-1.1-1.1-1.1h-8.9c-0.6,0-1.1-0.5-1.1-1.1l0,0c0-0.6,0.5-1.1,1.1-1.1h22.4
					c0.6,0,1.1,0.5,1.1,1.1l0,0c0,0.6-0.5,1.1-1.1,1.1h-8.9c-0.6,0-1.1,0.5-1.1,1.1v30.4c0,0.6-0.5,1.1-1.1,1.1h-0.3
					C440.1,163,439.7,162.5,439.7,161.9z"/>
			</g>
			<g>
				<line class="st0" x1="391.9" y1="147.1" x2="391.9" y2="145.6"/>
			</g>
			<g>
				<line class="st0" x1="391.9" y1="143.5" x2="391.9" y2="142"/>
			</g>
		</g>
	</g>
</g>
</svg>
