<?xml version="1.0" encoding="utf-8"?>
<!-- Generator: Adobe Illustrator 21.1.0, SVG Export Plug-In . SVG Version: 6.00 Build 0)  -->
<svg version="1.1" id="Layer_1" xmlns="http://www.w3.org/2000/svg" xmlns:xlink="http://www.w3.org/1999/xlink" x="0px" y="0px"
	 viewBox="0 0 131 73" style="enable-background:new 0 0 131 73;" xml:space="preserve">
<style type="text/css">
	.st0{fill:none;stroke:#966B4D;stroke-linecap:round;stroke-linejoin:round;stroke-miterlimit:10;}
	.st1{fill:none;stroke:#000000;stroke-linecap:round;stroke-linejoin:round;stroke-miterlimit:10;}
	.st2{fill:none;stroke:#CECDCC;stroke-miterlimit:10;}
</style>
<g>
	<g>
		<g>
			<polyline class="st0" points="104.8,40.2 104.8,43.8 101.8,45.5 			"/>
			<line class="st0" x1="104.8" y1="30.1" x2="104.8" y2="34.5"/>
			<line class="st0" x1="92.9" y1="36.7" x2="96.1" y2="34.9"/>
			<polyline class="st0" points="96.4,48.6 92.9,50.5 92.9,46.1 			"/>
			<line class="st0" x1="81" y1="29.9" x2="81" y2="33.5"/>
			<line class="st0" x1="92.9" y1="39.1" x2="92.9" y2="36.7"/>
			<line class="st0" x1="89.4" y1="48.6" x2="92.9" y2="50.5"/>
			<polyline class="st0" points="81,40.2 81,43.8 83.6,45.3 			"/>
			<polyline class="st0" points="89.4,24.5 92.5,22.5 95.8,24.5 			"/>
			<polyline class="st0" points="83.6,31.4 81,29.9 84.7,27.5 			"/>
			<line class="st0" x1="92.9" y1="36.7" x2="89.7" y2="34.9"/>
			<polyline class="st0" points="100.9,27.6 104.8,30 102,31.6 			"/>
		</g>
	</g>
	<line class="st1" x1="57.6" y1="35.6" x2="74.7" y2="35.6"/>
	<rect x="8.2" y="8.1" class="st2" width="114.6" height="56.9"/>
	<g id="t82WBJ_1_">
		<g>
			<path d="M46,22.8c0.1,0,0.1,0,0.2,0c0,4.2,0,8.4,0,12.6c-0.1,0-0.2,0-0.3,0c-4.6,0-9.2,0-13.8,0c-0.1,0-0.2,0-0.3,0
				c0-3.5,0-7.1,0-10.6c0,0,0.1,0,0.1,0c0.7-0.1,1.3-0.2,2-0.3c1.9-0.3,3.8-0.5,5.7-0.8c1.7-0.2,3.4-0.5,5.1-0.7
				C45.2,23,45.6,22.9,46,22.8z"/>
			<path d="M46.3,36.7c0,4.2,0,8.3,0,12.5c-0.1,0-0.1,0-0.2,0c0,0-0.1,0-0.1,0c-0.8-0.1-1.6-0.2-2.4-0.3c-1.9-0.3-3.8-0.5-5.6-0.8
				c-1.6-0.2-3.2-0.4-4.8-0.7c-0.4-0.1-0.8-0.1-1.2-0.2c0-3.5,0-7,0-10.5c0.1,0,0.2,0,0.3,0c4.6,0,9.2,0,13.8,0
				C46.1,36.7,46.2,36.7,46.3,36.7z"/>
			<path d="M19.9,26.4c0.7-0.1,1.3-0.2,2-0.3c1.6-0.2,3.2-0.4,4.8-0.7c1.3-0.2,2.6-0.4,3.8-0.5c0,0,0.1,0,0.2,0c0,0.1,0,0.2,0,0.2
				c0,3.3,0,6.6,0,9.9c0,0.2-0.1,0.3-0.3,0.2c-3.4,0-6.8,0-10.2,0c-0.1,0-0.2,0-0.3,0C19.9,32.4,19.9,29.4,19.9,26.4z"/>
			<path d="M19.9,36.7c0.1,0,0.2,0,0.3,0c3.4,0,6.8,0,10.2,0c0.1,0,0.2,0,0.3,0c0,3.4,0,6.9,0,10.3c-0.3,0-0.7-0.1-1-0.1
				c-1.9-0.3-3.8-0.5-5.7-0.8c-1.3-0.2-2.6-0.4-3.9-0.5c0,0-0.1,0-0.1,0C19.9,42.6,19.9,39.7,19.9,36.7z"/>
		</g>
	</g>
</g>
</svg>
