<?xml version="1.0" encoding="utf-8"?>
<!-- Generator: Adobe Illustrator 21.1.0, SVG Export Plug-In . SVG Version: 6.00 Build 0)  -->
<svg version="1.1" id="Layer_1" xmlns="http://www.w3.org/2000/svg" xmlns:xlink="http://www.w3.org/1999/xlink" x="0px" y="0px"
	 viewBox="0 0 500 798" style="enable-background:new 0 0 500 798;" xml:space="preserve">
<style type="text/css">
	.st0{fill:none;stroke:#00DCDD;stroke-width:4;stroke-linecap:round;stroke-linejoin:round;stroke-miterlimit:10;}
</style>
<g>
	<polyline class="st0" points="342.2,195.6 444.1,317.5 383,317.5 	"/>
	<polyline class="st0" points="57,798 56.9,297.5 341.4,13 341.4,195.6 219.5,317.5 289,317.5 	"/>
	<path class="st0" d="M383,317.5c-0.2,25.7-21.2,46.5-47,46.5s-46.7-20.8-47-46.5H383z"/>
	<g>
		<line class="st0" x1="342" y1="419" x2="342" y2="478"/>
		<line class="st0" x1="342" y1="487" x2="342" y2="511"/>
		<line class="st0" x1="342" y1="395" x2="342" y2="409"/>
	</g>
	<g>
		<line class="st0" x1="378.9" y1="388.3" x2="408.3" y2="439.5"/>
		<line class="st0" x1="412.7" y1="447.3" x2="424.7" y2="468.1"/>
	</g>
	<g>
		<line class="st0" x1="282.2" y1="412.6" x2="257.9" y2="466.3"/>
		<line class="st0" x1="292.1" y1="390.7" x2="286.3" y2="403.4"/>
	</g>
</g>
</svg>
