<?xml version="1.0" encoding="utf-8"?>
<!-- Generator: Adobe Illustrator 21.1.0, SVG Export Plug-In . SVG Version: 6.00 Build 0)  -->
<svg version="1.1" id="Layer_1" xmlns="http://www.w3.org/2000/svg" xmlns:xlink="http://www.w3.org/1999/xlink" x="0px" y="0px"
	 viewBox="0 0 500 481" style="enable-background:new 0 0 500 481;" xml:space="preserve">
<style type="text/css">
	.st0{fill:none;stroke:#00DCDD;stroke-width:4;stroke-linecap:round;stroke-linejoin:round;stroke-miterlimit:10;}
</style>
<g>
	<g>
		<polyline class="st0" points="358.7,274.2 358.7,306.9 330.7,322.7 		"/>
		<line class="st0" x1="358.7" y1="181.8" x2="358.7" y2="222.1"/>
		<line class="st0" x1="250" y1="242.1" x2="279.5" y2="225.4"/>
		<polyline class="st0" points="281.6,350.3 250,368.1 250,328 		"/>
		<line class="st0" x1="141.3" y1="180.4" x2="141.3" y2="213.3"/>
		<line class="st0" x1="250" y1="264.2" x2="250" y2="242.1"/>
		<line class="st0" x1="218.1" y1="350.1" x2="250" y2="368.1"/>
		<polyline class="st0" points="141.3,274.2 141.3,306.9 165.1,320.3 		"/>
		<polyline class="st0" points="217.8,131.4 246.8,112.9 276.7,131.2 		"/>
		<polyline class="st0" points="165.6,194.2 141.3,180.4 175.3,158.6 		"/>
		<line class="st0" x1="250" y1="242.1" x2="220.9" y2="225.5"/>
		<polyline class="st0" points="322.4,158.9 358.7,180.9 332.7,195.7 		"/>
	</g>
</g>
</svg>
